<svg width="360" height="640" viewBox="0 0 360 640" fill="none" xmlns="http://www.w3.org/2000/svg">
<g clip-path="url(#clip0_1_5)">
<rect width="360" height="640" fill="white"/>
<path fill-rule="evenodd" clip-rule="evenodd" d="M71.513 558.538C86.5452 560.86 101.049 564.203 113.975 573.11C127.825 582.654 139.516 595.065 147.527 610.918C157.161 629.984 171.124 651.85 164.092 672.293C157.035 692.805 130.735 692.519 114.959 705.59C98.9665 718.84 91.403 748.775 71.513 748.999C51.6569 749.223 42.7378 720.744 27.4264 706.577C13.4705 693.664 -6.10731 687.948 -14.1224 669.766C-22.6785 650.356 -22.9131 626.975 -16.6996 606.477C-10.5336 586.136 2.34469 567.905 19.5964 558.529C35.5577 549.855 53.9396 555.823 71.513 558.538Z" fill="#5C3AE2"/>
<path fill-rule="evenodd" clip-rule="evenodd" d="M20.4909 -43.6023C31.9722 -38.3918 42.8038 -32.4824 51.1314 -22.4734C60.0549 -11.7481 66.6142 0.789397 69.4657 15.2607C72.8949 32.6647 79.1548 53.2741 68.971 68.0631C58.7531 82.9019 37.821 76.8077 22.3057 83.7479C6.57664 90.7837 -6.15232 113.048 -22.0808 108.792C-37.9823 104.543 -38.7368 79.767 -47.7936 65.017C-56.0486 51.5729 -70.4 42.6328 -72.7345 26.2972C-75.2265 8.85889 -70.1877 -9.9015 -60.6457 -24.9168C-51.1765 -39.8178 -36.8206 -51.5331 -20.9528 -55.1874C-6.27183 -58.5683 7.06872 -49.6937 20.4909 -43.6023Z" fill="#5C3AE2"/>
<path fill-rule="evenodd" clip-rule="evenodd" d="M341.39 -84.99C362.379 -84.4203 376.331 -63.1592 389.396 -46.7913C399.626 -33.9743 403.03 -18.1352 407.36 -2.34086C411.45 12.5775 414.723 27.0107 413.861 42.4512C412.712 63.0166 416.596 87.3258 401.562 101.473C386.444 115.699 361.904 114.068 341.39 110.648C323.058 107.591 306.142 97.8244 294.27 83.5836C283.981 71.2406 288.84 52.6051 281.22 38.4712C270.735 19.0206 239.598 8.82336 242.148 -13.1056C244.559 -33.8371 274.495 -37.1733 291.444 -49.45C308.407 -61.7367 320.422 -85.5591 341.39 -84.99Z" fill="#FFC800"/>
<path fill-rule="evenodd" clip-rule="evenodd" d="M-43.2537 310.011C-20.9221 310.618 -6.07823 333.275 7.8221 350.717C18.7069 364.376 22.3288 381.255 26.9358 398.086C31.2872 413.984 34.7697 429.365 33.8522 445.819C32.63 467.735 36.7617 493.64 20.7664 508.716C4.68179 523.876 -21.4274 522.139 -43.2537 518.493C-62.7579 515.236 -80.7554 504.828 -93.3869 489.652C-104.334 476.499 -99.1649 456.64 -107.271 441.578C-118.427 420.85 -151.556 409.983 -148.843 386.615C-146.278 364.522 -114.427 360.967 -96.3939 347.884C-78.3461 334.791 -65.5629 309.404 -43.2537 310.011Z" fill="#FFC800"/>
<path fill-rule="evenodd" clip-rule="evenodd" d="M203.651 627.697C197.687 606.168 214.999 585.336 227.601 566.934C237.47 552.524 252.547 544.114 267.289 534.777C281.213 525.957 294.898 518.12 310.899 514.175C332.21 508.921 355.767 497.378 374.869 508.253C394.077 519.188 400.068 544.66 402.98 566.596C405.581 586.198 400.905 606.456 390.098 622.98C380.73 637.302 360.228 638.18 348.203 650.345C331.655 667.085 330.975 701.944 307.837 706.199C285.963 710.221 273.229 680.811 255.436 667.404C237.628 653.986 209.61 649.205 203.651 627.697Z" fill="#FFC800"/>
<path d="M199.456 631.81C199.096 632.111 198.692 632.355 198.259 632.534C190.867 634.309 183.518 636.306 176.061 637.743C166.557 639.578 156.977 641.009 147.413 642.495C144.991 642.882 142.514 642.909 140.076 643.192C138.53 643.372 137.022 643.807 135.476 643.971C131.459 644.384 127.431 644.733 123.397 645.059C122.695 645.114 121.971 644.793 121.258 644.809C120.823 644.809 120.404 645.304 119.968 645.321C116.185 645.435 112.402 645.587 108.619 645.544C103.475 645.489 98.3147 645.544 93.198 645.07C85.3977 644.379 77.6574 643.149 71.0057 638.538C66.651 635.506 62.8407 632.006 62.1385 626.28C61.5942 622.121 62.6829 618.403 64.8983 615.012C66.5313 612.448 68.5671 610.113 70.3416 607.642C70.8369 606.962 71.0492 606.074 71.5173 605.361C72.1735 604.211 72.9588 603.139 73.8579 602.166C79.1972 597.147 85.0334 592.684 91.2765 588.846C95.8652 585.961 100.53 583.147 105.315 580.627C120.643 572.56 136.565 565.968 153.428 561.809C164.701 559.033 176.105 556.911 187.688 556.219C194.683 555.8 201.721 556.105 208.737 556.138C214.42 556.138 220.103 556.274 225.786 556.334C236.209 556.453 246.497 557.569 256.497 560.623C261.499 562.147 266.175 564.335 269.909 568.184C274.204 572.615 275.57 580.486 272.799 586.01C270.578 590.457 267.261 594.264 263.159 597.071C260.982 598.579 258.728 599.994 256.704 601.687C254.978 603.135 253.644 605.04 251.946 606.515C249.284 608.823 246.421 610.87 243.732 613.172C242.872 613.902 242.36 615.029 241.593 615.894C239.503 618.224 237.592 620.793 235.181 622.731C231.49 625.708 227.478 628.299 223.527 630.939C221.415 632.349 219.139 633.52 216.94 634.799C216.176 634.798 215.423 634.979 214.744 635.327C214.064 635.676 213.477 636.181 213.032 636.802C210.468 637.961 207.91 639.132 205.34 640.28C204.796 640.525 204.203 640.705 203.642 640.906L197.442 643.377C196.806 643.9 196.117 644.355 195.385 644.733C180.333 650.485 164.921 655.245 149.248 658.983C139.363 661.335 129.51 663.882 119.549 665.853C110.813 667.584 101.94 668.661 93.1217 669.973C91.7119 670.18 90.2586 670.082 88.8325 670.18C88.0559 670.25 87.2735 670.152 86.5375 669.895C85.8016 669.638 85.129 669.227 84.5649 668.689C84.4201 668.561 84.2591 668.453 84.0859 668.367C83.6341 668.139 83.1714 667.921 82.7142 667.692L83.9606 666.783C83.8666 666.687 83.7627 666.602 83.6504 666.528C83.2095 666.304 82.7631 666.098 82.3222 665.885C82.8229 665.581 83.3129 665.036 83.8409 665.003C101.499 663.795 118.498 659.174 135.552 654.895C155.496 649.887 175.174 643.976 194.34 636.508C198.76 634.788 203.125 632.926 207.447 630.983C210.613 629.542 213.676 627.885 216.614 626.024C215.062 626.569 213.516 627.113 211.954 627.592C208.688 628.631 205.357 629.628 202.069 630.684C201.634 630.891 201.227 631.155 200.861 631.467L199.456 631.81ZM103.475 593.163C101.749 593.936 99.964 594.6 98.3092 595.509C90.7581 599.614 83.8103 604.743 77.6628 610.75C75.529 612.846 73.9014 615.453 72.0071 617.826C69.7321 620.58 68.4122 623.997 68.2459 627.564C68.1914 628.626 68.4364 629.987 69.0896 630.732C70.5811 632.442 72.6332 633.454 75.0445 634.031C73.4115 631.032 72.7094 628.043 74.4241 625.148C75.6228 623.107 77.0871 621.234 78.7787 619.579C83.9063 614.62 90.0734 611.137 96.3441 607.871C106.186 602.749 116.517 598.808 127.088 595.487C140.743 591.132 154.798 588.151 169.045 586.587C173.993 586.043 178.957 585.657 183.921 585.33C193.995 584.663 204.112 585.093 214.093 586.615C219.537 587.436 224.887 588.558 230.064 590.604C235.328 592.689 240.101 595.171 242.676 600.56C242.992 601.214 243.351 601.437 244.07 601.067C245.773 600.174 247.542 599.396 249.235 598.47C250.607 597.719 252.191 597.066 253.171 595.928C255.4 593.434 256.729 590.264 256.943 586.925C257.101 584.241 256.665 581.552 255.109 579.435C253.247 576.904 251.298 574.198 248.337 572.848C246.906 572.19 246.339 570.241 244.429 570.432C244.276 570.432 244.08 569.947 243.885 569.702C243.28 568.946 241.99 569.223 241.577 568.178C241.492 568.228 241.403 568.268 241.31 568.298C240.922 568.433 240.51 568.481 240.101 568.439C235.948 567.002 231.839 565.451 227.5 564.575C223.56 563.709 219.522 563.369 215.492 563.562C212.95 563.726 210.37 564.575 207.763 563.633C207.262 563.453 206.484 564.215 205.809 564.297C201.345 564.841 196.876 565.446 192.396 565.816C188.042 566.175 183.834 567.835 179.333 567.313C178.298 567.193 176.921 567.188 175.936 568.401C175.495 568.946 174.248 568.227 173.214 568.755C172.18 569.283 170.623 569.114 169.306 569.25C169.262 569.25 169.224 569.31 169.175 569.321C166.279 570.007 163.482 571.074 160.64 571.88C149.895 574.944 139.194 578.101 128.754 582.113C126.402 583.017 124.1 584.078 121.677 584.835C118.466 585.809 115.145 586.468 112.348 588.482C111.292 589.238 109.876 589.494 108.652 590.038C108.187 590.286 107.744 590.574 107.329 590.898L103.475 593.163ZM168.555 592.564L169.42 591.519C169.113 591.431 168.793 591.394 168.473 591.41C167.929 591.568 167.384 591.818 166.84 592.031L168.625 592.515C168.255 592.793 167.907 593.261 167.51 593.31C166.753 593.397 165.931 593.081 165.196 593.239C164.146 593.457 163.171 594.083 162.121 594.328C153.994 596.021 145.829 597.55 137.73 599.363C134.54 600.076 131.443 601.295 128.367 602.449C123.142 604.409 117.606 605.497 112.582 608.023C112.162 608.235 111.607 608.181 111.172 608.377C109.539 609.112 107.906 609.857 106.273 610.674C104.798 611.425 103.399 612.345 101.918 613.053C100.438 613.76 98.9242 614.19 97.4546 614.827C93.5027 616.531 90.3129 619.383 86.9762 621.98C85.1757 623.5 83.5145 625.178 82.012 626.993C81.2147 627.958 80.5162 629.002 79.9272 630.107C79.2467 631.266 79.8292 631.881 81.0158 632.012C84.4451 632.404 87.8798 633.057 91.3145 633.057C107.427 633.057 123.343 630.792 139.216 628.408C148.099 627.075 156.939 625.436 165.773 623.776C180.383 621.027 194.878 617.788 209.162 613.608C219.229 610.75 229.135 607.354 238.839 603.434C240.069 602.923 239.927 602.46 239.22 601.66C236.797 598.987 233.635 597.305 230.401 596.146C226.254 594.665 221.812 593.996 217.506 592.934C217.201 592.858 217 592.39 216.712 592.183C216.423 591.976 215.977 591.699 215.623 591.465L215.182 592.009L216.374 592.232L216.091 592.602C215.323 592.466 214.529 592.134 213.799 592.237C211.497 592.559 209.292 591.824 207.012 591.818C203.136 591.818 199.255 591.465 195.379 591.274C194.361 591.22 193.349 591.062 192.331 591.056C191.417 591.056 190.508 591.187 189.609 591.258C188.934 591.318 188.254 591.372 187.579 591.443C186.904 591.514 186.137 591.878 185.712 591.617C184.46 590.849 183.317 591.328 182.163 591.617C181.161 591.889 180.236 592.325 179.632 591.002C179.534 590.784 179.088 590.724 178.772 590.632C178.734 590.632 178.521 590.926 178.554 590.991C179.169 592.167 178.129 591.628 177.776 591.726C177.29 591.841 176.797 591.927 176.301 591.982C175.457 592.112 174.613 592.232 173.764 592.346C172.735 592.477 171.554 592.346 170.721 592.793C169.752 593.266 169.23 592.918 168.555 592.553V592.564ZM251.772 564.667C251.538 564.896 251.276 565.348 251.07 565.32C249.077 565.065 247.102 564.722 245.115 564.428C244.734 564.4 244.352 564.4 243.972 564.428C244.191 564.734 244.447 565.011 244.734 565.255C246.492 566.409 248.321 567.432 250.035 568.674C255.816 572.772 259.371 578.319 260.378 585.357C260.65 587.268 260.421 589.249 260.421 591.584C264.618 588.471 268.042 585.237 270.007 580.817C270.965 578.64 271.145 576.24 269.577 574.177C266.409 570.002 261.624 568.505 256.997 566.763C255.223 566.072 253.051 566.382 251.772 564.656V564.667ZM197.502 557.362C177.025 557.068 144.599 561.761 107.356 580.698C97.8732 585.459 88.9309 591.227 80.6839 597.904C115.891 572.93 154.876 558.979 197.502 557.351V557.362ZM83.1441 617.734L83.3238 618.055C85.2997 616.787 87.2485 615.464 89.257 614.245C96.3351 609.911 103.792 606.229 111.536 603.244C118.373 600.664 125.232 598.029 132.259 596.075C141.088 593.626 150.08 591.72 159.051 589.832C162.818 589.037 166.704 588.808 170.542 588.34C172.784 588.068 175.032 587.839 177.275 587.605C179.518 587.371 181.804 587.143 184.068 586.914C182.346 586.657 180.6 586.601 178.864 586.745C173.668 587.362 168.48 588.055 163.302 588.825C149.754 590.811 136.38 593.642 123.463 598.231C115.809 600.952 108.281 604.044 100.802 607.223C94.4558 609.883 88.5122 613.417 83.1441 617.723V617.734ZM219.945 626.949L219.684 626.541C217.904 627.499 216.167 628.539 214.344 629.399C210.125 631.386 205.912 633.378 201.617 635.196C196.522 637.373 191.357 639.36 186.186 641.341C185.385 641.652 184.465 642.561 183.464 641.554C183.282 641.661 183.109 641.783 182.947 641.919C182.375 642.332 181.858 642.92 181.232 643.121C171.518 646.173 161.791 649.198 152.051 652.195C150.63 652.636 149.199 653.028 147.767 653.442C148.557 653.535 149.358 653.453 150.113 653.202C160.466 650.078 170.808 646.939 181.14 643.785C182.163 643.475 182.62 643.546 182.473 644.765C182.512 645.207 182.633 645.637 182.833 646.034C183.056 645.653 183.317 645.288 183.502 644.885C183.91 643.976 183.714 642.871 185.097 642.37C190.337 640.465 195.541 638.455 200.708 636.339C204.121 634.94 207.442 633.302 210.789 631.756C212.967 630.743 215.144 629.736 217.321 628.653C218.228 628.133 219.105 627.561 219.945 626.939V626.949ZM157.445 627.254L157.538 627.635C161.985 626.813 166.443 626.035 170.879 625.148C182.593 622.807 194.285 620.314 205.754 616.983C210.397 615.627 215.008 614.12 219.602 612.628C221.937 611.866 224.229 610.995 226.542 610.14C227.429 609.819 228.322 609.509 229.215 609.193L229.052 608.725C205.754 617.043 181.776 622.818 157.445 627.243V627.254ZM163.754 633.786C183.17 630.683 202.265 626.367 220.527 618.882C201.989 625.212 183.014 630.184 163.754 633.759V633.786ZM237.619 558.756V558.397L224.066 557.716C224.066 557.863 224.066 558.01 224.066 558.152L237.619 558.756ZM143.265 654.596L143.385 655.048L145.895 654.297L145.807 653.97L143.265 654.596Z" fill="#1D1D1D"/>
<path fill-rule="evenodd" clip-rule="evenodd" d="M376.682 242.77C389.142 244.699 401.164 247.477 411.877 254.876C423.357 262.805 433.048 273.115 439.688 286.286C447.673 302.125 459.247 320.291 453.418 337.274C447.569 354.315 425.769 354.077 412.694 364.936C399.437 375.944 393.168 400.813 376.682 400.999C360.224 401.185 352.831 377.525 340.14 365.756C328.572 355.029 312.344 350.28 305.701 335.174C298.609 319.05 298.414 299.625 303.564 282.596C308.675 265.697 319.35 250.551 333.649 242.763C346.879 235.556 362.116 240.514 376.682 242.77Z" fill="#5C3AE2"/>
<path d="M320.418 318.474C319.166 317.74 317.647 317.331 318.023 315.513C318.19 314.339 318.514 313.193 318.987 312.106C320.62 308.916 322.111 305.617 324.163 302.711C326.885 298.846 330.739 296.309 335.594 296.113C340.226 295.934 344.875 296.179 349.513 296.293C355.887 296.456 362.282 297.011 368.21 293.756C372.021 291.672 375.243 289.135 377.284 285.129C379.592 280.594 382.031 276.109 384.763 271.825C388.574 265.838 393.941 261.962 401.126 260.939C401.855 260.835 402.759 260.53 403.303 260.841C404.173 261.434 404.897 262.218 405.421 263.132C405.606 263.443 405.23 264.45 404.838 264.678C404 265.179 402.966 265.32 402.057 265.718C401.348 266.07 400.663 266.466 400.004 266.905C399.879 266.981 399.749 267.155 399.64 267.139C397.217 266.872 396.118 268.995 394.436 270.04C390.549 272.457 388.225 276.207 386.119 280.105C384.132 283.79 382.238 287.524 380.207 291.182C379.627 292.25 378.866 293.209 377.959 294.018C375.335 296.266 372.657 298.263 369.321 299.635C362.843 302.302 356.338 301.546 349.725 301.159C345.631 300.914 341.489 300.691 337.428 301.056C332.268 301.519 328.719 304.779 325.834 308.921C325.083 310.01 323.94 310.832 323.178 311.915C322.672 312.639 322.568 313.624 322.22 314.463C321.659 315.753 321.049 317.043 320.418 318.474ZM402.715 261.973L402.617 261.619L395.361 263.628L395.476 264.047L402.715 261.973Z" fill="#1D1D1D"/>
<path d="M387.259 253.852L386.284 254.679H387.645C388.62 256.459 388.004 257.765 386.676 258.909C385.517 259.905 384.444 261.042 382.73 260.988C382.55 260.988 382.256 261.059 382.186 261.173C381.538 262.724 380.395 262.659 379.159 262.098C379.088 262.833 379.159 263.584 378.914 264.161C378.541 264.778 378.07 265.329 377.521 265.794C374.625 268.788 373.498 272.658 372.045 276.414C370.711 279.86 368.85 283.055 365.54 285.075C364.955 285.319 364.345 285.502 363.722 285.619C363.178 286.49 362.405 287.568 360.712 287.725C359.727 287.818 358.817 288.678 357.832 288.814C355.111 289.135 352.329 289.587 349.635 289.358C347.136 289.135 344.643 288.27 342.259 287.35C337.219 285.443 331.728 285.065 326.474 286.261C323.463 286.842 320.745 288.445 318.782 290.801C318.108 291.507 317.396 292.176 316.648 292.804C313.269 296.091 310.572 300.012 308.712 304.344C308.135 305.694 307.585 307.065 307.008 308.404C306.736 309.041 306.431 309.357 305.675 308.845C303.808 307.594 303.497 306.771 304.042 304.453C306.181 295.161 311.826 288.406 319.484 283.148C322.881 280.823 326.865 280.344 330.839 280.459C333.537 280.596 336.215 280.984 338.841 281.618C341.29 282.162 343.653 283.088 346.075 283.763C349.02 284.585 351.964 284.04 354.882 283.545C362.258 282.298 366.819 277.922 369.067 270.889C371.56 263.084 376.568 257.444 383.998 254.015C384.918 253.59 386.012 253.542 387.03 253.318C387.128 253.482 387.193 253.667 387.259 253.852ZM355.083 284.813L355.181 285.173L359.667 283.959L359.574 283.605L355.083 284.813ZM319.065 284.813L319.283 285.205L322.963 283.175L322.718 282.734L319.065 284.813Z" fill="#1D1D1D"/>
<path d="M400.784 286.222C400.24 286.848 399.63 287.463 399.07 288.105C398.83 288.377 398.389 288.867 398.455 288.954C399.326 290.135 398.411 291.131 397.774 291.567C396.141 292.721 396.686 294.359 396.452 295.813C396.321 296.678 395.238 298.039 394.443 298.186C394.378 297.794 394.318 297.408 394.252 297.021C393.885 297.151 393.538 297.335 393.224 297.565C392.727 298.069 392.258 298.6 391.819 299.155L393.186 299.427C393.267 299.922 393.343 300.401 393.42 300.875C391.928 301.419 390.431 301.686 389.288 302.965C388.668 303.662 387.813 303.989 388.303 305.143C388.341 305.241 387.759 305.79 387.655 305.736C385.331 304.533 384.074 306.683 383.366 307.804C382.891 308.589 382.189 309.21 381.352 309.584C380.808 309.856 379.909 309.486 379.175 309.426C378.95 309.439 378.727 309.475 378.51 309.535C378.549 309.976 378.576 310.379 378.603 310.771C377.275 311.315 377.275 311.315 374.248 310.499C373.982 312.164 372.615 312.725 370.874 311.822C370.776 312.154 370.683 312.469 370.672 312.513C368.86 312.469 366.965 310.651 365.409 313.318C364.037 311.805 362.611 312.453 361.054 313.248C360.324 313.618 359.334 313.558 358.468 313.563C354.914 313.563 351.392 313.83 347.957 314.859C346.264 315.365 344.827 316.394 343.233 316.862C339.781 317.874 338.197 320.934 335.781 323.046C334.643 324.036 334.066 325.658 333.211 326.976C332.667 327.776 332.46 329.044 330.942 328.293C329.766 327.71 329.309 326.97 329.853 325.539C332.384 318.909 336.472 313.754 343.216 310.842C348.289 308.664 353.558 308.632 358.915 308.49C362.36 308.392 365.8 308.153 369.257 307.995C369.801 307.995 370.699 307.489 370.46 308.751L369.79 309.002V309.236C370.118 309.299 370.453 309.325 370.786 309.312C371.167 309.263 371.538 308.991 371.902 309.002C374.869 309.111 377.373 307.674 379.855 306.422C382.466 305.015 384.998 303.465 387.438 301.779C388.16 301.208 388.827 300.57 389.43 299.873L389.386 299.906L391.155 298.502L389.081 298.377C390.056 297.184 390.867 296.058 391.83 295.072C392.467 294.419 392.919 294.708 393.365 295.862L395.63 295.704L394.644 294.381C394.008 294.327 393.218 294.452 393.088 294.212C392.894 293.689 392.865 293.119 393.006 292.579C393.15 291.811 393.379 291.061 393.686 290.342C393.97 289.857 394.306 289.404 394.688 288.992C394.405 287.811 394.9 286.597 396.996 283.903L397.959 284.376C397.769 282.553 397.959 282.259 398.852 282.33V284.18L398.819 284.137C399.135 284.779 399.445 285.421 399.794 286.14L400.496 285.944L400.784 286.222Z" fill="#1D1D1D"/>
<path d="M308.049 14.8684L309.031 15.5533L309.105 15.977C309.703 16.4251 310.29 16.8751 310.861 17.3279C311.343 17.7134 311.794 18.143 312.292 18.4978C312.791 18.8528 313.358 19.3504 313.943 19.7234C314.528 20.0964 315.144 20.2706 315.511 20.7921C315.954 21.3944 316.734 21.4627 317.216 21.9474C317.708 22.3734 318.22 22.7744 318.752 23.1488L318.889 22.9535C320.574 23.93 322.25 24.9522 324.297 25.4398C324.306 25.4881 324.415 25.6403 324.532 25.8353L324.795 25.5353C325.87 25.9 326.978 26.1705 328.038 26.5434C329.341 27.0119 330.74 27.1762 331.982 27.8323C332.642 28.1596 333.365 28.3388 334.101 28.3571C334.536 28.3751 334.503 28.6625 334.697 28.8552L335.114 28.4895L337.743 29.3342L337.423 29.8432C337.737 30.1584 337.822 30.735 338.752 30.716L337.744 31.2734L338.665 31.864L339.102 31.4838L339.909 31.7736C339.93 31.8916 339.956 32.0418 339.906 32.0725C339.58 32.3231 339.238 32.5486 338.928 32.7962C338.925 33.5095 339.574 33.3298 339.936 33.5704L339.741 33.8421L340.113 34.3296L339.095 35.3364C337.774 35.6055 336.469 35.9534 335.188 36.3783C334.515 36.6342 333.719 36.6352 333.187 37.0376C332.518 37.5081 331.734 37.2915 331.143 37.6711C330.552 38.0508 329.734 38.017 329.126 38.3332C328.518 38.6493 327.708 38.6639 327.1 38.98C325.663 39.7341 323.994 39.9539 322.656 40.9337C321.977 40.8701 321.426 41.5465 320.705 41.2748C320.083 41.7557 319.379 42.1185 318.626 42.3453C317.591 42.7473 316.709 43.4871 315.548 43.7012C315.156 43.8726 314.794 44.1037 314.474 44.3863L318.665 44.8419L319.422 45.5106L320.442 45.0228C321.851 45.3018 323.453 45.0493 324.8 45.9578C325.151 45.3437 325.85 45.6416 326.306 45.4071C328.005 45.928 329.677 45.7242 331.54 45.8572L331.943 46.1683C332.618 46.2989 333.231 45.8546 333.94 46.1506C334.527 46.34 335.16 46.3378 335.746 46.1445C336.394 45.973 337.077 45.9896 337.716 46.1925C338.412 46.4134 338.953 46.0923 339.637 46.1496L340.235 46.5978C341.659 46.2107 343.178 46.2381 344.716 46.0908L345.289 46.6205L346.791 46.3581L346.434 46.973C346.75 46.8946 347.083 46.9106 347.391 47.0189C347.698 47.1271 347.968 47.3229 348.165 47.5823C348.108 47.7304 348.05 47.9009 347.998 48.0481L350.567 49.9089C350.527 50.3137 350.493 50.6236 350.454 51.0338L349.992 51.3631L350.052 51.7064L350.665 51.7982C350.88 52.6502 350.465 53.3139 349.978 53.9407C349.318 54.1776 349.318 54.1775 349.005 55.1053L349.566 54.6481L349.774 55.1145L348.871 55.416L349.172 55.684L347.902 58.282L347.253 58.3954L347.673 58.742L347.17 59.0234L347.277 59.64L346.893 60.188C346.529 59.9752 346.006 60.017 345.833 59.5002C345.48 60.2305 346.13 60.4097 346.615 60.8113L345.87 61.0078C345.61 61.6721 345.218 62.2712 345.34 63.1006C345.461 63.7923 344.813 64.2538 344.176 64.6579L344.566 65.0263L343.804 65.3142L343.952 65.7801C343.634 66.2905 343.383 66.8397 343.204 67.414C343.03 68.312 342.156 68.752 341.992 69.6759C341.804 70.5058 341.46 71.2918 340.976 71.9918C340.378 73.0685 339.851 74.1831 339.399 75.3288L340.203 75.1882L340.386 74.5264L341.088 74.8126C341.45 74.5407 341.794 74.2443 342.115 73.9258C342.37 73.6436 342.886 73.5259 342.791 72.9843C343.353 73.0407 343.598 72.5726 343.869 72.199L344.128 72.3804C345.147 71.065 346.403 69.9517 347.831 69.0975L348.734 67.7515L349.217 67.6672L350.829 66.0204L351.411 66.7254L352.474 65.849C352.311 65.4852 352.172 65.1668 352.036 64.8592L354.403 62.5943C354.367 62.9945 354.204 63.3731 353.94 63.6754C354.581 63.9281 354.601 63.2836 354.886 63.0513L355.551 63.3773C355.574 63.0969 355.591 62.8177 355.618 62.5588L355.876 62.7402L355.436 62.2148L356.366 61.4996L356.786 61.7522L357.061 61.3949C356.917 61.0112 356.767 60.6007 356.625 60.2277L359.689 57.62L359.829 57.7227L359.552 58.2904L361.545 57.5553C361.8 58.0634 362.049 58.5723 362.401 59.2899L363.011 59.6199C361.814 60.8255 360.717 62.1261 359.729 63.509C358.304 65.3163 356.584 66.8216 355.076 68.4998C353.49 70.269 351.678 71.8565 349.962 73.4826C348.989 74.4264 348.048 75.3976 347.055 76.3227C345.663 77.6214 344.285 78.9397 342.808 80.1317C342.153 80.6551 341.734 81.3859 340.952 81.81C340.281 82.1759 339.797 82.8849 339.233 83.4531C337.751 84.8544 336.35 86.3391 335.037 87.8999C334.208 88.9454 333.248 89.8702 332.215 91.0068L330.456 91.3142C330.382 90.8906 330.125 90.4658 330.511 89.9231L329.417 89.9872C328.542 88.8853 328.072 87.5157 328.087 86.1084L328.885 85.2949L329.717 84.7792C329.47 84.3471 329.287 84.0254 329.118 83.7234C329.411 83.1197 329.671 82.5217 330.013 81.9534C330.356 81.3852 330.15 80.7084 331.086 80.6608C330.829 80.4848 330.752 80.4263 330.601 80.3201C331.231 79.9393 330.873 78.9022 331.798 78.7294C331.786 78.4664 331.772 78.2312 331.757 77.952L332.143 77.7905C332.499 75.938 333.508 74.347 334.409 72.6701C334.39 72.5628 334.305 72.3952 334.34 72.2787C334.527 71.7985 334.625 71.1238 334.992 70.916C335.579 70.548 335.381 69.6045 336.229 69.5226C336.167 69.1687 336.148 68.8351 336.107 68.4775L336.61 68.1906L336.528 67.5362L337.552 66.1528L338.066 66.8807L338.572 65.7313L338.152 65.2523C338.367 65.1099 338.56 64.9364 338.725 64.7377C338.811 64.533 338.86 64.3148 338.872 64.0931L338.414 63.6205L339.136 63.0135L339.896 63.0907L339.793 62.5009C340.245 62.1456 340.567 61.9015 340.592 61.256C340.635 60.1433 341.151 59.0475 341.496 57.9539C341.545 57.7906 341.826 57.6918 341.981 57.5706L341.773 57.3915C342.037 56.8508 342.35 56.3355 342.709 55.8521C343.172 55.4128 343.672 55.0132 344.202 54.6574C344.28 54.3122 343.954 54.2806 343.194 54.5793L343.959 53.7106L344.752 53.9477L344.2 53.033L344.422 52.5964C344.26 52.492 344.039 52.2378 343.902 52.2783C343.314 52.4032 342.7 52.3298 342.158 52.0693C341.135 52.5409 340.098 52.1087 339.082 52.1758C337.973 52.2571 336.858 52.2319 335.754 52.1C334.711 51.9115 333.651 51.8354 332.592 51.8734C331.502 51.9589 330.442 51.7462 329.367 51.7574C328.26 51.7459 327.156 51.6395 326.067 51.4389C325.02 51.2628 323.962 51.3427 322.905 51.1462C321.82 50.9432 320.719 50.8325 319.615 50.815C318.508 50.8095 317.518 50.4851 316.46 50.4102C315.403 50.3354 314.356 50.2255 313.31 50.0601C312.265 49.8948 311.148 49.67 310.065 49.4834C308.983 49.2969 307.979 49.1518 306.849 48.9736L305.752 48.1984L305.963 47.8575C305.897 47.228 305.362 47.3271 305.038 47.2124C304.816 46.6047 304.6 46.0347 304.377 45.4215L304.568 45.123C303.753 44.4752 304.159 43.7356 304.488 43.0868C304.876 42.4312 305.307 41.8021 305.778 41.2036C307.154 40.7587 308.176 39.4029 309.855 39.5517C309.865 39.3287 309.869 39.1901 309.872 38.9573L312.607 38.0042L312.647 37.6656C313.417 37.299 314.175 36.9233 314.924 36.5934C315.219 36.4348 315.558 36.3756 315.889 36.4247C316.172 36.5526 316.486 36.5927 316.791 36.5393C317.096 36.486 317.378 36.3418 317.6 36.1258C317.851 35.9162 318.269 35.9094 318.566 35.6144L317.418 35.8149C317.473 35.623 317.488 35.4877 317.511 35.4894C318.25 35.3614 318.953 35.0804 319.577 34.6642C320.059 34.3414 320.647 34.2168 321.218 34.3165C321.808 34.5285 322.25 34.2135 323.011 34.3293C322.738 34.0675 322.664 33.9919 322.584 33.912C323.354 33.2248 323.687 32.9842 324.427 33.2031C325.01 33.3774 325.435 33.0877 325.923 32.8753L324.452 32.9666L326.906 31.9852C324.407 31.3168 322.421 30.1941 320.351 29.2627C318.659 28.5957 317.104 27.6215 315.766 26.3895C315.503 26.1535 315.094 26.0869 314.813 25.8707C314.328 25.4969 313.912 25.017 313.408 24.6631C312.904 24.309 312.357 24.1836 311.918 23.8183C310.765 22.9147 309.76 21.7807 308.534 20.9285C308.414 20.8444 308.433 20.5704 308.374 20.3597C308.147 20.2666 307.832 20.2333 307.658 20.0593C306.784 19.2209 305.957 18.3341 305.182 17.403C304.592 16.6497 303.947 15.9612 303.403 15.1279C302.962 14.3165 302.579 13.4751 302.256 12.6097C301.894 11.6921 301.871 10.6752 302.191 9.74212C303.382 10.4514 304.155 9.15561 305.207 9.03822L303.717 9.177L303.677 8.94649L305.505 8.62692C305.832 8.56976 306.212 8.59185 306.363 8.18967C306.62 8.58682 306.886 8.02088 307.102 8.18211C307.489 8.46812 307.517 7.71171 307.917 7.94573C308.172 8.05491 308.452 8.09198 308.726 8.05296C309.051 8.0154 309.373 7.95906 309.691 7.88427L310.051 8.52307L310.158 7.83587L310.787 7.67068C311.114 7.90083 311.51 8.17414 311.857 8.42284L312.467 8.27765L312.587 7.63238L312.997 8.20719L313.318 8.15095L313.496 7.49006C314.385 7.61639 315.221 7.87384 316.155 7.68836C316.628 7.68976 317.096 7.77239 317.541 7.93258L317.684 7.77477L320.238 8.00255L319.618 8.71884C320.054 8.71458 320.481 8.58446 320.845 8.34399L320.973 8.41021L321.23 8.58625L321.387 8.34338C321.413 8.30564 321.451 8.27125 321.483 8.23246L322.838 8.42676L323.063 9.71374L323.277 9.77019L323.58 9.07065L323.108 8.48467L324.948 8.61057L325.128 9.04322C325.776 8.4162 326.388 8.72365 327.015 9.05602C327.222 9.15825 327.445 9.22581 327.674 9.25579C328.172 9.32344 328.68 9.35086 329.287 9.41051L329.483 9.80179L330.585 9.5319C330.492 9.47622 330.593 9.58007 330.712 9.59793C331.663 9.75783 332.629 9.81547 333.553 10.0409C333.649 10.039 333.746 10.0313 333.842 10.0181C334.458 10.0651 334.853 10.7753 335.534 10.5954C336.215 10.4155 336.601 10.851 337.15 10.9262C337.699 11.0016 338.321 11.1416 338.9 11.2668C339.073 11.3299 339.25 11.3803 339.43 11.4175C339.656 11.4011 339.881 11.3619 340.1 11.3004L340.641 11.8025L341.633 11.6291C342.325 12.1437 343.02 12.6743 343.984 12.4341C344.027 12.418 344.074 12.4114 344.12 12.4146C344.166 12.418 344.212 12.4312 344.252 12.4534C345.254 13.2509 346.562 13.0222 347.681 13.5119C348.8 14.0016 349.995 14.1076 351.103 14.4998C352.586 15.0197 354.033 15.6455 355.494 16.23C355.635 16.2829 355.759 16.3717 355.854 16.4874C356.683 17.5306 357.497 18.582 358.232 19.5311C358.218 20.2739 358.209 20.8835 358.197 21.6702L357.306 22.4557C356.471 22.2923 355.658 22.1914 354.86 21.9605C354.059 21.7539 353.274 21.4886 352.511 21.1665C350.859 20.4385 349.088 20.1069 347.396 19.5019C346.401 19.1509 345.291 19.0908 344.403 18.4391C342.603 18.2842 340.948 17.6394 339.215 17.2074C338.477 16.9574 337.72 16.77 336.951 16.6472C336.222 16.5866 335.505 16.4079 334.788 16.2847C332.51 15.8982 330.274 15.4987 328.015 15.1255C326.843 14.9325 325.658 14.7637 324.476 14.6388C323.294 14.5138 322.056 14.4816 320.896 14.292C318.86 13.9626 316.824 14.2025 314.796 13.9492C313.699 13.8959 312.6 13.9785 311.523 14.195C310.467 14.4074 309.411 14.6304 308.049 14.8684Z" fill="#1D1D1D"/>
<g clip-path="url(#clip1_1_5)">
<path d="M19.0442 13.1948L18.1636 12.6317L18.1597 11.5567L17.5997 11.6444L16.9623 10.4486C17.0911 10.1563 17.2056 9.90651 17.3213 9.64459L16.6109 9.60377C16.6802 9.04068 16.7401 8.54285 16.8022 8.0011L17.2603 8.11312L17.6239 7.54443C18.431 7.73739 19.2945 7.48831 19.9189 8.15889C20.0791 7.98991 20.2896 7.87687 20.5191 7.83631C20.7484 7.79578 20.9849 7.82984 21.1935 7.93363C21.9903 8.2234 22.9291 8.04847 23.5936 8.45406C24.3596 8.94379 25.2206 8.88045 26.0103 9.12059C26.9549 9.40146 27.9269 9.70003 28.9256 9.88624C29.9242 10.0725 30.9567 10.2159 31.8243 10.8093C33.7541 10.8933 35.4512 11.8363 37.2579 12.3453C38.7144 12.6528 40.1313 13.1251 41.4809 13.7534C41.963 14.0099 42.6615 13.8169 42.689 14.7843C43.4167 14.3838 44.0282 14.2965 44.6513 14.7467C45.1218 15.0444 45.6396 15.2596 46.1825 15.3833C47.5593 15.8168 48.9101 16.329 50.2283 16.9172C51.4635 17.3904 52.6369 18.0309 53.8579 18.4756C55.5002 19.0799 56.7812 20.2089 58.2614 21.0263C58.5136 21.1875 58.6503 21.5397 58.8853 21.7482C59.1203 21.9566 59.6102 22.0696 59.7194 22.3332C59.8286 22.5969 60.178 22.6264 60.3325 22.8092C60.6016 23.0653 60.8486 23.3459 61.1568 23.6723C61.1374 23.9957 61.5298 24.3823 61.2307 24.8501C61.1574 24.9647 61.2385 25.3331 61.3514 25.3989C62.2229 25.8851 61.9727 26.7009 61.9442 27.5032C61.3605 28.7193 60.3029 29.1608 58.9298 28.9741C58.748 28.9546 58.5699 28.9102 58.4003 28.8422C57.7818 28.4987 57.1311 28.2169 56.4574 28.0006C55.7674 27.8073 55.1155 27.4975 54.5298 27.0847C53.9566 26.7181 53.3747 26.1328 52.7686 26.1006C52.1624 26.0684 51.7596 25.223 51.0471 25.5492C50.9212 24.8872 50.1401 25.26 49.8823 24.8044C49.2363 24.8952 48.8596 24.3829 48.3365 24.1906C47.8134 23.9982 47.3822 23.7936 46.9036 23.6427C45.3503 23.1221 43.8356 22.4927 42.3709 21.7589C41.4403 21.9005 40.9408 20.8832 40.0056 20.9313C39.2077 20.9767 38.5179 20.4388 37.7954 20.1641C36.9728 19.8643 36.1323 19.5014 35.3132 19.1456C34.494 18.7898 33.7439 18.5686 32.9617 18.2559C31.8142 17.7871 30.55 17.612 29.4362 17.0096C28.6404 17.2438 28.2366 16.3394 27.4554 16.3891C26.7681 16.3426 26.1011 16.1372 25.5066 15.7892C24.0435 15.1573 22.456 15.0533 20.9885 14.509L19.883 14.1058C20.0306 13.7738 20.1452 13.524 20.3172 13.1236L19.0442 13.1948Z" fill="#1D1D1D"/>
<path d="M30.8364 40.7706L31.14 40.6999L31.1484 41.8489L31.7435 41.383C32.084 41.6587 32.632 41.8929 32.7585 42.271C32.9588 42.8772 33.5448 42.567 33.8179 42.9484C34.091 43.3298 34.6531 43.4307 34.7759 43.7741C34.9692 44.3306 35.4797 44.4114 35.7941 44.7482C36.0936 45.1076 36.3734 45.4829 36.6325 45.8722L37.563 46.1247L37.482 47.2617L38.2131 46.6438C38.9374 48.0372 40.5536 48.5409 41.3306 49.8519C41.2731 50.0024 41.2302 50.1301 41.1055 50.4767L41.6646 50.0266L42.4235 50.8608C42.3003 51.0534 42.2156 51.2769 42.0629 51.5864L42.5063 51.5598L42.8528 52.1496C43.0632 52.0126 43.2421 51.8945 43.4135 51.778L43.9014 52.9752L43.602 53.5849L44.7757 53.6893C44.8297 54.6154 45.5192 55.4568 45.2523 56.5008L44.7761 56.6292C44.8621 57.0201 45.0132 57.0263 45.616 56.6494C45.7013 56.6941 45.7826 56.7461 45.859 56.8048C45.8911 56.8253 45.8923 56.8841 45.9496 57.037L45.307 57.4661C45.253 57.7222 45.1834 58.0332 45.1154 58.4226L44.5363 57.6711C44.422 58.0115 44.3334 58.2714 44.1745 58.732L43.4451 57.6194L43.8458 57.488L43.3745 56.6892L42.8379 57.5284L41.7986 57.426L40.4451 55.501C39.7877 55.174 39.2203 54.6913 38.792 54.095L38.3179 54.1796L37.7417 53.2619L38.1456 53.1456C38.1124 53.0662 38.1006 52.923 38.0505 52.9103C37.4951 52.7685 36.8049 52.8375 36.5883 52.0142C36.5477 51.8655 36.08 51.7988 35.846 51.7203C35.2812 51.5465 34.7662 51.2404 34.3435 50.8275C33.921 50.4146 33.6031 49.9068 33.4163 49.3462C33.1664 49.3011 32.9243 49.2203 32.6975 49.1063C32.4498 48.9479 32.2021 48.4664 32.0729 48.5067C31.4037 48.7249 31.5658 48.0468 31.2891 47.8633C31.0038 47.6959 30.7594 47.467 30.574 47.1931C30.1794 46.6738 29.7109 46.2152 29.1831 45.8319C27.504 44.4325 25.9511 42.8883 24.5422 41.2171C23.4052 39.957 22.3362 38.6371 21.3395 37.2632C20.6316 36.3585 20.0724 35.3467 19.6832 34.2659C19.4155 33.3001 18.9906 32.3178 19.0176 31.2044L19.5145 30.9729L19.4574 30.5874L20.9374 30.2934C21.1317 30.4798 21.2769 30.7113 21.36 30.9674C21.4432 31.2234 21.4618 31.496 21.414 31.761L22.0377 31.0485L22.3953 31.2772L22.2717 31.8443L22.8758 31.8494L23.0639 32.3638L24.0269 32.1913C24.0492 32.6863 24.1101 33.1789 24.2091 33.6645C24.3259 34.0881 25.0621 34.21 24.78 34.9342L24.2501 35.1768L25.0584 35.7517L24.9389 35.0292C25.2093 35.1647 25.4536 35.3472 25.6604 35.5681C25.9489 36.0381 26.2906 36.4734 26.6787 36.8653C27.0324 37.2407 27.4168 37.5859 27.8279 37.8973C28.1868 38.1848 28.466 38.5766 28.8248 38.8642C29.1837 39.1518 29.6742 39.375 30.0308 39.7064C30.3346 40.033 30.6046 40.3895 30.8364 40.7706Z" fill="#1D1D1D"/>
<path d="M18.7539 76.9398L18.0825 77.9899C17.7297 78.0906 17.357 78.1005 16.9993 78.0186C16.6417 77.9368 16.3105 77.7658 16.0366 77.5217L16.0604 76.7164C14.9095 76.6976 15.3043 75.393 14.5416 75.1509C14.0174 73.95 13.8578 72.6333 13.247 71.4868C13.1796 71.3004 13.1343 71.1066 13.1122 70.9096C12.8067 69.559 12.3792 68.239 11.8348 66.9657C11.4945 66.0684 11.2196 65.1477 11.0121 64.2107C10.7845 63.1926 10.4224 62.2094 9.93548 61.2868C9.8696 61.1012 9.82589 60.9084 9.80517 60.7125C9.67892 59.9335 9.49156 59.1656 9.24485 58.4159C9.05566 57.8382 8.90125 57.2498 8.78236 56.6536C8.53486 55.6291 8.35117 54.5903 8.23217 53.543C8.06867 52.4952 7.87517 51.4539 7.77347 50.4004C7.78469 49.9379 7.8488 49.4782 7.96465 49.0303L9.77294 48.7587C10.255 48.7827 10.0117 49.5573 10.3293 49.9801L10.8405 49.9386L12.2543 51.3144C12.9088 53.3222 13.7548 55.556 14.4028 57.8569C14.7148 58.9824 15.141 60.0731 15.6745 61.1121C15.9917 61.9154 16.2423 62.7434 16.424 63.5878C17.1636 65.7604 17.7215 67.9906 18.0916 70.2556C18.3756 72.3883 19.057 74.4652 18.7539 76.9398Z" fill="#1D1D1D"/>
</g>
</g>
<defs>
<clipPath id="clip0_1_5">
<rect width="360" height="640" fill="white"/>
</clipPath>
<clipPath id="clip1_1_5">
<rect width="52" height="71" fill="white" transform="translate(28.0782 85.5249) rotate(-147.405)"/>
</clipPath>
</defs>
</svg>
