<svg width="360" height="640" viewBox="0 0 360 640" fill="none" xmlns="http://www.w3.org/2000/svg">
<g clip-path="url(#clip0_1_180)">
<rect width="360" height="640" fill="white"/>
<path fill-rule="evenodd" clip-rule="evenodd" d="M246.966 13.718C252.358 1.46004 258.828 -10.0983 271.409 -18.9521C284.891 -28.4395 301.279 -35.3855 320.959 -38.3515C344.627 -41.9184 372.298 -48.4959 394.532 -37.5078C416.841 -26.4829 411.751 -4.11466 423.925 12.5333C436.267 29.4107 469.318 43.1675 465.975 60.1911C462.638 77.1859 428.276 77.846 409.214 87.452C391.839 96.2077 381.721 111.515 359.363 113.917C335.495 116.48 308.567 110.976 286.122 100.673C263.847 90.4491 245.215 75.0137 237.557 58.008C230.473 42.2742 240.663 28.048 246.966 13.718Z" fill="#5C3AE2"/>
<path fill-rule="evenodd" clip-rule="evenodd" d="M26.3899 -86.99C47.3792 -86.4203 61.3308 -65.1592 74.3956 -48.7913C84.6262 -35.9743 88.0304 -20.1352 92.3605 -4.34086C96.4502 10.5775 99.7235 25.0107 98.8611 40.4512C97.7123 61.0166 101.596 85.3258 86.5619 99.4727C71.4441 113.699 46.9043 112.068 26.3899 108.648C8.05813 105.591 -8.85757 95.8244 -20.7297 81.5836C-31.0192 69.2406 -26.1605 50.6051 -33.7797 36.4712C-44.2648 17.0206 -75.4022 6.82336 -72.8521 -15.1056C-70.4414 -35.8371 -40.5047 -39.1733 -23.556 -51.45C-6.59303 -63.7367 5.42177 -87.5591 26.3899 -86.99Z" fill="#FFC800"/>
<path fill-rule="evenodd" clip-rule="evenodd" d="M-1.70882 461.857C19.6102 468.533 27.7106 494.379 36.3256 514.952C43.0717 531.062 41.9519 548.289 41.7927 565.739C41.6423 582.221 40.7971 597.968 35.4258 613.548C28.2716 634.299 25.18 660.349 5.67883 670.49C-13.9313 680.687 -38.5763 671.893 -58.5805 662.433C-76.4564 653.978 -90.9321 639.055 -98.9448 621.009C-105.889 605.368 -95.4982 587.673 -99.1886 570.971C-104.267 547.986 -133.175 528.494 -124.19 506.752C-115.696 486.197 -84.0826 491.465 -63.165 483.798C-42.23 476.124 -23.0064 455.187 -1.70882 461.857Z" fill="#FFC800"/>
<path fill-rule="evenodd" clip-rule="evenodd" d="M401.405 482.956C380.979 492.002 357.841 477.919 337.795 468.14C322.098 460.483 311.576 446.797 300.185 433.577C289.425 421.091 279.673 408.698 273.432 393.445C265.121 373.13 250.26 351.512 258.228 331.027C266.239 310.427 290.563 300.779 311.838 294.693C330.85 289.256 351.573 290.922 369.499 299.2C385.036 306.374 388.9 326.528 402.691 336.646C421.669 350.571 456.254 346.151 463.843 368.419C471.018 389.471 443.784 406.365 433.12 425.926C422.448 445.503 421.811 473.919 401.405 482.956Z" fill="#FFC800"/>
<g clip-path="url(#clip1_1_180)">
<path d="M34.776 26.4995L33.8954 25.9365L33.8915 24.8615L33.3315 24.9492L32.6941 23.7534C32.8229 23.4611 32.9374 23.2113 33.0531 22.9494L32.3427 22.9085C32.412 22.3455 32.4719 21.8476 32.534 21.3059L32.9921 21.4179L33.3557 20.8492C34.1628 21.0422 35.0263 20.7931 35.6507 21.4637C35.8109 21.2947 36.0214 21.1816 36.2509 21.1411C36.4802 21.1006 36.7167 21.1346 36.9253 21.2384C37.7221 21.5282 38.6609 21.3532 39.3254 21.7588C40.0914 22.2486 40.9524 22.1852 41.7421 22.4254C42.6867 22.7062 43.6587 23.0048 44.6574 23.191C45.656 23.3773 46.6885 23.5207 47.5561 24.1141C49.4859 24.198 51.183 25.1411 52.9897 25.6501C54.4462 25.9575 55.8631 26.4299 57.2127 27.0582C57.6948 27.3147 58.3933 27.1217 58.4208 28.089C59.1485 27.6886 59.76 27.6013 60.3831 28.0515C60.8536 28.3492 61.3714 28.5644 61.9143 28.6881C63.2911 29.1216 64.6419 29.6338 65.9601 30.222C67.1953 30.6952 68.3687 31.3356 69.5897 31.7804C71.232 32.3847 72.513 33.5137 73.9932 34.3311C74.2454 34.4923 74.3821 34.8445 74.6171 35.0529C74.8521 35.2614 75.342 35.3743 75.4512 35.638C75.5604 35.9017 75.9098 35.9311 76.0643 36.1139C76.3334 36.3701 76.5804 36.6507 76.8886 36.977C76.8692 37.3005 77.2616 37.6871 76.9625 38.1548C76.8892 38.2695 76.9702 38.6379 77.0832 38.7037C77.9547 39.1899 77.7045 40.0056 77.676 40.808C77.0923 42.0241 76.0347 42.4656 74.6616 42.2789C74.4798 42.2594 74.3017 42.215 74.1321 42.147C73.5136 41.8035 72.8629 41.5217 72.1892 41.3054C71.4992 41.1121 70.8473 40.8023 70.2616 40.3895C69.6884 40.0229 69.1065 39.4376 68.5004 39.4054C67.8942 39.3732 67.4914 38.5277 66.7789 38.854C66.653 38.192 65.8719 38.5648 65.6141 38.1092C64.9681 38.2 64.5914 37.6877 64.0683 37.4954C63.5452 37.303 63.114 37.0984 62.6354 36.9475C61.0821 36.4269 59.5674 35.7975 58.1027 35.0637C57.1721 35.2053 56.6726 34.188 55.7374 34.236C54.9395 34.2815 54.2497 33.7436 53.5272 33.4689C52.7046 33.1691 51.8641 32.8062 51.045 32.4504C50.2258 32.0946 49.4756 31.8733 48.6935 31.5607C47.546 31.0919 46.2818 30.9168 45.168 30.3144C44.3722 30.5486 43.9684 29.6442 43.1872 29.6939C42.4999 29.6474 41.8329 29.442 41.2384 29.0939C39.7753 28.4621 38.1878 28.3581 36.7202 27.8138L35.6148 27.4106C35.7624 27.0786 35.877 26.8288 36.049 26.4284L34.776 26.4995Z" fill="#222222"/>
<path d="M46.5682 54.0753L46.8718 54.0046L46.8802 55.1536L47.4753 54.6877C47.8158 54.9635 48.3638 55.1977 48.4903 55.5758C48.6906 56.182 49.2766 55.8718 49.5497 56.2532C49.8228 56.6345 50.3849 56.7355 50.5077 57.0789C50.701 57.6354 51.2115 57.7162 51.5259 58.0529C51.8254 58.4123 52.1052 58.7877 52.3643 59.177L53.2948 59.4295L53.2138 60.5665L53.9449 59.9486C54.6692 61.342 56.2854 61.8457 57.0624 63.1566C57.0049 63.3071 56.962 63.4349 56.8373 63.7815L57.3964 63.3314L58.1553 64.1655C58.0321 64.3581 57.9473 64.5817 57.7947 64.8912L58.2381 64.8646L58.5846 65.4543C58.795 65.3173 58.9739 65.1992 59.1453 65.0827L59.6332 66.2799L59.3338 66.8896L60.5075 66.9941C60.5615 67.9201 61.251 68.7616 60.9841 69.8055L60.5079 69.9339C60.5939 70.3248 60.745 70.3311 61.3478 69.9541C61.4331 69.9989 61.5144 70.0508 61.5908 70.1095C61.6229 70.1301 61.6241 70.1889 61.6814 70.3417L61.0388 70.7708C60.9848 71.027 60.9152 71.338 60.8472 71.7273L60.2681 70.9758C60.1538 71.3163 60.0651 71.5762 59.9063 72.0367L59.1769 70.9242L59.5776 70.7927L59.1063 69.9939L58.5697 70.8331L57.5304 70.7307L56.1769 68.8057C55.5195 68.4787 54.9521 67.996 54.5238 67.3997L54.0497 67.4844L53.4735 66.5667L53.8774 66.4503C53.8442 66.3709 53.8324 66.2277 53.7823 66.2151C53.2269 66.0732 52.5367 66.1423 52.3201 65.3189C52.2795 65.1702 51.8118 65.1036 51.5777 65.025C51.013 64.8512 50.498 64.5452 50.0753 64.1323C49.6528 63.7193 49.3349 63.2115 49.1481 62.6509C48.8982 62.6058 48.6561 62.525 48.4293 62.4111C48.1816 62.2527 47.9339 61.7712 47.8047 61.8115C47.1355 62.0296 47.2976 61.3516 47.0209 61.1681C46.7356 61.0007 46.4912 60.7718 46.3058 60.4978C45.9112 59.9785 45.4426 59.5199 44.9149 59.1367C43.2358 57.7372 41.6829 56.193 40.274 54.5219C39.137 53.2617 38.068 51.9419 37.0713 50.568C36.3634 49.6632 35.8042 48.6514 35.415 47.5707C35.1473 46.6048 34.7224 45.6225 34.7494 44.5091L35.2463 44.2776L35.1892 43.8921L36.6692 43.5981C36.8635 43.7845 37.0087 44.016 37.0918 44.2721C37.175 44.5282 37.1935 44.8008 37.1458 45.0658L37.7694 44.3532L38.1271 44.5819L38.0035 45.1491L38.6076 45.1541L38.7956 45.6685L39.7587 45.4961C39.781 45.9911 39.8419 46.4836 39.9409 46.9692C40.0577 47.3929 40.7939 47.5147 40.5118 48.2389L39.9819 48.4815L40.7902 49.0565L40.6707 48.334C40.9411 48.4695 41.1854 48.6519 41.3922 48.8728C41.6807 49.3429 42.0224 49.7781 42.4105 50.17C42.7642 50.5455 43.1486 50.8906 43.5597 51.202C43.9186 51.4895 44.1978 51.8814 44.5566 52.1689C44.9155 52.4566 45.406 52.6797 45.7626 53.0111C46.0664 53.3377 46.3364 53.6942 46.5682 54.0753Z" fill="#222222"/>
<path d="M34.4857 90.2445L33.8143 91.2946C33.4615 91.3953 33.0888 91.4052 32.7311 91.3234C32.3735 91.2415 32.0423 91.0705 31.7684 90.8264L31.7922 90.0211C30.6413 90.0023 31.0361 88.6978 30.2735 88.4556C29.7492 87.2547 29.5896 85.938 28.9788 84.7916C28.9114 84.6051 28.8661 84.4114 28.844 84.2143C28.5385 82.8638 28.111 81.5437 27.5666 80.2705C27.2263 79.3731 26.9514 78.4524 26.7439 77.5154C26.5163 76.4974 26.1542 75.5141 25.6673 74.5916C25.6014 74.406 25.5577 74.2131 25.537 74.0172C25.4107 73.2382 25.2234 72.4704 24.9767 71.7207C24.7875 71.143 24.6331 70.5545 24.5142 69.9584C24.2667 68.9339 24.083 67.895 23.964 66.8478C23.8005 65.8 23.607 64.7586 23.5053 63.7051C23.5165 63.2426 23.5806 62.7829 23.6965 62.335L25.5048 62.0635C25.9869 62.0874 25.7435 62.8621 26.0611 63.2848L26.5723 63.2434L27.9861 64.6192C28.6406 66.627 29.4866 68.8607 30.1346 71.1616C30.4466 72.2872 30.8728 73.3778 31.4063 74.4169C31.7235 75.2202 31.9742 76.0482 32.1558 76.8925C32.8954 79.0651 33.4533 81.2954 33.8235 83.5603C34.1074 85.6931 34.7888 87.77 34.4857 90.2445Z" fill="#222222"/>
</g>
<path fill-rule="evenodd" clip-rule="evenodd" d="M367.682 579.77C380.142 581.699 392.164 584.477 402.877 591.876C414.357 599.805 424.048 610.115 430.688 623.286C438.673 639.125 450.247 657.291 444.418 674.274C438.569 691.315 416.769 691.077 403.694 701.936C390.437 712.944 384.168 737.813 367.682 737.999C351.224 738.185 343.831 714.525 331.14 702.756C319.572 692.029 303.344 687.28 296.701 672.174C289.609 656.05 289.414 636.625 294.564 619.596C299.675 602.697 310.35 587.551 324.649 579.763C337.879 572.556 353.116 577.514 367.682 579.77Z" fill="#5C3AE2"/>
</g>
<defs>
<clipPath id="clip0_1_180">
<rect width="360" height="640" fill="white"/>
</clipPath>
<clipPath id="clip1_1_180">
<rect width="52" height="71" fill="white" transform="translate(43.81 98.8297) rotate(-147.405)"/>
</clipPath>
</defs>
</svg>
