<svg width="30" height="48" viewBox="0 0 30 48" fill="none" xmlns="http://www.w3.org/2000/svg">
<path fill-rule="evenodd" clip-rule="evenodd" d="M25.5848 24.582C27.956 21.9717 29.4011 18.5049 29.4011 14.7006C29.4011 6.58167 22.8195 0 14.7006 0C6.58167 0 0 6.58167 0 14.7006C0 18.4227 1.38336 21.8218 3.66399 24.4117C7.33446 28.9856 12.5765 39.3244 12.5765 44.2487C12.5765 47.6036 13.6262 47.6028 14.6539 47.602L14.7005 47.602V29.4011C14.7005 29.4011 14.7005 29.4011 14.7006 29.4011L14.7006 47.602L14.7472 47.602C15.7749 47.6028 16.8246 47.6036 16.8246 44.2487C16.8246 39.3314 21.9252 29.1546 25.5848 24.582Z" fill="#44BBA4"/>
<g clip-path="url(#clip0_833:254)">
<path d="M14.7006 13.8012C12.219 13.8012 8.70056 17.6375 8.70056 20.0591C8.70056 21.1497 9.53837 21.8012 10.9424 21.8012C12.4687 21.8012 13.4765 21.0175 14.7006 21.0175C15.9352 21.0175 16.9459 21.8012 18.4587 21.8012C19.8627 21.8012 20.7006 21.1497 20.7006 20.0591C20.7006 17.6375 17.1821 13.8012 14.7006 13.8012ZM10.0981 13.4072C9.77306 12.3244 8.77181 11.6231 7.86181 11.8406C6.95181 12.0581 6.47774 13.1122 6.80274 14.195C7.12774 15.2778 8.12899 15.9791 9.039 15.7616C9.949 15.5441 10.4231 14.49 10.0981 13.4072ZM12.7456 12.7578C13.7124 12.5034 14.1962 11.1972 13.8262 9.84031C13.4562 8.48343 12.3724 7.59 11.4056 7.84437C10.4387 8.09875 9.95493 9.405 10.3249 10.7619C10.6949 12.1187 11.779 13.0125 12.7456 12.7578ZM21.539 11.8409C20.629 11.6234 19.6281 12.3247 19.3027 13.4075C18.9777 14.4903 19.4518 15.5444 20.3618 15.7619C21.2718 15.9794 22.2727 15.2781 22.5981 14.1953C22.9231 13.1125 22.449 12.0584 21.539 11.8409ZM16.6556 12.7578C17.6224 13.0122 18.7062 12.1187 19.0762 10.7619C19.4462 9.405 18.9624 8.09906 17.9956 7.84437C17.0287 7.58968 15.9449 8.48343 15.5749 9.84031C15.2049 11.1972 15.6887 12.5034 16.6556 12.7578Z" fill="white"/>
</g>
<defs>
<clipPath id="clip0_833:254">
<rect width="16" height="16" fill="white" transform="translate(6.70056 6.80127)"/>
</clipPath>
</defs>
</svg>
