<svg width="21" height="31" viewBox="0 0 21 31" fill="none" xmlns="http://www.w3.org/2000/svg">
<path d="M8.66666 20.2455C6.15457 19.9049 3.86554 18.6231 2.26246 16.6593C0.659387 14.6954 -0.138099 12.196 0.0312735 9.66662C0.200646 7.13721 1.32424 4.7665 3.17483 3.0339C5.02543 1.3013 7.46492 0.336102 10 0.333501C12.5382 0.331054 14.9823 1.29387 16.8369 3.02674C18.6915 4.75962 19.8177 7.13288 19.9873 9.66538C20.1569 12.1979 19.3571 14.7001 17.7501 16.6648C16.1431 18.6294 13.8492 19.9095 11.3333 20.2455V23.0002H16.6667C17.403 23.0002 18 23.5971 18 24.3335C18 25.0699 17.403 25.6668 16.6667 25.6668H11.3333V29.6668C11.3333 30.4032 10.7364 31.0002 10 31.0002C9.26362 31.0002 8.66666 30.4032 8.66666 29.6668V25.6668H3.33333C2.59695 25.6668 2 25.0699 2 24.3335C2 23.5971 2.59695 23.0002 3.33333 23.0002H8.66666V20.2455ZM10 17.6668C11.9449 17.6668 13.8102 16.8942 15.1854 15.519C16.5607 14.1437 17.3333 12.2784 17.3333 10.3335C17.3333 8.38858 16.5607 6.52332 15.1854 5.14805C13.8102 3.77278 11.9449 3.00017 10 3.00017C8.05508 3.00017 6.18981 3.77278 4.81455 5.14805C3.43928 6.52332 2.66666 8.38858 2.66666 10.3335C2.66666 12.2784 3.43928 14.1437 4.81455 15.519C6.18981 16.8942 8.05508 17.6668 10 17.6668Z" fill="#9C9C9C"/>
</svg>
