<svg width="20" height="20" viewBox="0 0 20 20" fill="none" xmlns="http://www.w3.org/2000/svg">
<path d="M10.8484 0.751612C10.6234 0.526647 10.3182 0.400269 10 0.400269C9.68182 0.400269 9.37665 0.526647 9.15162 0.751612L0.751619 9.15161C0.533029 9.37794 0.412076 9.68106 0.41481 9.99569C0.417544 10.3103 0.543747 10.6113 0.766236 10.8338C0.988726 11.0563 1.2897 11.1825 1.60434 11.1852C1.91897 11.188 2.2221 11.067 2.44842 10.8484L2.80002 10.4968V18.4C2.80002 18.7183 2.92645 19.0235 3.15149 19.2485C3.37653 19.4736 3.68176 19.6 4.00002 19.6H6.40002C6.71828 19.6 7.0235 19.4736 7.24855 19.2485C7.47359 19.0235 7.60002 18.7183 7.60002 18.4V16C7.60002 15.6818 7.72645 15.3765 7.95149 15.1515C8.17653 14.9264 8.48176 14.8 8.80002 14.8H11.2C11.5183 14.8 11.8235 14.9264 12.0485 15.1515C12.2736 15.3765 12.4 15.6818 12.4 16V18.4C12.4 18.7183 12.5264 19.0235 12.7515 19.2485C12.9765 19.4736 13.2818 19.6 13.6 19.6H16C16.3183 19.6 16.6235 19.4736 16.8485 19.2485C17.0736 19.0235 17.2 18.7183 17.2 18.4V10.4968L17.5516 10.8484C17.7779 11.067 18.0811 11.188 18.3957 11.1852C18.7103 11.1825 19.0113 11.0563 19.2338 10.8338C19.4563 10.6113 19.5825 10.3103 19.5852 9.99569C19.588 9.68106 19.467 9.37794 19.2484 9.15161L10.8484 0.751612Z" fill="#777777"/>
</svg>
