<svg width="24" height="24" viewBox="0 0 24 24" fill="none" xmlns="http://www.w3.org/2000/svg">
<path fill-rule="evenodd" clip-rule="evenodd" d="M12 1.74854C9.81196 1.74854 7.71354 2.61773 6.16637 4.1649C4.61919 5.71208 3.75 7.8105 3.75 9.99853C3.75 13.1971 5.8243 16.2642 8.04446 18.6077C9.13921 19.7633 10.2365 20.7084 11.0609 21.3649C11.4432 21.6694 11.7656 21.9107 12 22.0811C12.2344 21.9107 12.5568 21.6694 12.9391 21.3649C13.7635 20.7084 14.8608 19.7633 15.9555 18.6077C18.1757 16.2642 20.25 13.1971 20.25 9.99853C20.25 7.8105 19.3808 5.71208 17.8336 4.1649C16.2865 2.61773 14.188 1.74854 12 1.74854ZM12 22.9985C11.584 23.6226 11.5838 23.6224 11.5835 23.6223L11.581 23.6206L11.5748 23.6164L11.5528 23.6015C11.5339 23.5887 11.5068 23.5702 11.4719 23.546C11.4021 23.4977 11.3014 23.427 11.1742 23.3351C10.9197 23.1513 10.5587 22.8825 10.1266 22.5384C9.2635 21.8511 8.11079 20.8588 6.95554 19.6393C4.6757 17.2328 2.25 13.8 2.25 9.99853C2.25 7.41267 3.27723 4.93272 5.10571 3.10424C6.93419 1.27576 9.41414 0.248535 12 0.248535C14.5859 0.248535 17.0658 1.27576 18.8943 3.10424C20.7228 4.93272 21.75 7.41267 21.75 9.99853C21.75 13.8 19.3243 17.2328 17.0445 19.6393C15.8892 20.8588 14.7365 21.8511 13.8734 22.5384C13.4413 22.8825 13.0803 23.1513 12.8258 23.3351C12.6986 23.427 12.5979 23.4977 12.5281 23.546C12.4932 23.5702 12.4661 23.5887 12.4472 23.6015L12.4252 23.6164L12.419 23.6206L12.4171 23.6219C12.4169 23.622 12.416 23.6226 12 22.9985ZM12 22.9985L12.416 23.6226C12.1641 23.7905 11.8355 23.7902 11.5835 23.6223L12 22.9985Z" fill="#9C9C9C"/>
<path d="M12 12.9985C13.6569 12.9985 15 11.6554 15 9.99854C15 8.34168 13.6569 6.99854 12 6.99854C10.3431 6.99854 9 8.34168 9 9.99854C9 11.6554 10.3431 12.9985 12 12.9985Z" stroke="#9C9C9C" stroke-width="1.8" stroke-linecap="round" stroke-linejoin="round"/>
</svg>
