<svg width="20" height="20" viewBox="0 0 20 20" fill="none" xmlns="http://www.w3.org/2000/svg">
<path fill-rule="evenodd" clip-rule="evenodd" d="M7.59999 2.80009C6.32695 2.80009 5.10606 3.3058 4.20588 4.20598C3.30571 5.10615 2.79999 6.32705 2.79999 7.60009C2.79999 8.87313 3.30571 10.094 4.20588 10.9942C5.10606 11.8944 6.32695 12.4001 7.59999 12.4001C8.87303 12.4001 10.0939 11.8944 10.9941 10.9942C11.8943 10.094 12.4 8.87313 12.4 7.60009C12.4 6.32705 11.8943 5.10615 10.9941 4.20598C10.0939 3.3058 8.87303 2.80009 7.59999 2.80009ZM0.399994 7.60009C0.399849 6.46693 0.667165 5.34974 1.1802 4.33938C1.69323 3.32901 2.4375 2.45401 3.35247 1.78552C4.26744 1.11703 5.32727 0.673944 6.44577 0.492289C7.56427 0.310634 8.70985 0.395543 9.78935 0.74011C10.8688 1.08468 11.8518 1.67917 12.6582 2.47524C13.4646 3.27132 14.0717 4.24649 14.4302 5.32145C14.7887 6.39641 14.8884 7.5408 14.7212 8.66155C14.554 9.7823 14.1246 10.8478 13.468 11.7713L19.2484 17.5517C19.467 17.778 19.5879 18.0811 19.5852 18.3958C19.5825 18.7104 19.4563 19.0114 19.2338 19.2339C19.0113 19.4564 18.7103 19.5826 18.3957 19.5853C18.081 19.588 17.7779 19.4671 17.5516 19.2485L11.7724 13.4693C10.6952 14.2352 9.42801 14.6899 8.10961 14.7834C6.7912 14.877 5.47248 14.6058 4.29795 13.9997C3.12343 13.3935 2.13842 12.4757 1.45086 11.3469C0.763306 10.2181 0.399737 8.92181 0.399994 7.60009Z" fill="#777777"/>
</svg>
