<svg width="112" height="99" viewBox="0 0 112 99" fill="none" xmlns="http://www.w3.org/2000/svg">
<path opacity="0.7" d="M56.0045 98.9931C86.507 98.9931 111.234 85.9472 111.234 69.8542C111.234 53.7613 86.507 40.7153 56.0045 40.7153C25.5019 40.7153 0.774719 53.7613 0.774719 69.8542C0.774719 85.9472 25.5019 98.9931 56.0045 98.9931Z" fill="#EBEBEB"/>
<path opacity="0.07" d="M31.0109 82.8311C40.0113 82.8311 47.3075 78.6189 47.3075 73.4229C47.3075 68.2269 40.0113 64.0148 31.0109 64.0148C22.0105 64.0148 14.7142 68.2269 14.7142 73.4229C14.7142 78.6189 22.0105 82.8311 31.0109 82.8311Z" fill="#222222"/>
<path opacity="0.07" d="M69.9948 76.3237C82.7687 76.3237 93.124 70.3455 93.124 62.971C93.124 55.5964 82.7687 49.6182 69.9948 49.6182C57.2209 49.6182 46.8655 55.5964 46.8655 62.971C46.8655 70.3455 57.2209 76.3237 69.9948 76.3237Z" fill="#222222"/>
<path d="M98.4809 58.4319L96.5276 57.3169C96.5276 57.3169 95.5903 52.1581 96.2914 47.7207C97.2769 41.485 101.521 39.3387 103.066 39.9534C104.61 40.5681 104.968 42.4223 102.184 46.024C100.541 48.15 98.4275 52.6382 98.4809 58.4319Z" fill="#44BBA4"/>
<g opacity="0.1">
<path opacity="0.1" d="M98.4809 58.4319L96.5276 57.3169C96.5276 57.3169 95.5903 52.1581 96.2914 47.7207C97.2769 41.485 101.521 39.3387 103.066 39.9534C104.61 40.5681 104.968 42.4223 102.184 46.024C100.541 48.15 98.4275 52.6382 98.4809 58.4319Z" fill="#222222"/>
</g>
<path d="M97.7722 55.9553H97.7926C97.8107 55.9528 97.8281 55.9468 97.8438 55.9375C97.8595 55.9282 97.8732 55.9158 97.8841 55.9011C97.895 55.8865 97.9028 55.8698 97.9072 55.852C97.9115 55.8343 97.9123 55.8159 97.9094 55.7978C97.1042 49.9558 99.4512 43.5627 102.09 40.9846C102.116 40.958 102.13 40.9225 102.13 40.8855C102.13 40.8485 102.116 40.813 102.09 40.7864C102.077 40.7734 102.062 40.763 102.045 40.7559C102.028 40.7489 102.01 40.7452 101.991 40.7452C101.973 40.7452 101.955 40.7489 101.938 40.7559C101.921 40.763 101.905 40.7734 101.892 40.7864C99.2073 43.4103 96.8121 49.9101 97.6325 55.8359C97.6374 55.8694 97.6543 55.8999 97.68 55.9218C97.7057 55.9438 97.7384 55.9557 97.7722 55.9553Z" fill="white"/>
<path d="M103.896 61.5611C104.206 61.7389 104.841 61.3503 105.085 61.1877C105.502 60.9036 105.839 60.517 106.063 60.065C106.317 59.5518 106.406 58.9723 106.317 58.4064C106.267 58.109 106.196 57.8154 106.106 57.5276C106.025 57.2406 105.943 56.9561 105.852 56.6716C105.753 56.395 105.711 56.1013 105.727 55.808C105.804 55.2238 106.322 54.8149 106.794 54.4618C107.315 54.0706 107.859 53.555 107.856 52.8489C107.817 52.303 107.599 51.7851 107.236 51.3757C106.898 50.949 106.5 50.5731 106.195 50.1235C105.956 49.8092 105.832 49.4232 105.842 49.0287C105.873 48.7873 105.954 48.5549 106.078 48.3455C106.364 47.9088 106.614 47.4502 106.827 46.9739C107 46.4811 106.975 45.869 106.591 45.5159C106.419 45.3877 106.224 45.2949 106.016 45.243C105.808 45.1911 105.591 45.1811 105.38 45.2137C104.979 45.2636 104.594 45.3997 104.252 45.6124C103.134 46.2322 102.497 47.5581 101.31 48.0356C100.839 48.1808 100.359 48.2978 99.8728 48.3861C99.3978 48.5131 98.9101 48.757 98.6892 49.1964C98.2548 50.0676 99.0625 51.1395 98.7552 52.0615C98.486 52.8794 97.6909 53.1918 97.2464 53.9284C97.0635 54.253 96.9904 54.6282 97.0382 54.9977C97.0764 55.6221 97.2288 56.2342 97.4877 56.8037C97.7776 57.3705 98.1096 57.9147 98.4809 58.4318C98.4987 58.4521 103.85 61.5281 103.896 61.5611Z" fill="#44BBA4"/>
<path d="M100.726 59.8722C100.745 59.8719 100.763 59.8679 100.78 59.8604C100.797 59.8528 100.812 59.842 100.824 59.8285C100.837 59.815 100.847 59.799 100.853 59.7817C100.859 59.7643 100.862 59.7459 100.861 59.7275C100.632 54.2029 103.236 48.1019 105.128 46.3289C105.154 46.3028 105.168 46.2677 105.168 46.2311C105.168 46.1946 105.154 46.1595 105.128 46.1334C105.115 46.12 105.1 46.1093 105.083 46.1021C105.066 46.0948 105.048 46.0911 105.029 46.0911C105.01 46.0911 104.992 46.0948 104.975 46.1021C104.958 46.1093 104.943 46.12 104.93 46.1334C103 47.9418 100.343 54.1445 100.576 59.7478C100.578 59.7658 100.583 59.7834 100.592 59.7994C100.6 59.8154 100.611 59.8297 100.625 59.8412C100.639 59.8528 100.655 59.8615 100.673 59.8668C100.69 59.8721 100.708 59.874 100.726 59.8722Z" fill="white"/>
<path d="M101.554 53.3444H101.597C102.906 52.9835 104.25 52.7664 105.606 52.6967C105.624 52.696 105.642 52.6917 105.659 52.6841C105.675 52.6765 105.69 52.6656 105.703 52.6522C105.715 52.6387 105.725 52.6229 105.732 52.6057C105.738 52.5885 105.741 52.5702 105.74 52.5519C105.74 52.5334 105.737 52.5151 105.729 52.4982C105.722 52.4813 105.711 52.4661 105.697 52.4537C105.683 52.4412 105.667 52.4318 105.65 52.426C105.632 52.4201 105.614 52.418 105.595 52.4198C104.213 52.4876 102.841 52.7065 101.506 53.0726C101.475 53.0832 101.449 53.1043 101.432 53.1322C101.415 53.1601 101.408 53.1931 101.413 53.2254C101.418 53.2577 101.434 53.2873 101.458 53.309C101.483 53.3308 101.514 53.3433 101.547 53.3444H101.554Z" fill="white"/>
<path d="M14.9835 56.5548L17.0637 55.3661C17.0637 55.3661 18.0619 49.8619 17.3177 45.1324C16.2662 38.4852 11.7297 36.1916 10.094 36.852C8.4582 37.5124 8.06196 39.4835 11.0338 43.3239C12.7864 45.5922 15.0393 50.3826 14.9835 56.5548Z" fill="#44BBA4"/>
<g opacity="0.1">
<path opacity="0.1" d="M14.9835 56.5548L17.0637 55.3661C17.0637 55.3661 18.0619 49.8619 17.3177 45.1324C16.2662 38.4852 11.7297 36.1916 10.094 36.852C8.4582 37.5124 8.06196 39.4835 11.0338 43.3239C12.7864 45.5922 15.0393 50.3826 14.9835 56.5548Z" fill="#222222"/>
</g>
<path d="M15.7378 53.9081H15.7175C15.6786 53.9024 15.6434 53.8816 15.6197 53.8502C15.5959 53.8189 15.5854 53.7794 15.5905 53.7404C16.4516 47.5149 13.9471 40.695 11.1354 37.9442C11.1084 37.9167 11.0932 37.8797 11.0931 37.8412C11.0931 37.8026 11.1081 37.7656 11.135 37.738C11.1619 37.7105 11.1986 37.6945 11.2371 37.6936C11.2756 37.6928 11.313 37.707 11.3411 37.7333C14.2062 40.5273 16.7564 47.4641 15.8852 53.7811C15.8802 53.8165 15.8626 53.8489 15.8354 53.8723C15.8083 53.8957 15.7736 53.9084 15.7378 53.9081Z" fill="white"/>
<path d="M9.2075 59.89C8.87984 60.0805 8.1915 59.6664 7.9375 59.4937C7.49274 59.1899 7.13331 58.7772 6.89356 58.2948C6.6246 57.7435 6.53575 57.1215 6.63956 56.5168C6.69148 56.1986 6.76618 55.8846 6.86308 55.577C6.94944 55.2748 7.0358 54.97 7.11708 54.6652C7.22357 54.371 7.26853 54.058 7.24916 53.7457C7.17042 53.1234 6.6167 52.6865 6.11378 52.3081C5.5626 51.9017 4.98602 51.353 4.98602 50.6063C5.02685 50.0237 5.25902 49.471 5.64642 49.034C6.00202 48.5743 6.43128 48.1729 6.76402 47.6929C7.01979 47.359 7.15337 46.9475 7.14248 46.527C7.10874 46.2692 7.02227 46.021 6.88848 45.798C6.63448 45.3104 6.2738 44.8608 6.09092 44.3375C5.90804 43.8143 5.93344 43.159 6.34492 42.7831C6.6802 42.4732 7.18058 42.43 7.63524 42.4605C8.0618 42.5128 8.47181 42.6576 8.83666 42.8847C10.0279 43.5476 10.7086 44.9573 11.9736 45.4678C12.4729 45.6253 12.982 45.7501 13.4976 45.8412C14.0056 45.9758 14.5136 46.2375 14.7676 46.7074C15.2324 47.6345 14.3713 48.7775 14.6964 49.7554C14.986 50.6266 15.8318 50.9619 16.3068 51.7467C16.5011 52.0933 16.5794 52.4929 16.5303 52.8872C16.4876 53.5529 16.324 54.2053 16.0477 54.8125C15.7395 55.4172 15.3862 55.998 14.9911 56.5499C14.9631 56.5753 9.2583 59.862 9.2075 59.89Z" fill="#44BBA4"/>
<path d="M12.5882 58.0915C12.5487 58.0895 12.5115 58.0722 12.4845 58.0433C12.4575 58.0144 12.4428 57.9761 12.4435 57.9365C12.6975 52.0437 9.90346 45.5388 7.89432 43.649C7.86656 43.621 7.85098 43.5831 7.85098 43.5436C7.85098 43.5041 7.86656 43.4663 7.89432 43.4382C7.92269 43.411 7.96045 43.3959 7.99973 43.3959C8.03901 43.3959 8.07677 43.411 8.10514 43.4382C10.1625 45.3661 12.9972 51.9802 12.7483 57.9569C12.7467 57.9762 12.7412 57.9951 12.7323 58.0124C12.7234 58.0296 12.7112 58.045 12.6963 58.0575C12.6814 58.07 12.6642 58.0794 12.6457 58.0853C12.6271 58.0911 12.6076 58.0932 12.5882 58.0915Z" fill="white"/>
<path d="M11.7043 51.1292C11.6901 51.1318 11.6754 51.1318 11.6611 51.1292C10.2646 50.745 8.83035 50.5142 7.38379 50.4408C7.34448 50.4389 7.30754 50.4215 7.28092 50.3925C7.25431 50.3635 7.24016 50.3252 7.24155 50.2859C7.24184 50.2662 7.24615 50.2468 7.25421 50.2288C7.26227 50.2109 7.2739 50.1948 7.2884 50.1814C7.3029 50.1681 7.31997 50.1579 7.33855 50.1514C7.35714 50.1449 7.37685 50.1423 7.39649 50.1437C8.86812 50.219 10.3271 50.455 11.7475 50.8472C11.7825 50.8566 11.8128 50.8785 11.8327 50.9087C11.8525 50.939 11.8605 50.9755 11.8552 51.0113C11.8499 51.0471 11.8315 51.0797 11.8037 51.1028C11.7759 51.126 11.7405 51.1381 11.7043 51.1368V51.1292Z" fill="white"/>
<path d="M85.7199 65.1098C86.4489 65.4984 88.0059 65.3917 89.2581 64.5612C90.5103 63.7306 90.8151 61.8611 90.3605 60.4972C89.8067 58.8462 88.8365 58.0384 88.4732 57.0504C88.11 56.0623 88.1278 54.6145 87.6655 53.7484C87.4796 53.4174 87.2246 53.1303 86.9178 52.9068C86.611 52.6832 86.2596 52.5285 85.8875 52.453C85.6503 52.3985 85.4036 52.3993 85.1667 52.4553C84.9298 52.5112 84.7089 52.6208 84.521 52.7756L84.1552 53.0677L85.7199 65.1098Z" fill="#263238"/>
<path d="M83.2891 60.0044L84.7014 61.8739C84.7014 61.8739 84.3661 64.2157 84.8258 64.7568C85.504 65.5569 86.4971 65.5746 88.0592 64.838C89.8372 63.9973 90.0404 62.2422 89.7559 60.9417C89.3546 59.09 87.4166 57.9318 87.3531 56.103C87.2896 54.2742 86.1009 51.9298 83.8428 53.2582C82.2401 54.1675 80.8558 55.8236 80.8558 55.8236L83.2891 60.0044Z" fill="#37474F"/>
<path d="M84.7013 61.861C85.3304 61.4259 86.0555 61.1496 86.8146 61.0559C86.8736 61.0543 86.9311 61.0378 86.982 61.0079C87.0328 60.9779 87.0752 60.9356 87.1051 60.8848C87.1351 60.834 87.1516 60.7765 87.1533 60.7175C87.1549 60.6586 87.1415 60.6002 87.1143 60.5479C87.0842 60.4866 87.0364 60.4357 86.9771 60.4018C86.9178 60.3678 86.8497 60.3524 86.7816 60.3574C86.2736 60.3904 85.0366 60.5555 84.3178 61.3454C84.1654 61.828 84.7013 61.861 84.7013 61.861Z" fill="white"/>
<path d="M83.8403 60.7204C84.4454 60.2534 85.155 59.9405 85.9078 59.8086C85.9644 59.8026 86.0186 59.783 86.0658 59.7513C86.1129 59.7195 86.1516 59.6768 86.1784 59.6266C86.2052 59.5765 86.2194 59.5206 86.2196 59.4637C86.2198 59.4069 86.2061 59.3509 86.1796 59.3006C86.1461 59.2408 86.0956 59.1924 86.0346 59.1612C85.9736 59.13 85.9048 59.1175 85.8367 59.1253C85.3287 59.1863 84.1044 59.4149 83.4288 60.2404C83.3018 60.7154 83.8403 60.7204 83.8403 60.7204Z" fill="white"/>
<path opacity="0.3" d="M84.7013 61.861C85.3304 61.4259 86.0555 61.1496 86.8146 61.0559C86.8736 61.0543 86.9311 61.0378 86.982 61.0079C87.0328 60.9779 87.0752 60.9356 87.1051 60.8848C87.1351 60.834 87.1516 60.7765 87.1533 60.7175C87.1549 60.6586 87.1415 60.6002 87.1143 60.5479C87.0842 60.4866 87.0364 60.4357 86.9771 60.4018C86.9178 60.3678 86.8497 60.3524 86.7816 60.3574C86.2736 60.3904 85.0366 60.5555 84.3178 61.3454C84.1654 61.828 84.7013 61.861 84.7013 61.861Z" fill="white"/>
<path opacity="0.3" d="M83.8403 60.7204C84.4454 60.2534 85.155 59.9405 85.9078 59.8086C85.9644 59.8026 86.0186 59.783 86.0658 59.7513C86.1129 59.7195 86.1516 59.6768 86.1784 59.6266C86.2052 59.5765 86.2194 59.5206 86.2196 59.4637C86.2198 59.4069 86.2061 59.3509 86.1796 59.3006C86.1461 59.2408 86.0956 59.1924 86.0346 59.1612C85.9736 59.13 85.9048 59.1175 85.8367 59.1253C85.3287 59.1863 84.1044 59.4149 83.4288 60.2404C83.3018 60.7154 83.8403 60.7204 83.8403 60.7204Z" fill="white"/>
<path d="M63.0631 64.3224L58.8619 62.6562C58.9305 61.5742 58.1888 59.7631 57.4624 57.9724L62.4179 56.3773L63.6879 61.15L63.0631 64.3224Z" fill="#FFA8A7"/>
<path d="M51.0718 68.013C50.9613 68.3519 50.9822 68.7199 51.1302 69.0442C51.2749 69.3465 52.8498 70.2329 54.9732 70.0907C56.5477 69.9842 58.065 69.458 59.3674 68.5667C60.1777 68.0308 61.0209 67.9317 62.0725 67.8707C63.1241 67.8098 64.5058 67.2865 64.737 66.7938C64.9681 66.301 64.7014 65.4552 64.7014 65.4552L51.0718 68.013Z" fill="#263238"/>
<path d="M59.6468 61.3834L59.4766 61.3478C59.3855 61.3238 59.2904 61.3186 59.1972 61.3326C59.0971 61.3659 59.0088 61.4277 58.9432 61.5104C58.7358 61.7763 58.5538 62.0612 58.3997 62.3613C57.9552 63.0877 57.0204 63.6897 55.9994 64.2383C55.3059 64.6117 54.6252 64.9013 53.9089 65.2238C53.1927 65.5464 52.2071 65.7522 51.6229 66.1382C50.7898 66.6996 50.6806 68.1118 51.6229 68.6782C52.4434 69.1583 54.5998 69.679 56.8604 69.0389C58.0923 68.6909 59.4588 67.3752 61.0768 67.2482C62.0928 67.1669 64.0486 66.8774 64.709 66.0976C64.963 65.7522 64.6278 64.6549 64.3585 63.7049C64.0664 62.6711 63.9597 60.8474 63.6168 60.9389C63.6168 60.9389 63.7083 61.1929 63.5762 61.3351C63.4441 61.4773 62.9691 61.7491 62.832 61.8685C62.593 62.1033 62.4 62.3807 62.263 62.6864C62.2071 62.8233 62.1033 62.9353 61.9709 63.0013C61.7982 63.0674 61.6686 62.9582 61.5162 62.8896C61.3234 62.8013 61.1053 62.7851 60.9016 62.8439C60.9217 62.6389 60.9582 62.4359 61.0108 62.2368C61.0335 62.1742 61.0387 62.1066 61.026 62.0412C60.9985 61.9795 60.9523 61.928 60.8939 61.8939C60.5175 61.6402 60.0931 61.4665 59.6468 61.3834Z" fill="#37474F"/>
<path d="M56.9519 63.6796C57.0262 63.5378 57.1349 63.417 57.268 63.3283C57.4012 63.2395 57.5545 63.1856 57.7139 63.1716C58.1812 63.0852 59.0067 63.4256 59.5224 63.8523C59.5709 63.8921 59.609 63.9432 59.6333 64.0011C59.6576 64.059 59.6675 64.122 59.662 64.1845C59.6565 64.2471 59.6358 64.3074 59.6017 64.3601C59.5676 64.4129 59.5212 64.4565 59.4665 64.4873C59.3968 64.5242 59.3177 64.5393 59.2394 64.5307C59.161 64.5221 59.0871 64.4901 59.0271 64.439C58.4609 63.9248 57.7162 63.6523 56.9519 63.6796Z" fill="white"/>
<path d="M55.5015 64.4925C55.6034 64.3489 55.7382 64.2317 55.8946 64.1508C56.051 64.0699 56.2246 64.0277 56.4007 64.0277C56.4007 64.0277 57.6224 64.0633 58.3794 64.7694C58.426 64.8077 58.4627 64.8568 58.4862 64.9125C58.5098 64.9681 58.5194 65.0286 58.5144 65.0888C58.5094 65.149 58.4899 65.2071 58.4575 65.2581C58.4252 65.309 58.3809 65.3514 58.3286 65.3815C58.262 65.4183 58.1856 65.4335 58.11 65.4248C58.0344 65.4162 57.9635 65.3842 57.9069 65.3333C57.5948 65.0216 57.2165 64.7842 56.8001 64.6387C56.3837 64.4931 55.9399 64.4432 55.5015 64.4925Z" fill="white"/>
<path d="M53.9013 65.2238C54.0179 65.091 54.1618 64.9848 54.323 64.9125C54.4843 64.8402 54.6593 64.8034 54.836 64.8047C55.5299 64.8473 56.1924 65.1087 56.7283 65.5515C56.775 65.5901 56.8116 65.6394 56.8352 65.6952C56.8587 65.751 56.8683 65.8117 56.8633 65.8721C56.8584 65.9324 56.8389 65.9907 56.8065 66.0419C56.7742 66.0931 56.7299 66.1357 56.6775 66.1662C56.6106 66.2023 56.5342 66.2167 56.4587 66.2077C56.3832 66.1986 56.3123 66.1663 56.2559 66.1154C55.9597 65.794 55.5927 65.5461 55.184 65.3913C54.7752 65.2366 54.3361 65.1792 53.9013 65.2238Z" fill="white"/>
<path opacity="0.3" d="M56.9519 63.6796C57.0262 63.5378 57.1349 63.417 57.268 63.3283C57.4012 63.2395 57.5545 63.1856 57.7139 63.1716C58.1812 63.0852 59.0067 63.4256 59.5224 63.8523C59.5709 63.8921 59.609 63.9432 59.6333 64.0011C59.6576 64.059 59.6675 64.122 59.662 64.1845C59.6565 64.2471 59.6358 64.3074 59.6017 64.3601C59.5676 64.4129 59.5212 64.4565 59.4665 64.4873C59.3968 64.5242 59.3177 64.5393 59.2394 64.5307C59.161 64.5221 59.0871 64.4901 59.0271 64.439C58.4609 63.9248 57.7162 63.6523 56.9519 63.6796Z" fill="white"/>
<path opacity="0.3" d="M55.5015 64.4925C55.6034 64.3489 55.7382 64.2317 55.8946 64.1508C56.051 64.0699 56.2246 64.0277 56.4007 64.0277C56.4007 64.0277 57.6224 64.0633 58.3794 64.7694C58.426 64.8077 58.4627 64.8568 58.4862 64.9125C58.5098 64.9681 58.5194 65.0286 58.5144 65.0888C58.5094 65.149 58.4899 65.2071 58.4575 65.2581C58.4252 65.309 58.3809 65.3514 58.3286 65.3815C58.262 65.4183 58.1856 65.4335 58.11 65.4248C58.0344 65.4162 57.9635 65.3842 57.9069 65.3333C57.5948 65.0216 57.2165 64.7842 56.8001 64.6387C56.3837 64.4931 55.9399 64.4432 55.5015 64.4925Z" fill="white"/>
<path opacity="0.3" d="M53.9013 65.2238C54.0179 65.091 54.1618 64.9848 54.323 64.9125C54.4843 64.8402 54.6593 64.8034 54.836 64.8047C55.5299 64.8473 56.1924 65.1087 56.7283 65.5515C56.775 65.5901 56.8116 65.6394 56.8352 65.6952C56.8587 65.751 56.8683 65.8117 56.8633 65.8721C56.8584 65.9324 56.8389 65.9907 56.8065 66.0419C56.7742 66.0931 56.7299 66.1357 56.6775 66.1662C56.6106 66.2023 56.5342 66.2167 56.4587 66.2077C56.3832 66.1986 56.3123 66.1663 56.2559 66.1154C55.9597 65.794 55.5927 65.5461 55.184 65.3913C54.7752 65.2366 54.3361 65.1792 53.9013 65.2238Z" fill="white"/>
<path d="M80.8558 41.6121C81.2673 43.324 81.5264 46.6921 80.8127 49.2778C80.0989 51.8635 77.7113 56.1612 77.7113 56.1612L82.4129 54.0302C82.4129 54.0302 83.5178 53.987 84.5287 55.5542C85.5396 57.1213 84.5287 59.453 84.5287 59.453C84.5287 59.453 78.7934 63.9565 74.3687 66.6235C69.9872 69.26 67.6885 69.4886 64.8259 68.1703C63.1825 67.4083 63.0784 64.6143 63.9217 61.6882C64.7649 58.7622 68.0288 49.4963 68.0288 49.4963L60.546 50.05L63.3756 58.5869C63.3756 58.5869 62.0141 61.0685 58.0111 60.2227C58.0111 60.2227 51.5671 49.6182 50.734 46.7454C49.9008 43.8727 50.4088 41.6172 53.528 40.9187C56.7436 40.1973 64.45 39.542 64.45 39.542L80.8558 41.6121Z" fill="#44BBA4"/>
<path opacity="0.5" d="M80.8558 41.6121C81.2673 43.324 81.5264 46.6921 80.8127 49.2778C80.0989 51.8635 77.7113 56.1612 77.7113 56.1612L82.4129 54.0302C82.4129 54.0302 83.5178 53.987 84.5287 55.5542C85.5396 57.1213 84.5287 59.453 84.5287 59.453C84.5287 59.453 78.7934 63.9565 74.3687 66.6235C69.9872 69.26 67.6885 69.4886 64.8259 68.1703C63.1825 67.4083 63.0784 64.6143 63.9217 61.6882C64.7649 58.7622 68.0288 49.4963 68.0288 49.4963L60.546 50.05L63.3756 58.5869C63.3756 58.5869 62.0141 61.0685 58.0111 60.2227C58.0111 60.2227 51.5671 49.6182 50.734 46.7454C49.9008 43.8727 50.4088 41.6172 53.528 40.9187C56.7436 40.1973 64.45 39.542 64.45 39.542L80.8558 41.6121Z" fill="#222222"/>
<path opacity="0.15" d="M68.0339 49.4936L68.6587 48.3252C68.6587 48.3252 66.5683 46.4888 65.8444 44.4873C65.8444 44.4873 66.1467 47.0044 67.2516 48.5513L63.4949 49.7654L68.0339 49.4936Z" fill="#222222"/>
<path opacity="0.15" d="M77.437 59.791C79.4461 57.2154 83.7387 54.6653 83.7539 54.6551C82.9157 53.9439 82.4128 54.0303 82.4128 54.0303L77.7113 56.1613C77.7113 56.1613 74.8665 62.3132 72.5526 63.2505C74.4701 62.5727 76.1612 61.3749 77.437 59.791Z" fill="#222222"/>
<path opacity="0.15" d="M60.551 50.0473C60.551 49.5089 59.4436 47.2229 57.4624 46.4152C58.3731 46.6356 59.2163 47.0746 59.9191 47.6942C60.6219 48.3138 61.1631 49.0953 61.4959 49.9712L60.551 50.0473Z" fill="#222222"/>
<path d="M64.2671 17.7539C63.0098 17.6396 61.2191 19.6437 60.2031 22.8161C59.1871 25.9886 54.2468 36.4255 54.2468 36.4255L39.784 36.1867L42.0979 40.2964C42.0979 40.2964 53.1215 41.193 54.8284 41.3124C57.2084 41.4775 57.7621 41.0584 58.7375 39.6005C59.7128 38.1425 63.3527 31.7544 63.3527 31.7544L64.2671 17.7539Z" fill="#FFA8A7"/>
<path d="M65.2551 17.4821C64.2162 17.4387 63.1972 17.7765 62.39 18.4321C61.2927 19.3287 60.4063 20.7943 59.3242 23.4308C58.4657 25.5187 55.1713 33.5629 55.1713 33.5629C55.9023 34.4398 56.8098 35.1529 57.8348 35.6558C58.8597 36.1586 59.9791 36.4399 61.12 36.4813L66.8883 25.1682L65.2551 17.4821Z" fill="#455A64"/>
<path d="M77.8078 23.3977C79.1947 28.6123 80.9904 42.3664 80.9904 42.3664C78.7197 45.0055 68.2422 44.8861 63.9572 39.5394C63.4492 35.3103 62.2935 31.9499 61.3664 24.3832C60.9575 21.0482 61.7601 18.7267 64.8919 17.4694L70.7111 17.4821L74.5211 17.5506C76.5988 18.6657 77.2846 21.4318 77.8078 23.3977Z" fill="#F0F0F0"/>
<path d="M71.1378 43.5985C75.3034 44.5408 79.6264 43.9515 80.9904 42.3666C80.9904 42.3666 79.1946 28.6125 77.8078 23.3978C77.5877 22.5039 77.318 21.6228 77.0001 20.7588L73.2663 21.4141C73.2053 22.8949 74.9452 28.3255 76.1822 31.3201C77.2515 33.9185 78.0008 36.743 77.7951 38.5845C77.5894 40.426 76.0577 44.0023 71.1378 43.5985Z" fill="#E6E6E6"/>
<path d="M68.3006 5.49343C68.3818 6.47907 68.1688 7.46664 67.6886 8.33119C67.2083 9.19574 66.4824 9.89841 65.6027 10.3503C64.723 10.8022 63.7291 10.9829 62.7466 10.8698C61.7641 10.7566 60.8373 10.3545 60.0834 9.71438C59.3295 9.07428 58.7824 8.22495 58.5114 7.27384C58.2404 6.32273 58.2575 5.3126 58.5608 4.37126C58.864 3.42991 59.4396 2.59967 60.2148 1.98558C60.9901 1.37149 61.93 1.00116 62.9158 0.921432C64.2359 0.814665 65.5444 1.23617 66.5541 2.09339C67.5637 2.95061 68.1918 4.17346 68.3006 5.49343Z" fill="#263238"/>
<path d="M72.2173 8.74451C72.2173 8.74451 71.7093 12.6053 71.4426 13.2555C71.2566 13.6567 70.9239 13.9712 70.5129 14.1344L70.3554 11.4623L72.2173 8.74451Z" fill="#263238"/>
<path d="M70.772 3.39012C71.052 3.33467 71.341 3.34382 71.617 3.41689C71.893 3.48995 72.1486 3.625 72.3645 3.81176C73.0834 4.4366 72.8725 6.60576 72.2223 8.74444L70.7161 9.04162L70.772 3.39012Z" fill="#263238"/>
<path d="M70.264 9.07993C70.584 9.23741 70.9727 8.61764 71.3156 8.19346C71.6585 7.76928 72.8396 7.13175 73.5635 8.37381C74.2874 9.61587 73.2663 11.4726 72.3239 11.8536C70.7009 12.5089 70.3656 11.4624 70.3656 11.4624L70.7212 17.4822C69.4131 19.2018 64.2518 20.8579 65.2881 17.7591L65.1434 15.9303C64.4047 16.072 63.6583 16.1704 62.9082 16.2249C62.0573 16.2427 61.087 15.689 60.4418 13.8373C59.6392 11.5209 59.4436 8.50334 59.6798 5.45534C59.9872 1.30498 64.9097 0.802063 67.9399 2.38448C70.9701 3.9669 70.264 9.07993 70.264 9.07993Z" fill="#FFA8A7"/>
<path d="M70.2945 9.59289C70.4291 9.51669 70.9549 8.57689 71.3105 8.19335C71.788 7.68026 70.772 3.3902 70.772 3.3902C70.772 3.3902 71.1911 2.2726 70.0888 1.23882C69.5384 0.70369 68.857 0.322715 68.113 0.13413C67.3689 -0.0544546 66.5883 -0.0440133 65.8495 0.164405C64.3636 0.555565 62.8472 1.03055 61.3054 0.743525C60.5434 0.603825 59.7814 0.382844 59.0194 0.347284C58.9304 0.333117 58.8393 0.354062 58.7654 0.405705C58.7337 0.444145 58.7109 0.489131 58.6986 0.537437C58.6863 0.585743 58.6848 0.63617 58.6943 0.685104C58.7275 1.187 58.9206 1.66506 59.2455 2.04908L58.2828 1.84588C58.2511 1.8284 58.215 1.82056 58.179 1.82335C58.1429 1.82613 58.1084 1.83941 58.0798 1.86156C58.0512 1.8837 58.0296 1.91374 58.0179 1.94796C58.0061 1.98219 58.0046 2.0191 58.0136 2.05416C58.0051 2.3939 58.073 2.7312 58.2124 3.04115C58.3518 3.3511 58.559 3.62577 58.8188 3.84487C59.9034 4.74911 61.0413 4.98787 62.4408 4.99803C64.2805 5.04235 66.1149 4.78494 67.8713 4.23603C68.4301 4.11411 68.5952 4.65258 69.022 6.12578C69.3776 7.42626 69.1286 10.2685 70.2945 9.59289Z" fill="#263238"/>
<path d="M70.7898 3.7279L72.55 2.60014C72.4816 2.48028 72.3895 2.37562 72.2793 2.29253C72.1691 2.20945 72.0431 2.14968 71.9091 2.11688C71.775 2.08408 71.6357 2.07894 71.4996 2.10176C71.3635 2.12458 71.2335 2.17489 71.1174 2.24962C70.8849 2.40798 70.7215 2.64911 70.6606 2.92381C70.5997 3.19851 70.6459 3.4861 70.7898 3.7279Z" fill="#263238"/>
<path d="M65.1332 15.9302C65.1332 15.9302 67.8256 15.1682 68.74 14.5738C69.279 14.2357 69.7031 13.7425 69.9567 13.1591C69.8586 13.73 69.6461 14.2752 69.3318 14.7618C68.7019 15.7118 65.1942 16.6566 65.1942 16.6566L65.1332 15.9302Z" fill="#F28F8F"/>
<path d="M64.9021 8.83843C64.9152 8.94482 64.9592 9.04502 65.0287 9.12667C65.0981 9.20832 65.19 9.26783 65.2929 9.29786C65.3958 9.32788 65.5052 9.3271 65.6077 9.29561C65.7102 9.26413 65.8012 9.20331 65.8695 9.12068C65.9378 9.03805 65.9804 8.93723 65.992 8.83067C66.0036 8.7241 65.9838 8.61647 65.9349 8.52106C65.886 8.42565 65.8103 8.34665 65.717 8.29381C65.6237 8.24098 65.517 8.21662 65.4101 8.22375C65.3361 8.2301 65.2641 8.25112 65.1984 8.2856C65.1326 8.32007 65.0744 8.36729 65.0271 8.42452C64.9798 8.48175 64.9444 8.54782 64.9229 8.61889C64.9015 8.68996 64.8944 8.76459 64.9021 8.83843Z" fill="#263238"/>
<path d="M65.2983 6.78119L66.5226 7.33236C66.5962 7.16364 66.601 6.97284 66.536 6.80061C66.471 6.62839 66.3413 6.48835 66.1746 6.41035C66.093 6.37505 66.005 6.35667 65.9161 6.35633C65.8271 6.35598 65.739 6.37368 65.6571 6.40834C65.5752 6.443 65.5012 6.49391 65.4395 6.558C65.3778 6.62208 65.3298 6.69801 65.2983 6.78119Z" fill="#263238"/>
<path d="M65.3999 12.6079L64.1858 13.1769C64.2197 13.2588 64.2698 13.333 64.3331 13.3951C64.3963 13.4572 64.4714 13.5059 64.5539 13.5384C64.6364 13.5709 64.7246 13.5864 64.8132 13.5841C64.9018 13.5818 64.989 13.5616 65.0697 13.5248C65.232 13.4437 65.3569 13.3032 65.4184 13.1325C65.4798 12.9617 65.4732 12.7739 65.3999 12.6079Z" fill="#F28F8F"/>
<path d="M59.8246 7.77677L60.9574 7.03509C60.913 6.95906 60.8535 6.89286 60.7826 6.84051C60.7118 6.78816 60.631 6.75076 60.5453 6.73056C60.4595 6.71037 60.3706 6.70782 60.2838 6.72305C60.197 6.73829 60.1143 6.771 60.0405 6.81919C59.8884 6.92048 59.7811 7.07646 59.7409 7.25476C59.7007 7.43306 59.7307 7.61999 59.8246 7.77677Z" fill="#263238"/>
<path d="M60.4113 9.1408C60.4245 9.24718 60.4685 9.34739 60.5379 9.42904C60.6074 9.51069 60.6993 9.5702 60.8022 9.60022C60.9051 9.63025 61.0145 9.62947 61.117 9.59798C61.2194 9.56649 61.3104 9.50568 61.3787 9.42305C61.447 9.34042 61.4896 9.2396 61.5012 9.13303C61.5128 9.02647 61.493 8.91884 61.4441 8.82343C61.3953 8.72802 61.3195 8.64902 61.2262 8.59618C61.133 8.54334 61.0263 8.51899 60.9193 8.52612C60.8452 8.53213 60.7731 8.55293 60.7072 8.5873C60.6413 8.62166 60.5829 8.66889 60.5355 8.72619C60.4882 8.7835 60.4528 8.84971 60.4315 8.92092C60.4101 8.99213 60.4033 9.0669 60.4113 9.1408Z" fill="#263238"/>
<path d="M63.345 8.33545L63.9114 11.6248L61.8922 11.5689L63.345 8.33545Z" fill="#F28F8F"/>
<path d="M86.266 35.0462C86.5378 33.9794 84.8106 30.1719 82.71 26.1079C79.0422 19.0518 77.4446 17.6421 74.3635 17.8402L75.3237 25.9022L80.9421 35.0462C80.7974 35.8082 79.474 40.2608 78.1481 42.7678C77.9074 43.2091 77.5135 43.547 77.0407 43.7177C75.7707 44.1876 75.1738 44.8125 74.1476 45.5211C73.345 46.0774 72.7456 46.1333 72.7887 46.3695C72.8421 46.6768 73.218 47.2306 74.0791 47.1518C74.6906 47.0443 75.2874 46.8653 75.8571 46.6184C75.2443 47.5137 74.5022 48.3132 73.6549 48.9908C71.6864 50.591 70.6602 51.8508 73.8251 52.5468C75.8063 52.976 78.3844 51.7848 80.7872 47.7055C81.4781 46.5321 82.6058 44.6804 83.3272 43.1107C84.996 39.3921 85.4811 38.1602 86.266 35.0462Z" fill="#FFA8A7"/>
<path d="M73.3781 17.5304C73.3781 17.5304 72.1639 21.3404 75.024 26.0521C76.7258 28.8461 79.2632 33.1641 79.2632 33.1641C79.2632 33.1641 84.0892 32.2066 84.9071 29.7072C84.9071 29.7072 82.7583 24.8406 80.5662 21.4014C78.3742 17.9622 77.5259 17.1697 73.3781 17.5304Z" fill="#455A64"/>
<path d="M33.5559 40.7179C32.6339 37.7842 32.6593 35.8284 33.3019 34.7032C33.7287 33.9412 35.0596 33.6491 35.6286 33.6008C36.1975 33.5526 36.3906 33.9894 35.8699 34.4974C35.3492 35.0054 35.5448 35.483 35.8242 36.1078C36.17 36.8141 36.578 37.4881 37.0434 38.122L33.5559 40.7179Z" fill="#263238"/>
<path d="M45.7555 42.8565C45.9232 42.8236 46.0929 42.8024 46.2635 42.793C46.776 42.7596 47.2727 42.6027 47.7113 42.3358C48.0244 42.1351 48.2676 41.8422 48.4073 41.4976C48.4835 41.2216 48.5043 40.9332 48.4683 40.6492C48.4691 40.419 48.4375 40.1898 48.3743 39.9685C48.1838 39.3716 47.6504 38.9703 47.1373 38.6578C45.974 37.9517 44.7319 38.5639 43.0098 38.8636C41.7042 39.0896 39.1998 37.0221 36.1289 38.127C33.1343 39.209 33.1013 42.4221 32.4993 44.9977C31.5163 49.2014 30.7619 48.1498 28.2778 52.3637C26.2814 55.7597 25.5803 58.3657 23.34 61.6906C22.2301 63.3339 20.038 66.2372 18.9179 69.844C17.5336 74.2966 19.2075 77.5706 22.0827 79.242C24.6227 80.7279 26.007 81.2359 29.5478 80.9844C31.5214 80.8447 32.6999 80.0014 33.4848 79.5493C35.0698 80.4637 38.4861 77.9948 39.6875 77.0728C41.9379 75.3481 40.6781 73.8064 38.6994 74.2534C37.9042 74.4349 37.1315 74.7041 36.3956 75.056C36.3956 75.056 37.6148 72.6608 38.0924 70.6288C38.5292 68.7645 38.2702 67.1922 37.5615 66.7909C37.9958 66.3261 38.3921 65.8663 38.7553 65.4091C38.9026 67.0754 39.2023 71.1114 39.3192 71.5051C39.4741 72.0131 40.5231 73.0088 41.4756 72.7497C42.4281 72.4906 44.4297 71.5966 44.7218 70.7406C45.1104 69.5925 43.9598 69.4147 42.0014 69.9252V69.8821C42.0573 67.7916 42.1005 65.7749 42.1233 63.6845C42.1386 62.4348 42.1792 61.1851 42.197 59.9354C42.2122 58.9194 42.3189 57.9187 42.3951 56.9103C42.4459 56.2397 42.4815 55.5717 42.4662 54.8986C42.4307 53.212 42.2122 51.3756 42.2427 50.5806C42.2707 49.3487 42.4408 48.066 43.34 47.1922C44.2392 46.3185 45.4076 45.8765 46.449 45.2466C46.8316 45.021 47.1921 44.7599 47.5259 44.4668C47.8409 44.1849 48.4632 43.4508 48.2371 42.9809C47.6953 43.3346 47.0447 43.4824 46.4032 43.3975C46.1421 43.3463 45.8998 43.2252 45.7022 43.047C45.686 43.0354 45.6727 43.0202 45.6634 43.0025C45.6541 42.9849 45.6492 42.9653 45.6489 42.9454C45.6565 42.8895 45.7098 42.8692 45.7555 42.8565Z" fill="#455A64"/>
<path d="M40.3809 36.2042C36.9494 36.0162 36.0299 37.1617 35.245 37.7993C34.4602 38.4368 32.926 41.1521 34.6634 41.6982C36.4007 42.2443 38.0212 40.2301 38.0212 40.2301L40.3809 36.2042Z" fill="#FFA8A7"/>
<path d="M42.1081 51.3504C42.1081 51.0964 42.1284 50.7382 42.131 50.5655C42.131 50.3471 42.3494 50.1286 42.3621 49.9102C40.9449 50.0364 39.5203 50.0577 38.1 49.9737C34.3357 49.8086 32.6517 47.8376 32.6517 47.8376L31.7957 47.2737C31.5838 47.7697 31.3052 48.2346 30.9677 48.6554C35.2857 52.2114 39.9339 51.6907 41.4249 51.5028L42.1081 51.3504Z" fill="#37474F"/>
<path d="M47.9527 42.1454C48.4663 42.2005 48.9414 42.4439 49.2862 42.8286C49.5249 43.1055 50.2209 44.7108 49.6799 45.1908C49.1388 45.6709 47.9247 45.2061 47.785 44.0199C47.785 44.0199 45.8978 44.0758 45.3415 43.2782C44.7853 42.4807 45.7022 42.2343 46.543 42.2013L47.9527 42.1454Z" fill="#F28F8F"/>
<path d="M48.2346 42.986C48.2346 42.986 47.4548 43.5346 47.5717 44.0325H47.785C47.8182 44.3508 47.9466 44.6517 48.1533 44.8961C48.3739 45.1172 48.6693 45.2477 48.9814 45.2618C49.6367 45.2618 49.3725 44.7106 49.2354 44.0858C49.0982 43.461 48.5927 42.8717 48.2346 42.986Z" fill="#B16668"/>
<path d="M22.1767 76.9307C22.3929 77.1128 22.5513 77.3539 22.6325 77.6246C22.7137 77.8953 22.7142 78.1838 22.6339 78.4547C22.6339 78.4547 21.7906 79.8187 17.8358 80.2581C14.0563 80.6772 10.3733 79.0466 7.12213 80.2581C3.87093 81.4697 5.21713 83.9335 4.87931 84.5762C4.54149 85.2188 3.60931 84.7794 3.60931 82.8363C3.60931 80.8932 4.91233 79.1278 7.26945 78.569C9.62657 78.0102 12.9438 78.4573 16.0934 78.5055C19.3116 78.5563 20.071 77.2533 20.5765 76.7275C21.1658 76.1357 21.75 76.5269 22.1767 76.9307Z" fill="#263238"/>
<path d="M48.3718 39.9687C48.1813 39.3718 47.6479 38.9705 47.1348 38.6581C46.322 38.1653 45.4711 38.3152 44.4424 38.5539C44.13 38.8283 44.5846 39.6004 45.1714 40.0271C45.7581 40.4539 46.6954 42.0134 44.5694 42.5468C42.1868 43.1463 41.3893 44.053 40.7238 45.3789C39.7662 47.2915 40.2488 48.4853 40.7797 49.7807C41.2623 50.9568 42.4662 54.081 42.4104 56.6387C42.451 56.0596 42.5171 55.4627 42.5044 54.881C42.4688 53.1945 42.2224 51.3733 42.2504 50.5783C42.2783 49.3464 42.4485 48.0637 43.3476 47.1899C44.2468 46.3162 45.4152 45.8742 46.4566 45.2443C46.8392 45.0187 47.1998 44.7576 47.5336 44.4645C47.8485 44.1826 48.4708 43.4485 48.2448 42.9786C47.7029 43.3323 47.0523 43.4801 46.4109 43.3952C46.1497 43.344 45.9074 43.2229 45.7098 43.0447C45.6936 43.0331 45.6803 43.0179 45.671 43.0002C45.6618 42.9826 45.6568 42.963 45.6565 42.9431C45.6565 42.8948 45.72 42.8745 45.7657 42.8618C45.9334 42.8289 46.1031 42.8077 46.2737 42.7983C46.7861 42.7649 47.2829 42.608 47.7215 42.3411C48.0346 42.1404 48.2777 41.8475 48.4175 41.5029C48.4937 41.2269 48.5144 40.9386 48.4784 40.6545C48.4756 40.422 48.4397 40.1911 48.3718 39.9687Z" fill="#FAFAFA"/>
<path d="M46.8782 39.1915C46.8655 39.1763 46.8503 39.161 46.8376 39.1432C46.7981 39.0703 46.7539 38.9998 46.7055 38.9324C46.6113 38.8487 46.4948 38.794 46.3702 38.7749C46.1899 38.7216 46.0172 38.6276 46.0857 38.4168C46.1061 38.3558 46.1594 38.3304 46.2153 38.305C46.4141 38.1768 46.6473 38.1123 46.8837 38.12C47.1201 38.1277 47.3486 38.2073 47.5386 38.3482C47.9795 38.5718 48.3483 38.9151 48.6029 39.3388C48.7197 39.5725 48.4251 40.2964 48.4251 40.2964C48.4326 40.1838 48.4116 40.0711 48.3641 39.9687C48.227 39.5573 47.5488 39.4811 47.1983 39.3642C47.0804 39.3304 46.9712 39.2715 46.8782 39.1915Z" fill="#263238"/>
<path d="M43.34 47.1846C44.2265 46.3236 45.4076 45.8689 46.449 45.239C46.5861 45.1552 46.7233 45.0663 46.8554 44.985C45.0571 46.001 42.9768 45.2009 41.9837 45.907C40.9905 46.6131 41.2217 48.795 41.9837 49.6459C42.5196 50.2377 41.6458 50.4358 41.0642 50.5019C41.1785 50.7991 41.3004 51.1394 41.4274 51.5179L42.2681 51.3883C42.2681 51.0581 42.2377 50.7965 42.2427 50.5882C42.2681 49.336 42.4383 48.066 43.34 47.1846Z" fill="#E0E0E0"/>
<path d="M38.2447 40.9314C38.8493 41.5206 39.6849 42.2852 40.3174 43.0091C40.8533 43.6212 41.2623 43.1691 41.7144 40.3421C42.103 37.9138 42.3164 37.5303 42.7304 37.3906C43.0479 37.2839 43.6041 37.355 43.7032 37.1366C43.8962 36.7023 43.2282 35.8844 41.6712 35.6278C39.2887 35.2291 37.2948 40.0043 38.2447 40.9314Z" fill="#263238"/>
<path d="M32.2123 46.0162C32.1335 46.2702 32.0802 46.3921 32.0802 46.3921C32.0802 46.3921 33.2511 48.0558 37.117 48.8483C40.9829 49.6408 42.3901 49.0439 42.3901 49.0439C42.428 48.8546 42.478 48.6679 42.5399 48.4851C42.5399 48.4851 42.7355 48.6349 42.6619 49.5366C42.6085 50.1869 42.5196 50.4637 42.1691 50.5526C41.082 50.8066 38.9026 50.7787 36.7665 50.2986C33.4823 49.562 31.6865 48.1727 31.3944 47.845C31.1023 47.5173 31.2039 47.2506 31.4325 46.575C31.6611 45.8994 31.8237 45.8816 32.2123 46.0162Z" fill="#44BBA4"/>
<path opacity="0.3" d="M32.2123 46.0162C32.1335 46.2702 32.0802 46.3921 32.0802 46.3921C32.0802 46.3921 33.2511 48.0558 37.117 48.8483C40.9829 49.6408 42.3901 49.0439 42.3901 49.0439C42.428 48.8546 42.478 48.6679 42.5399 48.4851C42.5399 48.4851 42.7355 48.6349 42.6619 49.5366C42.6085 50.1869 42.5196 50.4637 42.1691 50.5526C41.082 50.8066 38.9026 50.7787 36.7665 50.2986C33.4823 49.562 31.6865 48.1727 31.3944 47.845C31.1023 47.5173 31.2039 47.2506 31.4325 46.575C31.6611 45.8994 31.8237 45.8816 32.2123 46.0162Z" fill="#222222"/>
<path d="M37.559 66.8012C36.4261 66.1459 33.782 66.6996 31.3995 69.6383C31.3995 69.6383 31.4985 67.7765 33.7515 66.471C36.0045 65.1654 37.6403 65.6048 38.2422 66.0366L37.559 66.8012Z" fill="#37474F"/>
<path d="M37.1399 74.7361C36.6776 74.9164 36.3931 75.0612 36.3931 75.0612C35.7962 76.2753 35.0037 77.6012 35.0037 77.6012C35.0037 77.6012 36.6065 76.1509 37.1399 74.7361Z" fill="#37474F"/>
<path d="M40.2412 74.3653C40.0961 74.298 39.9422 74.2519 39.784 74.2281C39.6407 74.2652 39.5025 74.3198 39.3725 74.3907C39.2473 74.4632 39.1299 74.5483 39.022 74.6447C38.9814 74.6828 38.7477 74.8987 38.8239 74.9622C38.8467 74.9774 38.8747 74.9622 38.8975 74.9622C39.1924 74.7484 39.5189 74.5821 39.8653 74.4695C39.9887 74.4284 40.1142 74.3936 40.2412 74.3653Z" fill="#37474F"/>
<path d="M40.8127 74.9418C40.7794 74.8578 40.734 74.7791 40.6781 74.7081C40.104 74.8047 39.4767 74.9901 39.3446 75.4955C39.3446 75.5133 39.3446 75.5794 39.3801 75.5565C39.6123 75.391 39.8598 75.2481 40.1193 75.1298C40.3419 75.0392 40.5748 74.9761 40.8127 74.9418Z" fill="#37474F"/>
<path d="M44.5846 69.8771C44.4561 69.7793 44.3049 69.7155 44.1452 69.6917L44.0588 69.7094C43.8227 69.7558 43.6054 69.8707 43.434 70.0396C43.434 70.0396 43.434 70.098 43.434 70.0904C43.7219 69.9714 44.0274 69.9002 44.3382 69.8796C44.4297 69.8745 44.5084 69.8745 44.5846 69.8771Z" fill="#37474F"/>
<path d="M44.7852 70.2555C44.7769 70.1722 44.7509 70.0917 44.709 70.0193C44.6406 70.0243 44.5727 70.0345 44.5058 70.0498C44.3001 70.1006 44.0309 70.1971 43.9826 70.4333C43.9826 70.4333 43.9826 70.4765 44.0029 70.4714C44.199 70.3854 44.4021 70.3166 44.61 70.2657C44.6684 70.258 44.7268 70.258 44.7852 70.2555Z" fill="#37474F"/>
<path d="M7.46248 80.9288C6.99766 80.8196 6.46172 81.1498 6.1366 81.4698C5.87073 81.7351 5.68423 82.0694 5.59812 82.435C5.55584 82.6199 5.53622 82.8092 5.5397 82.9989C5.54186 83.0942 5.55034 83.1892 5.5651 83.2834C5.56524 83.3746 5.58247 83.4651 5.6159 83.5501C5.63622 83.5856 5.68448 83.6136 5.72004 83.5907C5.73341 83.5793 5.74369 83.5647 5.7499 83.5483C5.75612 83.5318 5.75808 83.5141 5.7556 83.4967C5.7378 83.1857 5.77302 82.8739 5.85974 82.5747C5.96532 82.2901 6.11162 82.0223 6.29408 81.7797C6.61158 81.3631 7.03322 81.2514 7.46756 81.0177C7.4955 81.0024 7.4955 80.9364 7.46248 80.9288Z" fill="#E0E0E0"/>
<path d="M7.018 81.8964C6.77924 81.8964 6.53286 82.1504 6.41094 82.3434C6.24667 82.5938 6.16658 82.8901 6.18234 83.1892C6.19504 83.2603 6.32712 83.3391 6.38046 83.2629C6.46485 83.1077 6.52563 82.9407 6.5608 82.7676C6.64436 82.4748 6.84079 82.2272 7.1069 82.0792C7.20088 82.0284 7.07896 81.8989 7.018 81.8964Z" fill="#E0E0E0"/>
<path d="M6.16458 78.188C4.80313 78.2998 3.48741 79.4783 3.06323 80.728C3.06323 80.7534 3.08863 80.8296 3.11657 80.7915C3.97255 79.6637 4.83107 78.7747 6.24078 78.3734C6.36778 78.3429 6.25602 78.1804 6.16458 78.188Z" fill="#E0E0E0"/>
<path d="M5.29845 77.9468C4.71425 77.8426 3.93447 78.4345 3.55855 78.8383C3.51029 78.8891 3.59665 79.011 3.65761 78.9831C3.95844 78.8253 4.24862 78.648 4.52629 78.4522C4.79638 78.3188 5.07464 78.2026 5.35941 78.1043C5.43561 78.0687 5.34925 77.9569 5.29845 77.9468Z" fill="#E0E0E0"/>
</svg>
