<svg width="27" height="30" viewBox="0 0 27 30" fill="none" xmlns="http://www.w3.org/2000/svg">
<path d="M22.4227 10.6788C22.1953 10.0091 21.7636 9.42754 21.1884 9.016C20.6132 8.60447 19.9234 8.38367 19.2161 8.38468H16.5001V1.49971C16.5001 0.891148 15.9611 0.423679 15.3586 0.509742C12.7693 0.879617 10.7524 2.19174 9.36443 4.40974C8.36374 6.00855 7.89855 7.77224 7.68268 9.09137C6.19224 10.2381 4.89562 11.8171 3.82405 13.7914C2.92099 15.455 2.17343 17.4049 1.60205 19.5869C0.636616 23.2738 0.505929 26.332 0.500866 26.4604L0.500366 29.9997H2.50005V26.5224C2.52505 26.008 3.1548 14.7506 9.18955 10.4639L9.5433 10.2126L9.60143 9.78255C9.90237 7.55593 10.9424 3.8783 14.5001 2.74787V9.38468C14.5001 9.93696 14.9478 10.3847 15.5001 10.3847H19.2161C19.5053 10.3838 19.7874 10.4736 20.0229 10.6415C20.2583 10.8094 20.4352 11.0469 20.5286 11.3206C21.3259 13.6741 22.6959 16.6191 24.8311 18.0031L24.1889 20.4111C23.9654 21.2699 23.457 22.0273 22.7469 22.5595C22.0368 23.0917 21.1671 23.367 20.2802 23.3405C18.4884 23.2867 16.6236 23.5205 14.7371 24.0349C14.302 24.1536 14.0001 24.5488 14.0001 24.9998V29.9997H16.0001V25.7789C17.3821 25.4524 18.8004 25.3047 20.2201 25.3396C21.557 25.3764 22.8673 24.9606 23.9384 24.1596C25.0094 23.3586 25.7786 22.2193 26.1212 20.9264L26.9662 17.7575C27.0942 17.2774 26.8505 16.7762 26.3938 16.5805C24.9063 15.943 23.4961 13.8471 22.4227 10.6788Z" fill="#9C9C9C"/>
</svg>
