<svg width="20" height="20" viewBox="0 0 20 20" fill="none" xmlns="http://www.w3.org/2000/svg">
<path d="M10.8484 0.751734C10.6234 0.526769 10.3182 0.400391 10 0.400391C9.68182 0.400391 9.37665 0.526769 9.15162 0.751734L0.751619 9.15174C0.533029 9.37806 0.412076 9.68118 0.41481 9.99582C0.417544 10.3105 0.543747 10.6114 0.766236 10.8339C0.988726 11.0564 1.2897 11.1826 1.60434 11.1853C1.91897 11.1881 2.2221 11.0671 2.44842 10.8485L2.80002 10.4969V18.4001C2.80002 18.7184 2.92645 19.0236 3.15149 19.2487C3.37653 19.4737 3.68176 19.6001 4.00002 19.6001H6.40002C6.71828 19.6001 7.0235 19.4737 7.24855 19.2487C7.47359 19.0236 7.60002 18.7184 7.60002 18.4001V16.0001C7.60002 15.6819 7.72645 15.3767 7.95149 15.1516C8.17653 14.9266 8.48176 14.8001 8.80002 14.8001H11.2C11.5183 14.8001 11.8235 14.9266 12.0485 15.1516C12.2736 15.3767 12.4 15.6819 12.4 16.0001V18.4001C12.4 18.7184 12.5264 19.0236 12.7515 19.2487C12.9765 19.4737 13.2818 19.6001 13.6 19.6001H16C16.3183 19.6001 16.6235 19.4737 16.8485 19.2487C17.0736 19.0236 17.2 18.7184 17.2 18.4001V10.4969L17.5516 10.8485C17.7779 11.0671 18.0811 11.1881 18.3957 11.1853C18.7103 11.1826 19.0113 11.0564 19.2338 10.8339C19.4563 10.6114 19.5825 10.3105 19.5852 9.99582C19.588 9.68118 19.467 9.37806 19.2484 9.15174L10.8484 0.751734Z" fill="#493FB6"/>
</svg>
