<svg width="24" height="32" viewBox="0 0 24 32" fill="none" xmlns="http://www.w3.org/2000/svg">
<path d="M2.78627 19.5923C2.78627 19.5923 5.27123 27.7691 11.6282 30.8324L17.1563 26.7234L19.5052 24.0907L17.4435 21.5581L12.6069 24.5637L11.0174 26.3451H9.6902L8.37093 25.3512L9.07144 22.6363L2.78627 19.5923Z" fill="#FFC800"/>
<path d="M8.77233 22.3138C8.77233 22.3138 0.100094 19.8822 0.915852 11.214C2.8235 -0.45284 12.6155 1.02307 12.6155 1.02307L16.6278 1.85054L19.8068 3.67416L21.126 5.70294L22.7201 9.63285L23.0084 13.1821L22.5134 16.0315L21.3997 17.3331L20.9875 19.6514L20.4925 22.8815L19.4616 23.6257L17.4407 21.5559L12.368 25.8015L11.0169 26.3418C11.0169 26.3418 9.81121 26.3258 9.68746 26.3418C9.56371 26.3578 7.99693 25.8015 7.99693 25.8015L9.0687 22.633L8.77233 22.3138Z" fill="#FFC800"/>
<path d="M12.7922 20.3488C12.5837 20.2053 12.3231 20.1056 12.0907 20.2059L11.9986 20.2456C11.8936 20.291 11.8405 20.4113 11.896 20.5113C12.1561 20.9805 12.7063 21.2933 13.2707 21.2791C13.8543 21.2652 14.3682 20.9043 14.5785 20.4925C14.6282 20.3952 14.5733 20.283 14.4726 20.2405L14.3728 20.1985C14.1365 20.0989 13.8725 20.2049 13.6609 20.3496C13.3947 20.5315 13.0714 20.541 12.7922 20.3488Z" fill="#1D1D1D"/>
<path d="M23.5155 10.2982C23.1658 7.56272 21.9964 5.21709 20.0027 3.32166C17.1939 0.650049 13.8367 -0.406513 10.0117 0.139434C7.43958 0.490813 5.06915 1.72899 3.30637 3.64193C0.629235 6.48565 -0.473184 9.88101 0.186451 13.7357C0.240947 14.056 0.306797 14.3694 0.380594 14.676C0.819517 16.8103 1.46597 18.8961 2.31068 20.9037C4.93219 27.1496 8.53236 30.3193 11.0926 31.8785L11.1874 31.9362C11.326 32.0206 11.4999 32.0213 11.6391 31.9381L11.7352 31.8808C11.9089 31.777 15.836 29.4052 19.5202 24.8963L19.5338 24.9122C19.7427 24.6752 19.938 24.4632 20.1208 24.242C21.5468 22.5225 22.1145 20.5522 21.8238 18.3312C21.8004 18.1818 21.8323 18.0289 21.9135 17.9015C23.3054 15.6286 23.8714 12.9423 23.5155 10.2982ZM11.4161 30.5962C7.27326 27.9315 4.81638 23.6243 3.47668 20.4409C3.42899 20.3269 3.38244 20.213 3.33703 20.099C4.58591 21.3448 6.15609 22.3101 8.04303 23.0008C8.15656 23.0442 8.27918 23.0829 8.40179 23.1251C8.38817 23.1718 8.38136 23.2037 8.36887 23.2391C8.12136 23.8671 7.87613 24.4928 7.62295 25.1231C7.36977 25.7534 7.56164 26.3768 8.09185 26.6538C9.59618 27.4322 11.5966 27.1895 12.8785 26.0691C13.5415 25.4878 14.2 24.8997 14.8608 24.315L17.2631 22.1939C17.7445 22.7638 18.2225 23.3393 18.7039 23.9138C16.6192 26.4927 14.1629 28.745 11.4161 30.5962ZM21.2618 16.3207C20.7267 15.1295 19.8939 14.0987 18.8456 13.3277C18.7655 13.2688 18.6532 13.2888 18.5961 13.3702C18.2379 13.8818 18.3621 14.578 18.8028 15.0207C19.8771 16.0997 20.488 17.4349 20.5897 19.0424C20.6771 20.4216 20.307 21.6878 19.5293 22.8595L19.3351 22.6316C14.8637 17.3617 19.4412 22.7557 14.9519 17.4656C14.8846 17.3862 14.5645 17.5687 14.4909 17.6424C14.0485 18.0848 14.2141 18.6294 14.6228 19.1031C15.7171 20.3714 14.2106 18.6254 16.2845 21.029C16.3231 21.0746 16.3594 21.1225 16.4105 21.1863C16.3254 21.2638 16.2436 21.3391 16.1607 21.4143C14.7938 22.6247 13.4268 23.834 12.0599 25.0422C11.1913 25.8092 9.81643 26.0338 8.86161 25.5562C9.00807 25.1801 9.15112 24.8017 9.30326 24.4255C9.65976 23.5388 10.0242 22.6555 10.3773 21.7665C10.5814 21.287 10.6692 20.7657 10.6333 20.2455C10.5973 19.7253 10.4388 19.2212 10.1707 18.7746C10.1371 18.7271 10.119 18.6704 10.119 18.6122C10.119 18.554 10.1371 18.4972 10.1707 18.4498C10.9972 17.0114 11.8146 15.5673 12.6423 14.13C12.7986 13.8423 13.0302 13.6028 13.3121 13.4375C13.594 13.2722 13.9155 13.1873 14.242 13.192C14.829 13.1772 15.4171 13.192 16.0041 13.192C17.6253 13.192 18.9923 11.8847 19.1047 10.2286C19.1512 9.44497 18.906 8.6719 18.4168 8.05945C17.9276 7.447 16.7463 6.91474 16.4642 6.83143C16.3172 6.78802 16.2066 6.74351 16.0858 6.71712C16.0143 6.7015 15.9425 6.73975 15.9229 6.81025C15.8822 6.95593 15.8734 7.15378 15.8798 7.35298C15.8955 7.83974 16.2993 8.17917 16.744 8.37772C17.0199 8.50093 17.265 8.68093 17.4634 8.9602C17.7196 9.32068 17.8387 9.76139 17.799 10.2024C17.759 10.6335 17.5683 11.0364 17.2608 11.3399C16.9533 11.6434 16.5487 11.8279 16.1187 11.8608C15.5397 11.8961 14.9573 11.8904 14.3771 11.879C13.6904 11.8553 13.0141 12.0526 12.447 12.4421C12.4152 12.4637 12.38 12.4797 12.3278 12.5082C12.1178 10.5842 11.2515 9.05809 9.68246 7.9491C8.99781 7.46697 8.13321 7.11537 7.32414 6.95966C6.71559 6.84254 6.22875 7.3595 6.22875 7.97922C6.22875 8.05917 6.28506 8.12817 6.36365 8.14287C6.81951 8.22813 7.2748 8.28319 7.70469 8.42325C10.6452 9.38635 11.9055 12.7293 10.375 15.4579C9.89666 16.3089 9.41263 17.1569 8.92292 18.0018C8.66065 18.4577 8.67655 18.8794 8.97174 19.3183C9.36116 19.8973 9.46788 20.5207 9.1761 21.1841C9.07619 21.412 8.99331 21.64 8.8968 21.885C5.6202 21.0302 2.19487 18.0759 1.4569 13.5442C0.641723 8.54406 3.3972 4.07048 7.54574 2.20811C9.61854 1.28966 11.9311 1.06686 14.1401 1.57279C16.3491 2.07873 18.3366 3.28641 19.8075 5.01649C22.8343 8.60675 22.8218 13.2593 21.2618 16.3207Z" fill="#1D1D1D"/>
</svg>
