<svg width="26" height="26" viewBox="0 0 26 26" fill="none" xmlns="http://www.w3.org/2000/svg">
<path d="M16.0666 7.38267L20.78 2.66667H15.6666C15.1143 2.66667 14.6666 2.21895 14.6666 1.66667V1C14.6666 0.447716 15.1143 0 15.6666 0H24.3333C24.8856 0 25.3333 0.447715 25.3333 1V9.66667C25.3333 10.219 24.8856 10.6667 24.3333 10.6667H23.6666C23.1143 10.6667 22.6666 10.219 22.6666 9.66667V4.552L17.9506 9.268C19.4891 11.2847 20.2037 13.8107 19.9498 16.3344C19.6958 18.8582 18.4923 21.1912 16.5829 22.8609C14.6735 24.5307 12.2009 25.4125 9.66579 25.3277C7.13069 25.2429 4.72253 24.1979 2.92894 22.4044C1.13535 20.6108 0.0903663 18.2026 0.00559177 15.6675C-0.0791828 13.1324 0.802585 10.6598 2.47235 8.7504C4.14211 6.841 6.47507 5.63747 8.99885 5.38353C11.5226 5.12958 14.0486 5.84419 16.0653 7.38267H16.0666ZM9.99996 22.6667C11.9449 22.6667 13.8101 21.8941 15.1854 20.5188C16.5607 19.1435 17.3333 17.2783 17.3333 15.3333C17.3333 13.3884 16.5607 11.5232 15.1854 10.1479C13.8101 8.77262 11.9449 8 9.99996 8C8.05504 8 6.18977 8.77262 4.81451 10.1479C3.43924 11.5232 2.66662 13.3884 2.66662 15.3333C2.66662 17.2783 3.43924 19.1435 4.81451 20.5188C6.18977 21.8941 8.05504 22.6667 9.99996 22.6667Z" fill="#9C9C9C"/>
</svg>
