<svg width="157" height="150" viewBox="0 0 157 150" fill="none" xmlns="http://www.w3.org/2000/svg">
<path fill-rule="evenodd" clip-rule="evenodd" d="M118.237 -95.9475C141.9 -92.5088 162.972 -83.0318 183.553 -70.8924C206.401 -57.416 235.375 -47.0362 243.746 -21.9187C252.125 3.22072 235.183 28.8631 224.949 53.3105C215.597 75.6519 205.125 97.0323 187.145 113.302C167.393 131.173 144.836 151.851 118.237 149.868C91.8932 147.903 76.9429 120.156 56.4324 103.556C37.3783 88.1342 10.7652 79.2751 2.53543 56.223C-5.75571 32.999 8.46136 9.0072 14.1097 -14.9922C20.4175 -41.7933 15.676 -75.1962 37.4497 -92.1244C59.243 -109.068 90.8906 -99.9216 118.237 -95.9475Z" fill="#FFC800" fill-opacity="0.25"/>
</svg>
