<svg width="102" height="120" viewBox="0 0 102 120" fill="none" xmlns="http://www.w3.org/2000/svg">
<path d="M51 120C79.1665 120 102 106.759 102 90.4264C102 74.0933 79.1665 60.8527 51 60.8527C22.8335 60.8527 0 74.0933 0 90.4264C0 106.759 22.8335 120 51 120Z" fill="#F0F0F0"/>
<path d="M40.4468 88.485C50.1596 88.485 58.0334 83.9196 58.0334 78.2879C58.0334 72.6562 50.1596 68.0908 40.4468 68.0908C30.734 68.0908 22.8601 72.6562 22.8601 78.2879C22.8601 83.9196 30.734 88.485 40.4468 88.485Z" fill="#E0E0E0"/>
<path d="M90.4594 89.8812L88.3963 88.6854C88.3963 88.6854 87.8919 84.25 88.2275 80.8147C88.6994 75.988 91.8037 70.1784 95.5055 71.5439C99.2072 72.9093 93.8083 77.823 92.6068 81.917C91.4054 86.0111 90.4594 89.8812 90.4594 89.8812Z" fill="#E5446D"/>
<path opacity="0.15" d="M90.4594 89.8812L88.3963 88.6854C88.3963 88.6854 87.8919 84.25 88.2275 80.8147C88.6994 75.988 91.8037 70.1784 95.5055 71.5439C99.2072 72.9093 93.8083 77.823 92.6068 81.917C91.4054 86.0111 90.4594 89.8812 90.4594 89.8812Z" fill="#222222"/>
<path d="M89.3749 89.3793C89.4078 89.3776 89.4388 89.363 89.461 89.3386C89.4833 89.3142 89.4951 89.282 89.494 89.2489C89.1324 78.5235 94.4491 73.1271 94.5011 73.0749C94.5246 73.0512 94.5378 73.0192 94.5378 72.9857C94.5378 72.9523 94.5246 72.9202 94.5011 72.8966C94.4896 72.885 94.476 72.8757 94.4609 72.8694C94.4459 72.8631 94.4297 72.8599 94.4134 72.8599C94.3971 72.8599 94.381 72.8631 94.3659 72.8694C94.3509 72.8757 94.3372 72.885 94.3257 72.8966C94.2695 72.9488 88.877 78.4235 89.2428 89.2576C89.2434 89.2743 89.2473 89.2908 89.2542 89.306C89.2612 89.3213 89.2711 89.335 89.2834 89.3463C89.2957 89.3576 89.3101 89.3664 89.3258 89.3721C89.3416 89.3777 89.3582 89.3802 89.3749 89.3793Z" fill="white"/>
<path d="M91.7561 90.6269L90.2883 89.7767C90.2883 89.7767 90.0372 86.7328 91.5244 83.0367C92.8233 79.8188 96.0272 77.1467 97.6421 77.7077C99.257 78.2686 99.2159 79.4188 98.4279 80.6255C97.6399 81.8322 92.8536 84.7043 91.7561 90.6269Z" fill="#E5446D"/>
<path d="M90.9812 90.3052C91.0143 90.3046 91.0459 90.2912 91.0694 90.2676C91.0928 90.2441 91.1062 90.2123 91.1067 90.1791C91.0764 83.3955 97.4171 78.8123 97.482 78.7666C97.4955 78.7573 97.5071 78.7453 97.5158 78.7314C97.5246 78.7175 97.5305 78.702 97.5332 78.6857C97.5358 78.6694 97.5351 78.6528 97.5311 78.6368C97.5272 78.6208 97.5201 78.6058 97.5102 78.5927C97.491 78.5658 97.4621 78.5476 97.4298 78.5419C97.3974 78.5362 97.3641 78.5435 97.337 78.5622C97.272 78.6079 90.8275 83.2694 90.8556 90.1791C90.8556 90.2125 90.8689 90.2446 90.8924 90.2682C90.9159 90.2919 90.9479 90.3052 90.9812 90.3052Z" fill="white"/>
<path d="M14.1251 87.2176L16.0301 85.9261C16.0301 85.9261 16.8679 80.9254 16.0886 76.5139C14.9932 70.3261 10.7351 68.2693 9.21973 68.9216C7.70438 69.5738 7.37967 71.4154 10.209 74.9463C11.8867 77.0227 14.0667 81.4559 14.1251 87.2176Z" fill="#E5446D"/>
<g opacity="0.15">
<path opacity="0.15" d="M14.1251 87.2176L16.0301 85.9261C16.0301 85.9261 16.8679 80.9254 16.0886 76.5139C14.9932 70.3261 10.7351 68.2693 9.21973 68.9216C7.70438 69.5738 7.37967 71.4154 10.209 74.9463C11.8867 77.0227 14.0667 81.4559 14.1251 87.2176Z" fill="#222222"/>
</g>
<path d="M14.7787 84.7391H14.7592C14.7398 84.7378 14.7208 84.7325 14.7035 84.7234C14.6863 84.7143 14.6711 84.7016 14.6591 84.6862C14.647 84.6708 14.6383 84.653 14.6336 84.6341C14.6288 84.6151 14.6281 84.5953 14.6315 84.576C15.3199 78.7513 12.8716 72.4286 10.2067 69.9131C10.1811 69.887 10.1667 69.8519 10.1667 69.8152C10.1667 69.7786 10.1811 69.7434 10.2067 69.7174C10.2194 69.7044 10.2346 69.694 10.2513 69.687C10.268 69.6799 10.286 69.6763 10.3041 69.6763C10.3223 69.6763 10.3402 69.6799 10.357 69.687C10.3737 69.694 10.3888 69.7044 10.4015 69.7174C13.1162 72.2786 15.61 78.7056 14.9129 84.6151C14.9089 84.6484 14.8931 84.6792 14.8685 84.7019C14.8439 84.7246 14.8121 84.7378 14.7787 84.7391Z" fill="white"/>
<path d="M9.1374 90.5963C8.83433 90.779 7.9511 90.1202 7.70649 89.9614C7.28725 89.6865 6.94575 89.3076 6.71502 88.8613C6.45617 88.3552 6.36011 87.7809 6.44009 87.2176C6.48443 86.9236 6.5488 86.633 6.63276 86.3479C6.70852 86.0631 6.78429 85.7783 6.84923 85.4913C6.94524 85.2121 6.98211 84.9159 6.95747 84.6216C6.87305 84.041 6.35133 83.6432 5.87508 83.3018C5.35121 82.9213 4.79269 82.4191 4.79269 81.719C4.8194 81.1689 5.02901 80.6437 5.38801 80.2275C5.71272 79.7926 6.10239 79.4143 6.39463 78.9599C6.62316 78.645 6.73979 78.2622 6.72584 77.8728C6.68821 77.6328 6.6028 77.4028 6.47473 77.1966C6.21928 76.7444 5.88807 76.3269 5.7084 75.8464C5.52872 75.3659 5.54171 74.7484 5.92487 74.3897C6.23011 74.0962 6.69553 74.0483 7.11767 74.0679C7.51544 74.1077 7.8997 74.2346 8.24335 74.4397C9.36254 75.0376 10.0206 76.3421 11.2048 76.7966C11.6615 76.9705 12.1594 77.0009 12.6335 77.1183C13.1076 77.2358 13.5968 77.4684 13.8241 77.9011C14.2723 78.7599 13.4908 79.8426 13.8112 80.7536C14.0969 81.5624 14.8935 81.8581 15.3438 82.5821C15.5266 82.9037 15.6024 83.2754 15.5603 83.6432C15.5349 84.2641 15.3962 84.875 15.1512 85.4456C14.8693 86.0374 14.5512 86.611 14.1987 87.1632C14.1987 87.1632 9.18286 90.5681 9.1374 90.5963Z" fill="#E5446D"/>
<path d="M12.0641 88.7942C12.0459 88.7939 12.0279 88.79 12.0112 88.7827C11.9945 88.7755 11.9794 88.765 11.9668 88.7519C11.9541 88.7388 11.9441 88.7233 11.9374 88.7063C11.9307 88.6893 11.9274 88.6711 11.9277 88.6528C12.0489 83.1477 9.35162 77.1295 7.44229 75.3901C7.41515 75.3655 7.39879 75.3312 7.39676 75.2945C7.39473 75.2579 7.40721 75.2219 7.43146 75.1944C7.44416 75.1814 7.45932 75.1711 7.47605 75.164C7.49277 75.157 7.51073 75.1533 7.52888 75.1533C7.54702 75.1533 7.56498 75.157 7.58171 75.164C7.59844 75.1711 7.6136 75.1814 7.62629 75.1944C9.57459 76.9555 12.326 83.0781 12.2026 88.6594C12.2024 88.6773 12.1985 88.6951 12.1914 88.7116C12.1843 88.7281 12.174 88.7431 12.1612 88.7556C12.1483 88.7681 12.1331 88.778 12.1164 88.7846C12.0998 88.7912 12.082 88.7944 12.0641 88.7942Z" fill="white"/>
<path d="M11.0532 82.0866C11.0404 82.0898 11.027 82.0898 11.0142 82.0866C9.24341 81.5734 7.04833 81.5213 7.02668 81.5191C7.00858 81.5188 6.99072 81.5149 6.97414 81.5076C6.95756 81.5003 6.94258 81.4898 6.93009 81.4767C6.9176 81.4635 6.90784 81.448 6.90138 81.431C6.89492 81.414 6.89189 81.3959 6.89246 81.3778C6.89213 81.3594 6.89558 81.3412 6.90262 81.3242C6.90966 81.3073 6.92012 81.292 6.93335 81.2793C6.94658 81.2667 6.96228 81.2569 6.97946 81.2506C6.99665 81.2444 7.01494 81.2418 7.03318 81.243C7.05482 81.243 9.28454 81.2973 11.09 81.8191C11.1249 81.8297 11.1542 81.8537 11.1716 81.8858C11.189 81.918 11.1932 81.9557 11.1831 81.9909C11.1746 82.0188 11.1574 82.0432 11.134 82.0605C11.1106 82.0777 11.0822 82.0869 11.0532 82.0866Z" fill="white"/>
<path d="M50.4328 0.0833342C50.8065 0.166842 51.1665 0.302991 51.5022 0.487739C51.8237 0.661302 52.1118 0.891012 52.353 1.16609C52.5838 1.43071 52.7551 1.74217 52.8552 2.07927C52.9574 2.44011 52.9648 2.82135 52.8769 3.18594C52.8188 3.47501 52.7048 3.74981 52.5413 3.99475C52.3921 4.20421 52.2143 4.39157 52.0131 4.55135C51.8156 4.7054 51.6048 4.84146 51.3832 4.95793L50.7597 5.29059C50.5719 5.38897 50.3936 5.5047 50.2272 5.63629C50.0766 5.7523 49.9612 5.90814 49.8938 6.08635C49.8608 6.16776 49.8061 6.23848 49.7358 6.29073C49.7025 6.31671 49.6637 6.33471 49.6225 6.34338C49.5812 6.35205 49.5385 6.35114 49.4976 6.34073L48.5798 6.13636C48.5356 6.12705 48.4937 6.10899 48.4565 6.08323C48.4193 6.05747 48.3877 6.02453 48.3633 5.98634C48.3374 5.95083 48.3202 5.90969 48.313 5.86625C48.3059 5.82281 48.309 5.7783 48.3222 5.7363C48.3961 5.4508 48.5264 5.18314 48.7053 4.94923C48.8686 4.74233 49.0578 4.55745 49.2682 4.39916C49.4732 4.24846 49.6904 4.11537 49.9176 4.00128C50.1341 3.89039 50.3506 3.78385 50.5389 3.67732C50.7141 3.58274 50.8788 3.46977 51.0303 3.34031C51.1632 3.22855 51.2554 3.07558 51.2922 2.90547C51.3267 2.75775 51.325 2.60385 51.2873 2.45694C51.2496 2.31003 51.177 2.17447 51.0758 2.06187C50.8226 1.78429 50.4843 1.59982 50.1146 1.53789C49.4305 1.38569 48.8533 1.61688 48.3828 2.23146C48.3374 2.29855 48.2801 2.35675 48.2139 2.40323C48.1392 2.44043 48.0529 2.44667 47.9736 2.42062L46.9973 2.2032C46.9277 2.18968 46.8662 2.14904 46.8263 2.09014C46.805 2.05867 46.7907 2.02296 46.7843 1.98545C46.778 1.94793 46.7798 1.90949 46.7895 1.87272C46.8725 1.5706 47.027 1.29311 47.2398 1.06391C47.4798 0.798099 47.7649 0.577244 48.0819 0.411642C48.4284 0.229529 48.802 0.104721 49.1881 0.0420244C49.6017 -0.0255525 50.0245 -0.0115213 50.4328 0.0833342ZM49.3959 7.07997C49.4818 7.10022 49.5564 7.15341 49.6037 7.22817C49.651 7.30293 49.6673 7.39333 49.6492 7.48002L49.4154 8.54539C49.4075 8.59 49.3903 8.63242 49.3649 8.66989C49.3395 8.70736 49.3066 8.73902 49.2682 8.76281C49.2319 8.78791 49.1909 8.80512 49.1477 8.81336C49.1044 8.8216 49.0599 8.82067 49.0171 8.81065L47.9693 8.56931C47.9248 8.56176 47.8824 8.54465 47.845 8.51913C47.8076 8.49362 47.7762 8.4603 47.7528 8.42146C47.7286 8.38474 47.712 8.34343 47.7042 8.30006C47.6964 8.2567 47.6975 8.21219 47.7074 8.16925L47.9433 7.10388C47.9635 7.01752 48.0164 6.94244 48.0907 6.89455C48.1651 6.84666 48.2551 6.82972 48.3417 6.84733L49.3959 7.07997Z" fill="#E5446D"/>
<path d="M51.5888 10.2824C51.8495 10.2404 52.1147 10.2353 52.3768 10.2672C52.6272 10.2971 52.8704 10.3707 53.0955 10.4846C53.3099 10.5963 53.4987 10.7519 53.6497 10.9412C53.7855 11.1265 53.8811 11.3384 53.9303 11.5631C53.9795 11.7878 53.9813 12.0203 53.9355 12.2457C53.8942 12.4191 53.8278 12.5854 53.7385 12.7393C53.6523 12.889 53.5523 13.0303 53.4397 13.1611C53.3293 13.2915 53.2233 13.4155 53.1258 13.5351C53.0305 13.6465 52.9457 13.7666 52.8726 13.8938C52.804 14.0053 52.7693 14.1346 52.773 14.2656C52.7711 14.3268 52.754 14.3866 52.7232 14.4395C52.7075 14.4639 52.6869 14.4847 52.6626 14.5004C52.6384 14.5162 52.611 14.5265 52.5825 14.5308L51.933 14.6352C51.9027 14.6407 51.8716 14.6401 51.8414 14.6334C51.8113 14.6267 51.7829 14.614 51.7577 14.5961C51.7321 14.5799 51.7107 14.5579 51.6953 14.5318C51.6799 14.5057 51.6708 14.4763 51.6689 14.4461C51.6417 14.2437 51.6565 14.0379 51.7122 13.8416C51.7631 13.6678 51.8359 13.5012 51.9287 13.3459C52.0197 13.1968 52.1241 13.0564 52.2404 12.9263C52.3552 12.7958 52.4569 12.6741 52.5565 12.5567C52.6454 12.4518 52.7224 12.3373 52.786 12.2153C52.8423 12.1103 52.8628 11.9896 52.8444 11.8718C52.8281 11.7681 52.7872 11.6698 52.725 11.5854C52.6628 11.501 52.5812 11.4329 52.4872 11.3869C52.2545 11.274 51.9911 11.2419 51.7382 11.2956C51.5093 11.3292 51.2963 11.4332 51.1285 11.5932C50.9607 11.7531 50.8462 11.9613 50.8009 12.1892C50.7882 12.244 50.7662 12.2962 50.7359 12.3436C50.6973 12.3849 50.6449 12.4104 50.5887 12.4153L49.9046 12.5262C49.8566 12.5355 49.8068 12.5253 49.7661 12.498C49.7453 12.4836 49.7277 12.4649 49.7146 12.4431C49.7016 12.4214 49.6933 12.3971 49.6903 12.3719C49.67 12.1561 49.7035 11.9387 49.7877 11.7392C49.8734 11.507 49.9994 11.292 50.1601 11.1043C50.3362 10.8987 50.5437 10.7226 50.7749 10.5825C51.0243 10.4305 51.3008 10.3286 51.5888 10.2824ZM52.7059 15.0331C52.7357 15.0283 52.7661 15.0295 52.7955 15.0366C52.8248 15.0437 52.8525 15.0566 52.8769 15.0744C52.9024 15.0912 52.9241 15.1133 52.9405 15.1392C52.9569 15.165 52.9677 15.1941 52.9721 15.2244L53.0934 15.9702C53.1028 16.0307 53.088 16.0924 53.0524 16.1421C53.0167 16.1918 52.963 16.2253 52.9029 16.2354L52.1777 16.355C52.1175 16.3644 52.056 16.3495 52.0066 16.3137C51.9815 16.2966 51.9603 16.2745 51.9442 16.2486C51.9282 16.2228 51.9178 16.1938 51.9136 16.1637L51.7923 15.4179C51.7868 15.388 51.7877 15.3573 51.7947 15.3277C51.8018 15.2981 51.815 15.2703 51.8335 15.2462C51.8505 15.2209 51.8725 15.1996 51.8983 15.1835C51.924 15.1674 51.9528 15.1569 51.9828 15.1527L52.7059 15.0331Z" fill="#E5446D"/>
<g opacity="0.2">
<path opacity="0.2" d="M51.5888 10.2824C51.8495 10.2404 52.1147 10.2353 52.3768 10.2672C52.6272 10.2971 52.8704 10.3707 53.0955 10.4846C53.3099 10.5963 53.4987 10.7519 53.6497 10.9412C53.7855 11.1265 53.8811 11.3384 53.9303 11.5631C53.9795 11.7878 53.9813 12.0203 53.9355 12.2457C53.8942 12.4191 53.8278 12.5854 53.7385 12.7393C53.6523 12.889 53.5523 13.0303 53.4397 13.1611C53.3293 13.2915 53.2233 13.4155 53.1258 13.5351C53.0305 13.6465 52.9457 13.7666 52.8726 13.8938C52.804 14.0053 52.7693 14.1346 52.773 14.2656C52.7711 14.3268 52.754 14.3866 52.7232 14.4395C52.7075 14.4639 52.6869 14.4847 52.6626 14.5004C52.6384 14.5162 52.611 14.5265 52.5825 14.5308L51.933 14.6352C51.9027 14.6407 51.8716 14.6401 51.8414 14.6334C51.8113 14.6267 51.7829 14.614 51.7577 14.5961C51.7321 14.5799 51.7107 14.5579 51.6953 14.5318C51.6799 14.5057 51.6708 14.4763 51.6689 14.4461C51.6417 14.2437 51.6565 14.0379 51.7122 13.8416C51.7631 13.6678 51.8359 13.5012 51.9287 13.3459C52.0197 13.1968 52.1241 13.0564 52.2404 12.9263C52.3552 12.7958 52.4569 12.6741 52.5565 12.5567C52.6454 12.4518 52.7224 12.3373 52.786 12.2153C52.8423 12.1103 52.8628 11.9896 52.8444 11.8718C52.8281 11.7681 52.7872 11.6698 52.725 11.5854C52.6628 11.501 52.5812 11.4329 52.4872 11.3869C52.2545 11.274 51.9911 11.2419 51.7382 11.2956C51.5093 11.3292 51.2963 11.4332 51.1285 11.5932C50.9607 11.7531 50.8462 11.9613 50.8009 12.1892C50.7882 12.244 50.7662 12.2962 50.7359 12.3436C50.6973 12.3849 50.6449 12.4104 50.5887 12.4153L49.9046 12.5262C49.8566 12.5355 49.8068 12.5253 49.7661 12.498C49.7453 12.4836 49.7277 12.4649 49.7146 12.4431C49.7016 12.4214 49.6933 12.3971 49.6903 12.3719C49.67 12.1561 49.7035 11.9387 49.7877 11.7392C49.8734 11.507 49.9994 11.292 50.1601 11.1043C50.3362 10.8987 50.5437 10.7226 50.7749 10.5825C51.0243 10.4305 51.3008 10.3286 51.5888 10.2824ZM52.7059 15.0331C52.7357 15.0283 52.7661 15.0295 52.7955 15.0366C52.8248 15.0437 52.8525 15.0566 52.8769 15.0744C52.9024 15.0912 52.9241 15.1133 52.9405 15.1392C52.9569 15.165 52.9677 15.1941 52.9721 15.2244L53.0934 15.9702C53.1028 16.0307 53.088 16.0924 53.0524 16.1421C53.0167 16.1918 52.963 16.2253 52.9029 16.2354L52.1777 16.355C52.1175 16.3644 52.056 16.3495 52.0066 16.3137C51.9815 16.2966 51.9603 16.2745 51.9442 16.2486C51.9282 16.2228 51.9178 16.1938 51.9136 16.1637L51.7923 15.4179C51.7868 15.388 51.7877 15.3573 51.7947 15.3277C51.8018 15.2981 51.815 15.2703 51.8335 15.2462C51.8505 15.2209 51.8725 15.1996 51.8983 15.1835C51.924 15.1674 51.9528 15.1569 51.9828 15.1527L52.7059 15.0331Z" fill="#222222"/>
</g>
<path d="M57.7108 11.455C57.7403 11.4756 57.7653 11.5021 57.7843 11.5327C57.8033 11.5634 57.8159 11.5976 57.8212 11.6333C57.8281 11.6687 57.8276 11.7051 57.8198 11.7403C57.812 11.7754 57.797 11.8086 57.7758 11.8377L57.2605 12.566C57.24 12.5957 57.2137 12.6208 57.1832 12.6399C57.1527 12.6589 57.1186 12.6715 57.083 12.6769C57.0478 12.6838 57.0115 12.6834 56.9765 12.6755C56.9415 12.6676 56.9085 12.6526 56.8795 12.6313L56.1695 12.1247C56.1399 12.1043 56.115 12.0779 56.0963 12.0472C56.0777 12.0165 56.0657 11.9821 56.0613 11.9464C56.0544 11.911 56.0549 11.8746 56.0627 11.8394C56.0705 11.8042 56.0855 11.7711 56.1067 11.742L56.6284 11.0137C56.6706 10.9546 56.7343 10.9147 56.8056 10.9024C56.8769 10.8902 56.9502 10.9068 57.0094 10.9484L57.7108 11.455ZM60.7069 6.52172C60.9658 6.70395 61.1963 6.92377 61.3909 7.17398C61.5808 7.40673 61.7274 7.67185 61.8239 7.9567C61.9137 8.22967 61.944 8.51887 61.9127 8.80464C61.876 9.10939 61.7611 9.39933 61.5793 9.64607C61.4442 9.84557 61.2704 10.0157 61.0684 10.1461C60.8906 10.2581 60.6973 10.3431 60.4947 10.3983C60.2974 10.4501 60.0961 10.4851 59.8929 10.5027L59.3171 10.5549C59.1444 10.5688 58.9734 10.5986 58.8062 10.644C58.652 10.6792 58.5108 10.7576 58.3992 10.8702C58.3488 10.9216 58.2851 10.9577 58.2152 10.9745C58.182 10.9841 58.147 10.9855 58.1131 10.9787C58.0792 10.9719 58.0474 10.9571 58.0204 10.9354L57.3926 10.4875C57.3326 10.4445 57.2915 10.3798 57.2779 10.307C57.2698 10.2718 57.2701 10.2351 57.2787 10.2C57.2874 10.1648 57.3041 10.1322 57.3277 10.1048C57.4743 9.9137 57.6576 9.75402 57.8667 9.6352C58.0549 9.53194 58.2558 9.45374 58.4642 9.40255C58.6653 9.35355 58.8703 9.32227 59.0768 9.30906C59.2803 9.29602 59.4708 9.2808 59.6483 9.2634C59.8107 9.249 59.9712 9.21692 60.1267 9.16774C60.2627 9.12223 60.38 9.03279 60.4601 8.91336C60.5324 8.81251 60.5795 8.6956 60.5972 8.57257C60.6149 8.44954 60.6028 8.32404 60.5618 8.20673C60.4594 7.91695 60.2636 7.6698 60.0055 7.50446C59.5379 7.16963 59.0277 7.15876 58.475 7.47185C58.4194 7.50741 58.3577 7.53246 58.2931 7.54577C58.2595 7.54812 58.2257 7.54376 58.1938 7.53294C58.1618 7.52212 58.1323 7.50505 58.107 7.48272L57.4402 7.00657C57.4161 6.99047 57.3954 6.96966 57.3794 6.94539C57.3634 6.92111 57.3524 6.89386 57.3471 6.86524C57.342 6.83566 57.3429 6.80531 57.35 6.77612C57.3571 6.74693 57.3701 6.71953 57.3883 6.69565C57.5456 6.49321 57.75 6.33269 57.9836 6.2282C58.2489 6.10746 58.5331 6.0339 58.8235 6.01078C59.143 5.98396 59.4647 6.00966 59.776 6.08687C60.112 6.16819 60.4285 6.31602 60.7069 6.52172Z" fill="#E5446D"/>
<g opacity="0.6">
<path opacity="0.6" d="M57.7108 11.455C57.7403 11.4756 57.7653 11.5021 57.7843 11.5327C57.8033 11.5634 57.8159 11.5976 57.8212 11.6333C57.8281 11.6687 57.8276 11.7051 57.8198 11.7403C57.812 11.7754 57.797 11.8086 57.7758 11.8377L57.2605 12.566C57.24 12.5957 57.2137 12.6208 57.1832 12.6399C57.1527 12.6589 57.1186 12.6715 57.083 12.6769C57.0478 12.6838 57.0115 12.6834 56.9765 12.6755C56.9415 12.6676 56.9085 12.6526 56.8795 12.6313L56.1695 12.1247C56.1399 12.1043 56.115 12.0779 56.0963 12.0472C56.0777 12.0165 56.0657 11.9821 56.0613 11.9464C56.0544 11.911 56.0549 11.8746 56.0627 11.8394C56.0705 11.8042 56.0855 11.7711 56.1067 11.742L56.6284 11.0137C56.6706 10.9546 56.7343 10.9147 56.8056 10.9024C56.8769 10.8902 56.9502 10.9068 57.0094 10.9484L57.7108 11.455ZM60.7069 6.52172C60.9658 6.70395 61.1963 6.92377 61.3909 7.17398C61.5808 7.40673 61.7274 7.67185 61.8239 7.9567C61.9137 8.22967 61.944 8.51887 61.9127 8.80464C61.876 9.10939 61.7611 9.39933 61.5793 9.64607C61.4442 9.84557 61.2704 10.0157 61.0684 10.1461C60.8906 10.2581 60.6973 10.3431 60.4947 10.3983C60.2974 10.4501 60.0961 10.4851 59.8929 10.5027L59.3171 10.5549C59.1444 10.5688 58.9734 10.5986 58.8062 10.644C58.652 10.6792 58.5108 10.7576 58.3992 10.8702C58.3488 10.9216 58.2851 10.9577 58.2152 10.9745C58.182 10.9841 58.147 10.9855 58.1131 10.9787C58.0792 10.9719 58.0474 10.9571 58.0204 10.9354L57.3926 10.4875C57.3326 10.4445 57.2915 10.3798 57.2779 10.307C57.2698 10.2718 57.2701 10.2351 57.2787 10.2C57.2874 10.1648 57.3041 10.1322 57.3277 10.1048C57.4743 9.9137 57.6576 9.75402 57.8667 9.6352C58.0549 9.53194 58.2558 9.45374 58.4642 9.40255C58.6653 9.35355 58.8703 9.32227 59.0768 9.30906C59.2803 9.29602 59.4708 9.2808 59.6483 9.2634C59.8107 9.249 59.9712 9.21692 60.1267 9.16774C60.2627 9.12223 60.38 9.03279 60.4601 8.91336C60.5324 8.81251 60.5795 8.6956 60.5972 8.57257C60.6149 8.44954 60.6028 8.32404 60.5618 8.20673C60.4594 7.91695 60.2636 7.6698 60.0055 7.50446C59.5379 7.16963 59.0277 7.15876 58.475 7.47185C58.4194 7.50741 58.3577 7.53246 58.2931 7.54577C58.2595 7.54812 58.2257 7.54376 58.1938 7.53294C58.1618 7.52212 58.1323 7.50505 58.107 7.48272L57.4402 7.00657C57.4161 6.99047 57.3954 6.96966 57.3794 6.94539C57.3634 6.92111 57.3524 6.89386 57.3471 6.86524C57.342 6.83566 57.3429 6.80531 57.35 6.77612C57.3571 6.74693 57.3701 6.71953 57.3883 6.69565C57.5456 6.49321 57.75 6.33269 57.9836 6.2282C58.2489 6.10746 58.5331 6.0339 58.8235 6.01078C59.143 5.98396 59.4647 6.00966 59.776 6.08687C60.112 6.16819 60.4285 6.31602 60.7069 6.52172Z" fill="white"/>
</g>
<path d="M41.5897 30.7003H33.8982V11.9846C33.8982 10.359 34.5412 8.80008 35.6856 7.65065C36.83 6.50121 38.3822 5.85547 40.0007 5.85547H40.7108C42.3293 5.85547 43.8815 6.50121 45.0259 7.65065C46.1703 8.80008 46.8133 10.359 46.8133 11.9846V25.4647C46.8104 26.8543 46.2588 28.1859 45.2795 29.1675C44.3002 30.149 42.9732 30.7003 41.5897 30.7003Z" fill="#263238"/>
<path d="M33.1492 75.7568C33.0131 76.5323 32.9407 77.3176 32.9327 78.105C32.9046 79.5313 32.6448 80.0379 32.6102 81.2076C32.569 82.5447 32.8007 83.0448 33.3397 83.7971C33.8787 84.5494 35.288 85.2299 35.8985 83.9602C36.5089 82.6904 36.4202 81.8577 36.2275 80.5466C36.0305 79.1899 36.011 78.4398 35.8898 77.4071C35.7902 76.4961 35.6733 75.8025 35.6733 75.8025L33.1492 75.7568Z" fill="#263238"/>
<path d="M37.1801 66.284L32.5042 66.1992C32.5734 69.3344 33.0692 72.8154 33.1536 75.7658C33.1709 76.3202 33.1406 80.0686 33.3484 81.2013C33.6623 82.9146 35.6842 82.682 35.7924 81.6579C35.9007 80.6338 35.6626 76.2571 35.6691 75.8049C35.6496 73.9177 36.535 70.7325 36.9917 67.345C37.0112 67.182 37.1584 66.4471 37.1801 66.284Z" fill="#FFA8A7"/>
<path d="M43.1873 73.3173C43.1873 73.3173 43.0033 73.2173 42.9708 73.4151C42.9254 73.6499 42.8561 74.1348 42.7543 74.5218C42.6201 75.0588 42.5076 75.9437 42.5877 76.3829C42.6678 76.8221 43.6852 77.3831 44.3455 77.5874C45.1592 77.8397 45.9013 78.2831 46.5102 78.8811C47.1597 79.4986 48.5733 80.0813 49.5409 80.0747C50.6774 80.0747 51.4697 79.6942 51.8442 79.0833C52.2188 78.4723 51.5022 78.3984 50.2033 77.5613L49.1967 76.9091C47.138 75.5589 46.3825 74.837 45.8045 73.4869L43.1873 73.3173Z" fill="#263238"/>
<path d="M45.8218 72.4807C45.7872 71.511 46.4539 63.2686 46.4539 63.2686L42.014 65.3014C42.9643 71.0022 43.1678 72.3481 43.183 73.2808C43.1635 73.359 43.1555 73.4395 43.1591 73.52C43.1591 74.6267 44.4082 75.2246 45.378 75.9638C46.2025 76.6125 47.081 77.1886 48.0039 77.6858C48.7096 78.0402 50.1427 78.0728 50.3202 77.6184C49.1383 76.7117 47.4194 75.355 46.4799 74.3201C46.021 73.8331 45.8565 73.4526 45.8218 72.4807Z" fill="#FFA8A7"/>
<path d="M34.42 35.6904C32.7141 39.4497 32.7141 42.3588 32.9977 47.1573C33.2488 51.56 33.6666 55.441 33.6666 55.441C33.6017 56.2216 32.5215 57.7457 32.3808 61.1984C32.2509 64.4249 32.5972 68.5276 32.5972 68.5276C32.5972 68.5276 35.024 69.8778 36.8186 68.5146C36.8186 68.5146 38.5504 60.2113 39.0569 56.1716C39.4899 52.6472 40.2692 48.1443 40.2692 48.1443L41.908 56.1476C41.5543 57.2832 41.2979 58.447 41.1416 59.6264C40.9122 62.0028 42.237 66.6687 42.237 66.6687C42.237 66.6687 44.7438 67.4188 46.2743 66.0556C46.2743 66.0556 46.8458 58.4697 47.0601 55.6084C47.3459 51.7753 46.7441 41.3999 46.2743 35.9057L34.42 35.6904Z" fill="#455A64"/>
<path d="M40.2735 48.1378L40.9467 42.1065C40.9467 42.1065 43.9644 41.7021 45.3326 40.4106C44.941 41.026 44.4194 41.5471 43.8047 41.9372C43.19 42.3272 42.4973 42.5766 41.7759 42.6675L40.8017 48.2791L41.9079 56.1476L40.2735 48.1378Z" fill="#263238"/>
<path d="M52.4938 34.2078C52.6185 33.1071 52.6734 31.9997 52.6583 30.8921C52.5912 29.9354 52.4202 29.7789 51.0889 28.0852C49.2921 25.7957 47.7573 23.7367 46.1337 21.6908C44.9734 20.2297 43.7524 20.0058 42.5661 20.071C41.7349 20.1166 43.3585 24.1324 44.1746 26.5088L48.8353 31.5487C48.9797 31.7476 49.046 31.993 49.0215 32.2379L48.7401 36.5255L50.1364 38.404C50.1364 38.404 52.2514 36.5733 52.4938 34.2078Z" fill="#FFA8A7"/>
<path d="M38.0719 20.2012C37.1692 20.2643 35.5283 20.4186 35.5283 20.4186C34.5823 20.9492 34.342 21.3862 34.1666 22.6472C34.0909 23.1864 34.5281 24.6192 34.9027 26.6565L35.6127 30.4331L35.5348 32.3073C35.1668 33.4509 34.3333 34.8707 33.5973 36.9644C37.2125 38.9908 40.2432 39.0669 42.9924 38.7038C45.0879 38.432 46.1985 37.9233 46.5686 37.4188C46.4907 35.3512 46.3522 34.0727 46.3089 31.9116C46.2937 31.0049 46.3478 30.0874 46.3846 29.0438C47.7896 27.8827 47.8069 25.952 47.0341 24.6953C45.2525 21.7971 43.5185 19.9729 42.3711 20.0664L38.0719 20.2012Z" fill="#E5446D"/>
<path opacity="0.6" d="M38.0719 20.2012C37.1692 20.2643 35.5283 20.4186 35.5283 20.4186C34.5823 20.9492 34.342 21.3862 34.1666 22.6472C34.0909 23.1864 34.5281 24.6192 34.9027 26.6565L35.6127 30.4331L35.5348 32.3073C35.1668 33.4509 34.3333 34.8707 33.5973 36.9644C37.2125 38.9908 40.2432 39.0669 42.9924 38.7038C45.0879 38.432 46.1985 37.9233 46.5686 37.4188C46.4907 35.3512 46.3522 34.0727 46.3089 31.9116C46.2937 31.0049 46.3478 30.0874 46.3846 29.0438C47.7896 27.8827 47.8069 25.952 47.0341 24.6953C45.2525 21.7971 43.5185 19.9729 42.3711 20.0664L38.0719 20.2012Z" fill="white"/>
<path opacity="0.1" d="M43.5857 29.0717C43.5857 29.0717 41.9361 30.3589 40.0506 29.687C39.5211 29.5195 39.0437 29.2175 38.6644 28.8103C38.2852 28.4031 38.017 27.9046 37.8858 27.3628C37.8858 27.3628 37.6867 29.5261 40.0614 30.2632C42.3626 30.9742 43.5857 29.0717 43.5857 29.0717Z" fill="#222222"/>
<path d="M45.8241 14.2636C45.7527 17.4032 44.7417 18.1772 44.2308 18.3946C43.7199 18.612 42.7414 18.4816 41.7889 18.3229V20.2188C41.7889 20.2188 42.8887 21.3755 42.8064 22.2386C42.7241 23.1018 41.0746 23.1996 39.845 22.3539C39.1665 21.8858 38.5529 21.3294 38.0201 20.6993C37.9178 20.5777 37.8618 20.4236 37.862 20.2644V15.829C37.862 15.829 37.3403 16.3835 36.4181 15.7486C36.2192 15.621 36.0488 15.4533 35.9178 15.2561C35.7869 15.0588 35.6982 14.8363 35.6575 14.6028C35.6168 14.3693 35.6249 14.1298 35.6813 13.8996C35.7377 13.6694 35.8412 13.4535 35.9852 13.2656C36.3878 12.7895 37.4096 12.7569 37.8988 13.483C38.1759 14.0244 38.2127 14.5702 38.5223 14.3527C39.3449 13.757 38.9033 12.3959 39.8969 11.7437C40.223 11.5727 40.5617 11.4274 40.91 11.3088C42.683 10.6935 44.22 10.1761 44.5902 8.9585C45.2872 9.35855 45.9107 10.5609 45.8241 14.2636Z" fill="#FFA8A7"/>
<path d="M42.3278 17.0684C42.5549 17.0684 42.7391 16.8834 42.7391 16.6553C42.7391 16.4271 42.5549 16.2422 42.3278 16.2422C42.1006 16.2422 41.9165 16.4271 41.9165 16.6553C41.9165 16.8834 42.1006 17.0684 42.3278 17.0684Z" fill="#B16668"/>
<path d="M42.0551 13.7874C42.055 13.8725 42.03 13.9557 41.9834 14.0266C41.9367 14.0976 41.8703 14.1532 41.7924 14.1867C41.7146 14.2201 41.6287 14.2299 41.5453 14.2148C41.462 14.1997 41.3849 14.1604 41.3235 14.1018C41.2622 14.0431 41.2194 13.9677 41.2003 13.8848C41.1812 13.8019 41.1868 13.7153 41.2163 13.6355C41.2457 13.5558 41.2978 13.4865 41.3661 13.4362C41.4344 13.3859 41.5159 13.3568 41.6005 13.3526C41.6591 13.3496 41.7178 13.3587 41.7728 13.3792C41.8279 13.3998 41.8782 13.4313 41.9207 13.472C41.9632 13.5127 41.9971 13.5616 42.0202 13.6159C42.0433 13.6701 42.0552 13.7285 42.0551 13.7874Z" fill="#263238"/>
<path d="M45.3347 13.8309C45.3391 13.8841 45.333 13.9377 45.3166 13.9885C45.3002 14.0392 45.2739 14.0862 45.2393 14.1267C45.2046 14.1672 45.1623 14.2003 45.1147 14.2242C45.0672 14.2481 45.0154 14.2622 44.9624 14.2658C44.9089 14.2707 44.8549 14.2642 44.8041 14.2466C44.7533 14.229 44.7068 14.2008 44.6677 14.1638C44.6286 14.1268 44.5978 14.0818 44.5773 14.0319C44.5568 13.9821 44.5471 13.9284 44.5489 13.8744C44.5433 13.8208 44.5487 13.7667 44.5647 13.7152C44.5807 13.6638 44.607 13.6162 44.6419 13.5753C44.6769 13.5345 44.7198 13.5012 44.768 13.4776C44.8162 13.4539 44.8687 13.4405 44.9223 13.4379C44.9759 13.4354 45.0294 13.4439 45.0796 13.4629C45.1298 13.4819 45.1757 13.511 45.2143 13.5484C45.2529 13.5858 45.2835 13.6307 45.3042 13.6804C45.3249 13.7301 45.3353 13.7836 45.3347 13.8375V13.8309Z" fill="#263238"/>
<path d="M41.4989 14.9045C41.1255 14.9045 40.7674 14.7557 40.5031 14.4907C40.2389 14.2258 40.0902 13.8663 40.0896 13.4913C40.0896 12.5303 41.0767 12.5303 41.4989 12.5303C41.921 12.5303 42.906 12.5303 42.906 13.4913C42.9054 13.8659 42.757 14.225 42.4932 14.49C42.2295 14.7549 41.8719 14.9039 41.4989 14.9045ZM41.4989 12.752C40.633 12.752 40.3126 12.9695 40.3126 13.4913C40.3126 13.8084 40.438 14.1126 40.6613 14.3369C40.8846 14.5611 41.1874 14.6871 41.5032 14.6871C41.819 14.6871 42.1218 14.5611 42.3451 14.3369C42.5684 14.1126 42.6938 13.8084 42.6938 13.4913C42.6852 12.9586 42.3518 12.752 41.4989 12.752Z" fill="#455A64"/>
<path d="M45.0729 14.9045C44.6995 14.9045 44.3414 14.7557 44.0772 14.4907C43.8129 14.2258 43.6642 13.8663 43.6636 13.4913C43.6636 12.5303 44.6508 12.5303 45.0729 12.5303C45.495 12.5303 46.48 12.5303 46.48 13.4913C46.4794 13.8659 46.331 14.225 46.0672 14.49C45.8035 14.7549 45.4459 14.9039 45.0729 14.9045ZM45.0729 12.752C44.22 12.752 43.8866 12.9695 43.8866 13.4913C43.8866 13.8084 44.012 14.1126 44.2353 14.3369C44.4586 14.5611 44.7615 14.6871 45.0772 14.6871C45.393 14.6871 45.6958 14.5611 45.9191 14.3369C46.1424 14.1126 46.2679 13.8084 46.2679 13.4913C46.2592 12.9586 45.9258 12.752 45.0729 12.752Z" fill="#455A64"/>
<path d="M43.1245 13.0352L43.1938 15.6768L44.577 15.2463L43.1245 13.0352Z" fill="#F28F8F"/>
<path d="M41.7867 18.329C40.7822 18.1964 38.7149 17.6007 38.3923 16.7788C38.5221 17.1942 38.7751 17.5598 39.1175 17.8268C39.7345 18.3595 41.7867 18.9574 41.7867 18.9574V18.329Z" fill="#F28F8F"/>
<path d="M41.8365 11.7522L40.9187 12.3154C40.8463 12.1888 40.8253 12.0391 40.86 11.8974C40.8947 11.7557 40.9823 11.6328 41.1048 11.5544C41.1654 11.5175 41.2328 11.4933 41.3029 11.4833C41.373 11.4733 41.4444 11.4776 41.5128 11.4961C41.5812 11.5146 41.6452 11.5468 41.7008 11.5909C41.7564 11.6349 41.8026 11.6898 41.8365 11.7522Z" fill="#263238"/>
<path d="M45.5707 12.3782L44.5489 12.0195C44.5687 11.9515 44.6021 11.8882 44.6471 11.8337C44.6921 11.7791 44.7478 11.7343 44.8106 11.7022C44.8735 11.67 44.9422 11.6511 45.0126 11.6466C45.083 11.6421 45.1536 11.652 45.22 11.6759C45.357 11.7254 45.4699 11.8259 45.5352 11.9566C45.6005 12.0874 45.6132 12.2383 45.5707 12.3782Z" fill="#263238"/>
<path d="M42.7954 13.6048C42.7807 13.6048 42.7662 13.6018 42.7527 13.5961C42.7391 13.5904 42.7269 13.5821 42.7166 13.5715C42.7063 13.561 42.6982 13.5485 42.6928 13.5348C42.6874 13.5211 42.6847 13.5065 42.685 13.4917C42.685 13.3113 43.04 13.1938 43.3604 13.1938C43.6808 13.1938 43.8865 13.3113 43.8865 13.4917C43.8798 13.5153 43.8656 13.5361 43.846 13.5509C43.8265 13.5657 43.8027 13.5737 43.7782 13.5737C43.7538 13.5737 43.73 13.5657 43.7104 13.5509C43.6909 13.5361 43.6767 13.5153 43.67 13.4917C43.67 13.47 43.5596 13.4156 43.3669 13.4156C43.2118 13.4123 43.0575 13.4389 42.9123 13.4939C42.9123 13.509 42.9093 13.524 42.9033 13.5379C42.8974 13.5518 42.8887 13.5643 42.8777 13.5747C42.8668 13.5851 42.8538 13.5931 42.8397 13.5983C42.8255 13.6035 42.8105 13.6057 42.7954 13.6048Z" fill="#455A64"/>
<path d="M40.2042 13.509H40.1912L37.7169 13.2916C37.6012 13.1765 37.4635 13.0863 37.312 13.0264L40.2172 13.296C40.2463 13.2998 40.2728 13.3149 40.291 13.338C40.3092 13.3612 40.3177 13.3906 40.3146 13.4199C40.3095 13.4454 40.2957 13.4683 40.2755 13.4846C40.2553 13.5009 40.2301 13.5095 40.2042 13.509Z" fill="#455A64"/>
<path d="M30.0449 16.101C30.8545 15.0139 31.4065 14.1942 32.1447 13.2745C32.5647 12.7462 32.8331 12.3679 33.2271 11.8265C33.5042 11.4525 33.66 11.1372 33.9761 11.022C34.3176 10.8815 34.6253 10.6695 34.8788 10.4002C35.0346 10.227 35.1793 10.044 35.3118 9.85228C35.7758 9.22503 36.3269 8.66784 36.9483 8.1977C37.5978 7.70633 38.323 7.32801 38.9919 6.86056C39.3902 6.58008 39.8167 6.1148 39.3318 5.67996C39.183 5.55416 39.0051 5.46815 38.8144 5.42992C37.6346 5.17337 36.6085 5.57994 35.4546 5.87564C34.9535 6.00128 34.4633 6.16779 33.9891 6.37353C33.7558 6.46618 33.5371 6.59213 33.3397 6.7475C33.0636 7.02705 32.8373 7.3521 32.6707 7.7085C32.1664 8.61298 31.084 9.42179 30.3263 10.1371C29.4409 10.9742 28.6486 11.7417 27.6376 12.6635C26.7284 13.4963 25.8387 14.2616 25.0053 15.1704C24.3147 15.9205 24.5723 16.5076 24.6632 16.7119C25.2261 17.873 25.856 18.2904 26.6115 19.0101C27.9104 20.2559 32.4023 23.8412 33.8895 25.0261C34.2091 25.2782 34.46 25.6073 34.619 25.9828L34.9048 26.6459C36.602 26.959 37.7342 24.4 36.3292 21.3191C36.0966 20.8209 35.7411 20.3906 35.2966 20.0689C33.5215 18.7709 30.0449 16.101 30.0449 16.101Z" fill="#FFA8A7"/>
<path d="M30.0449 16.1006C29.5047 16.768 28.7848 17.2654 27.9711 17.5334C27.9711 17.5334 29.0535 17.8117 30.5363 16.4746L30.0449 16.1006Z" fill="#F28F8F"/>
<path d="M52.0521 31.94L51.775 31.7008C51.7336 31.6734 51.6864 31.6562 51.6371 31.6505C51.5878 31.6448 51.5379 31.6509 51.4914 31.6682L48.4845 32.49C48.3331 32.5408 48.1943 32.6237 48.0777 32.7333C47.9612 32.8429 47.8695 32.9765 47.8091 33.1249L45.6444 39.3932C45.6183 39.4443 45.6081 39.502 45.615 39.559C45.6219 39.616 45.6457 39.6695 45.6833 39.7128L45.9691 39.9606C46.0107 39.9894 46.0586 40.0076 46.1088 40.0137C46.1589 40.0198 46.2098 40.0135 46.257 39.9954L49.2682 39.1736C49.4197 39.1229 49.5584 39.0399 49.675 38.9303C49.7916 38.8207 49.8832 38.6871 49.9436 38.5387C50.3766 37.3059 51.6754 33.5032 52.1084 32.2704C52.1603 32.1161 52.1344 31.9987 52.0521 31.94Z" fill="#455A64"/>
<path d="M45.9279 39.6348L48.0927 33.3665C48.1528 33.2182 48.2444 33.0847 48.361 32.9755C48.4777 32.8662 48.6165 32.7838 48.7681 32.7338L51.7728 31.9119C52.052 31.8358 52.2057 31.9967 52.1062 32.2707C51.6732 33.5035 50.3743 37.3062 49.9414 38.539C49.881 38.6874 49.7893 38.821 49.6728 38.9305C49.5562 39.0401 49.4174 39.1231 49.266 39.1738L46.2613 40.0044C45.9842 40.0696 45.8348 39.9087 45.9279 39.6348Z" fill="#455A64"/>
<path d="M48.4411 32.9074C48.2848 33.0263 48.1636 33.1856 48.0904 33.3683L45.9256 39.6344C45.9009 39.6842 45.8905 39.74 45.8959 39.7954C45.9013 39.8507 45.9221 39.9035 45.956 39.9475L45.6875 39.7171C45.6491 39.6743 45.6245 39.6208 45.6172 39.5637C45.6098 39.5066 45.62 39.4486 45.6464 39.3974L47.8112 33.1292C47.8796 32.9588 47.9907 32.809 48.1337 32.6943L48.4411 32.9074Z" fill="#37474F"/>
<path d="M51.2272 34.797C51.0107 35.434 50.2596 35.8602 49.017 36.1559C47.7744 36.4516 47.0882 37.7757 47.2852 38.1779C47.4822 38.5801 49.4911 38.9563 50.2942 38.841C51.0973 38.7258 51.9026 37.5604 52.1473 37.1995C52.3919 36.8386 52.6733 34.3208 52.4157 33.9751C52.1581 33.6294 51.6147 33.6838 51.6147 33.6838L51.2272 34.797Z" fill="#FFA8A7"/>
<path d="M55.6479 88.7529C55.8555 88.7335 56.0142 88.7438 56.1334 88.7844C56.5776 88.9361 57.13 88.9145 57.4608 88.7227C57.7915 88.531 57.8398 88.2043 57.578 87.9466C57.5084 87.8777 57.4904 87.7856 57.5238 87.6651C57.5643 87.5183 57.4669 87.3839 57.2696 87.3144C57.0322 87.2307 56.6506 87.2552 56.3607 87.4233C56.2381 87.4943 56.1532 87.58 56.1151 87.671C56.0901 87.7315 56.023 87.7948 55.942 87.8418C55.8611 87.8887 55.7633 87.9211 55.6581 87.9362C55.5005 87.9583 55.3532 88.0071 55.2318 88.0775C54.9421 88.2455 54.8977 88.467 55.0428 88.6055C55.1628 88.7199 55.3948 88.7763 55.6479 88.7529Z" fill="#616161"/>
<path d="M58.3007 88.2358C58.4925 88.347 58.9497 88.4362 59.1296 88.3319C59.3094 88.2276 59.1556 87.9625 58.9638 87.8513C58.781 87.7453 58.4834 87.7453 58.3007 87.8513C58.1179 87.9573 58.1179 88.1298 58.3007 88.2358Z" fill="#616161"/>
<path d="M56.7976 89.6841C56.9774 89.5798 56.8236 89.3147 56.6318 89.2034C56.449 89.0975 56.1514 89.0975 55.9687 89.2035C55.7859 89.3094 55.7859 89.482 55.9687 89.5879C56.1605 89.6992 56.6177 89.7884 56.7976 89.6841Z" fill="#616161"/>
<path d="M57.958 89.2035C57.7752 89.0975 57.4777 89.0975 57.2949 89.2034C57.1121 89.3094 57.1121 89.482 57.2949 89.588C57.4868 89.6992 57.9439 89.7884 58.1238 89.6841C58.3037 89.5798 58.1499 89.3147 57.958 89.2035Z" fill="#616161"/>
<path d="M58.3006 88.6207C58.1179 88.7267 58.1179 88.8992 58.3007 89.0052C58.4925 89.1164 58.9497 89.2056 59.1295 89.1013C59.3094 88.997 59.1557 88.7319 58.9638 88.6207C58.781 88.5147 58.4834 88.5147 58.3006 88.6207Z" fill="#616161"/>
<path d="M28.5353 91.2309C28.6859 91.3637 28.7727 91.4894 28.8011 91.6154C28.9062 92.0855 29.273 92.4678 29.6935 92.5244C30.114 92.581 30.5108 92.3015 30.6378 91.8624C30.6721 91.7453 30.7644 91.6435 30.9204 91.5517C31.1104 91.4399 31.2009 91.2395 31.1566 91.0286C31.1034 90.7748 30.8393 90.52 30.4707 90.4704C30.3149 90.4494 30.166 90.47 30.0402 90.5298C29.9567 90.5698 29.844 90.5818 29.741 90.568C29.6382 90.5541 29.5411 90.5141 29.4589 90.4518C29.3364 90.3581 29.1903 90.2977 29.0359 90.2769C28.6676 90.2273 28.3913 90.4083 28.3257 90.6475C28.2716 90.8453 28.3521 91.0689 28.5353 91.2309Z" fill="#616161"/>
<path d="M30.7614 92.6684C30.7554 92.9154 30.9388 93.3349 31.1674 93.3656C31.3961 93.3964 31.5984 93.0289 31.6044 92.7818C31.6101 92.5464 31.4255 92.3294 31.1932 92.2981C30.9608 92.2668 30.7671 92.433 30.7614 92.6684Z" fill="#616161"/>
<path d="M28.2028 92.9662C28.4314 92.997 28.6338 92.6295 28.6397 92.3824C28.6454 92.147 28.4609 91.9299 28.2285 91.8987C27.9962 91.8674 27.8024 92.0336 27.7967 92.2689C27.7908 92.516 27.9741 92.9354 28.2028 92.9662Z" fill="#616161"/>
<path d="M29.4623 93.3501C29.468 93.1147 29.2835 92.8976 29.0511 92.8663C28.8187 92.835 28.625 93.0012 28.6193 93.2367C28.6133 93.4837 28.7967 93.9031 29.0254 93.9339C29.254 93.9646 29.4564 93.5972 29.4623 93.3501Z" fill="#616161"/>
<path d="M30.3295 93.0382C30.0972 93.0069 29.9034 93.1731 29.8977 93.4085C29.8918 93.6556 30.0752 94.075 30.3038 94.1057C30.5325 94.1365 30.7349 93.7691 30.7408 93.522C30.7465 93.2865 30.562 93.0695 30.3295 93.0382Z" fill="#616161"/>
<path d="M34.6922 98.0321C34.8428 98.1649 34.9296 98.2906 34.9579 98.4165C35.063 98.8867 35.4298 99.2689 35.8504 99.3255C36.2708 99.3821 36.6677 99.1027 36.7947 98.6635C36.8289 98.5464 36.9212 98.4446 37.0773 98.3529C37.2673 98.241 37.3578 98.0406 37.3135 97.8297C37.2603 97.576 36.9961 97.3211 36.6276 97.2715C36.4718 97.2505 36.3228 97.2711 36.1971 97.3309C36.1135 97.371 36.0009 97.383 35.8979 97.3691C35.795 97.3553 35.6979 97.3152 35.6158 97.2529C35.4933 97.1593 35.3471 97.0988 35.1927 97.078C34.8244 97.0284 34.5481 97.2094 34.4826 97.4487C34.4285 97.6464 34.509 97.87 34.6922 98.0321Z" fill="#616161"/>
<path d="M36.9182 99.4694C36.9123 99.7165 37.0956 100.136 37.3243 100.167C37.5529 100.197 37.7553 99.8299 37.7613 99.5828C37.7669 99.3475 37.5824 99.1304 37.35 99.0991C37.1177 99.0678 36.9239 99.234 36.9182 99.4694Z" fill="#616161"/>
<path d="M34.3596 99.7672C34.5883 99.798 34.7906 99.4305 34.7966 99.1834C34.8023 98.948 34.6177 98.731 34.3854 98.6997C34.153 98.6684 33.9593 98.8346 33.9536 99.07C33.9476 99.317 34.131 99.7365 34.3596 99.7672Z" fill="#616161"/>
<path d="M35.619 100.151C35.6247 99.9157 35.4402 99.6986 35.2078 99.6673C34.9754 99.6361 34.7817 99.8022 34.776 100.038C34.77 100.285 34.9534 100.704 35.1821 100.735C35.4107 100.766 35.6131 100.398 35.619 100.151Z" fill="#616161"/>
<path d="M36.4864 99.8393C36.254 99.8081 36.0603 99.9742 36.0546 100.21C36.0486 100.457 36.232 100.876 36.4607 100.907C36.6893 100.938 36.8917 100.57 36.8977 100.323C36.9034 100.088 36.7188 99.8706 36.4864 99.8393Z" fill="#616161"/>
<path d="M26.6572 102.738C26.8012 102.863 26.8829 102.983 26.9075 103.104C26.9985 103.558 27.3477 103.92 27.7577 103.964C28.1676 104.008 28.5629 103.727 28.6983 103.297C28.7347 103.183 28.8276 103.082 28.9826 102.989C29.1713 102.875 29.2649 102.679 29.2269 102.475C29.1812 102.23 28.9292 101.99 28.5699 101.951C28.418 101.935 28.2718 101.958 28.1472 102.02C28.0645 102.061 27.9539 102.075 27.8536 102.064C27.7532 102.053 27.6593 102.017 27.5805 101.959C27.463 101.871 27.3215 101.816 27.171 101.8C26.8119 101.761 26.537 101.944 26.4669 102.177C26.4089 102.371 26.482 102.586 26.6572 102.738Z" fill="#616161"/>
<path d="M28.7988 104.076C28.7867 104.316 28.9555 104.719 29.1785 104.743C29.4014 104.767 29.6086 104.405 29.6207 104.165C29.6322 103.936 29.4571 103.73 29.2306 103.706C29.004 103.682 28.8103 103.848 28.7988 104.076Z" fill="#616161"/>
<path d="M26.2879 104.431C26.5108 104.455 26.7181 104.093 26.7301 103.853C26.7416 103.625 26.5666 103.419 26.34 103.394C26.1135 103.37 25.9197 103.536 25.9082 103.764C25.8962 104.004 26.0649 104.407 26.2879 104.431Z" fill="#616161"/>
<path d="M27.5106 104.771C27.5221 104.542 27.347 104.336 27.1205 104.312C26.8939 104.287 26.7001 104.453 26.6886 104.682C26.6766 104.922 26.8454 105.324 27.0683 105.348C27.2913 105.372 27.4985 105.011 27.5106 104.771Z" fill="#616161"/>
<path d="M28.3669 104.446C28.1404 104.422 27.9466 104.588 27.9351 104.817C27.923 105.056 28.0919 105.459 28.3148 105.483C28.5377 105.507 28.745 105.145 28.7571 104.905C28.7686 104.677 28.5935 104.471 28.3669 104.446Z" fill="#616161"/>
<path d="M33.6661 108.958C33.8167 109.09 33.9035 109.216 33.9318 109.342C34.037 109.812 34.4037 110.194 34.8243 110.251C35.2447 110.308 35.6416 110.028 35.7686 109.589C35.8028 109.472 35.8951 109.37 36.0512 109.278C36.2412 109.167 36.3317 108.966 36.2874 108.755C36.2342 108.502 35.97 108.247 35.6015 108.197C35.4457 108.176 35.2967 108.197 35.171 108.256C35.0874 108.297 34.9748 108.309 34.8718 108.295C34.7689 108.281 34.6718 108.241 34.5897 108.178C34.4672 108.085 34.321 108.024 34.1667 108.004C33.7983 107.954 33.522 108.135 33.4565 108.374C33.4024 108.572 33.4829 108.796 33.6661 108.958Z" fill="#616161"/>
<path d="M35.8921 110.396C35.8861 110.643 36.0695 111.062 36.2982 111.093C36.5268 111.124 36.7292 110.756 36.7351 110.509C36.7408 110.274 36.5563 110.057 36.3239 110.025C36.0915 109.994 35.8978 110.16 35.8921 110.396Z" fill="#616161"/>
<path d="M33.3334 110.694C33.562 110.724 33.7644 110.357 33.7704 110.11C33.776 109.874 33.5915 109.657 33.3591 109.626C33.1268 109.595 32.933 109.761 32.9273 109.996C32.9214 110.243 33.1047 110.663 33.3334 110.694Z" fill="#616161"/>
<path d="M34.5929 111.077C34.5986 110.842 34.4141 110.625 34.1817 110.594C33.9494 110.562 33.7556 110.729 33.7499 110.964C33.7439 111.211 33.9273 111.63 34.156 111.661C34.3847 111.692 34.587 111.324 34.5929 111.077Z" fill="#616161"/>
<path d="M35.4603 110.765C35.2279 110.734 35.0341 110.9 35.0284 111.136C35.0225 111.383 35.2059 111.802 35.4345 111.833C35.6632 111.864 35.8656 111.496 35.8715 111.249C35.8772 111.014 35.6927 110.797 35.4603 110.765Z" fill="#616161"/>
<path d="M25.8672 112.461C26.0178 112.594 26.1046 112.72 26.133 112.846C26.2381 113.316 26.6049 113.698 27.0254 113.755C27.4459 113.811 27.8427 113.532 27.9698 113.093C28.004 112.976 28.0963 112.874 28.2524 112.782C28.4423 112.67 28.5328 112.47 28.4886 112.259C28.4354 112.005 28.1712 111.75 27.8027 111.701C27.6468 111.68 27.4979 111.7 27.3721 111.76C27.2886 111.8 27.1759 111.812 27.073 111.798C26.9701 111.784 26.873 111.744 26.7908 111.682C26.6684 111.588 26.5222 111.528 26.3678 111.507C25.9995 111.458 25.7232 111.639 25.6577 111.878C25.6035 112.076 25.684 112.299 25.8672 112.461Z" fill="#616161"/>
<path d="M28.0932 113.899C28.0872 114.146 28.2706 114.565 28.4992 114.596C28.7279 114.627 28.9302 114.259 28.9362 114.012C28.9419 113.777 28.7573 113.56 28.525 113.528C28.2926 113.497 28.0988 113.663 28.0932 113.899Z" fill="#616161"/>
<path d="M25.5344 114.197C25.763 114.227 25.9654 113.86 25.9714 113.613C25.9771 113.377 25.7925 113.16 25.5602 113.129C25.3278 113.098 25.134 113.264 25.1284 113.499C25.1224 113.746 25.3057 114.166 25.5344 114.197Z" fill="#616161"/>
<path d="M26.7941 114.58C26.7998 114.345 26.6152 114.128 26.3829 114.097C26.1505 114.065 25.9568 114.232 25.9511 114.467C25.9451 114.714 26.1285 115.133 26.3571 115.164C26.5858 115.195 26.7881 114.828 26.7941 114.58Z" fill="#616161"/>
<path d="M27.6613 114.269C27.429 114.237 27.2352 114.403 27.2295 114.639C27.2236 114.886 27.407 115.305 27.6356 115.336C27.8643 115.367 28.0666 114.999 28.0726 114.752C28.0783 114.517 27.8937 114.3 27.6613 114.269Z" fill="#616161"/>
<path d="M58.5783 95.0314C58.7847 95.001 58.9437 95.0029 59.0648 95.037C59.5164 95.165 60.0669 95.1142 60.3872 94.9051C60.7074 94.6961 60.7384 94.3673 60.4634 94.1238C60.3903 94.0587 60.3675 93.9677 60.3945 93.8456C60.4272 93.6968 60.3229 93.5679 60.1222 93.5089C59.8808 93.4379 59.501 93.4826 59.2203 93.6658C59.1017 93.7432 59.0213 93.8333 58.9881 93.9262C58.9663 93.988 58.9026 94.0547 58.8242 94.1059C58.7459 94.157 58.6499 94.1946 58.5456 94.2152C58.3895 94.2456 58.2449 94.3022 58.1274 94.3789C57.8469 94.562 57.8142 94.7856 57.9664 94.9162C58.0922 95.0241 58.3269 95.0682 58.5783 95.0314Z" fill="#616161"/>
<path d="M61.2004 94.374C61.3978 94.4749 61.8591 94.5398 62.0332 94.4261C62.2073 94.3124 62.0398 94.0559 61.8424 93.9549C61.6543 93.8588 61.3571 93.8746 61.1802 93.9901C61.0033 94.1056 61.0123 94.2779 61.2004 94.374Z" fill="#616161"/>
<path d="M59.7755 95.8999C59.9496 95.7862 59.7821 95.5296 59.5847 95.4287C59.3966 95.3326 59.0994 95.3483 58.9225 95.4639C58.7455 95.5794 58.7546 95.7517 58.9427 95.8478C59.1401 95.9487 59.6013 96.0135 59.7755 95.8999Z" fill="#616161"/>
<path d="M60.909 95.359C60.7209 95.2629 60.4237 95.2786 60.2468 95.3942C60.0698 95.5097 60.0789 95.682 60.267 95.7781C60.4645 95.879 60.9256 95.9438 61.0998 95.8302C61.2739 95.7165 61.1064 95.4599 60.909 95.359Z" fill="#616161"/>
<path d="M61.2206 94.7578C61.0437 94.8733 61.0527 95.0456 61.2409 95.1418C61.4383 95.2427 61.8995 95.3075 62.0736 95.1938C62.2478 95.0801 62.0803 94.8236 61.8829 94.7227C61.6948 94.6265 61.3976 94.6423 61.2206 94.7578Z" fill="#616161"/>
<path d="M70.5993 99.1437C70.8057 99.1133 70.9647 99.1152 71.0858 99.1494C71.5374 99.2773 72.0879 99.2265 72.4081 99.0174C72.7283 98.8084 72.7593 98.4796 72.4843 98.2361C72.4112 98.171 72.3885 98.08 72.4155 97.9579C72.4482 97.8091 72.3439 97.6802 72.1432 97.6212C71.9018 97.5502 71.5219 97.5949 71.2413 97.7781C71.1226 97.8555 71.0423 97.9456 71.0091 98.0385C70.9872 98.1003 70.9236 98.167 70.8452 98.2182C70.7668 98.2693 70.6709 98.3069 70.5666 98.3275C70.4104 98.3579 70.2659 98.4145 70.1483 98.4912C69.8679 98.6743 69.8352 98.8979 69.9874 99.0285C70.1132 99.1364 70.3479 99.1805 70.5993 99.1437Z" fill="#616161"/>
<path d="M73.2214 98.4863C73.4188 98.5873 73.8801 98.6521 74.0542 98.5384C74.2283 98.4247 74.0608 98.1682 73.8634 98.0673C73.6753 97.9711 73.3781 97.9869 73.2012 98.1024C73.0242 98.2179 73.0333 98.3902 73.2214 98.4863Z" fill="#616161"/>
<path d="M71.7965 100.012C71.9706 99.8985 71.8031 99.6419 71.6057 99.541C71.4176 99.4449 71.1205 99.4606 70.9435 99.5762C70.7666 99.6917 70.7756 99.864 70.9637 99.9601C71.1611 100.061 71.6224 100.126 71.7965 100.012Z" fill="#616161"/>
<path d="M72.9301 99.4708C72.742 99.3747 72.4449 99.3905 72.2679 99.506C72.091 99.6215 72.1 99.7938 72.2882 99.8899C72.4856 99.9908 72.9468 100.056 73.1209 99.942C73.2951 99.8283 73.1275 99.5717 72.9301 99.4708Z" fill="#616161"/>
<path d="M73.2416 98.8701C73.0647 98.9856 73.0737 99.1579 73.2619 99.2541C73.4593 99.355 73.9205 99.4198 74.0946 99.3061C74.2688 99.1924 74.1013 98.9359 73.9039 98.835C73.7158 98.7388 73.4186 98.7546 73.2416 98.8701Z" fill="#616161"/>
<path d="M79.9333 98.0028C80.1397 97.9724 80.2987 97.9743 80.4198 98.0085C80.8714 98.1364 81.4219 98.0856 81.7421 97.8766C82.0623 97.6675 82.0933 97.3387 81.8183 97.0953C81.7452 97.0302 81.7225 96.9392 81.7495 96.817C81.7822 96.6683 81.6779 96.5393 81.4772 96.4803C81.2358 96.4093 80.8559 96.454 80.5753 96.6372C80.4566 96.7147 80.3763 96.8048 80.343 96.8976C80.3212 96.9594 80.2576 97.0261 80.1792 97.0773C80.1008 97.1285 80.0049 97.1661 79.9006 97.1867C79.7444 97.2171 79.5999 97.2736 79.4823 97.3504C79.2018 97.5335 79.1692 97.757 79.3214 97.8876C79.4472 97.9955 79.6818 98.0396 79.9333 98.0028Z" fill="#616161"/>
<path d="M82.5554 97.3461C82.7528 97.447 83.214 97.5118 83.3882 97.3981C83.5623 97.2845 83.3948 97.0279 83.1974 96.927C83.0093 96.8309 82.7121 96.8466 82.5352 96.9621C82.3582 97.0777 82.3673 97.25 82.5554 97.3461Z" fill="#616161"/>
<path d="M81.1305 98.8713C81.3046 98.7576 81.1371 98.501 80.9397 98.4001C80.7516 98.304 80.4544 98.3198 80.2775 98.4353C80.1005 98.5508 80.1096 98.7231 80.2977 98.8192C80.4951 98.9201 80.9563 98.985 81.1305 98.8713Z" fill="#616161"/>
<path d="M82.264 98.33C82.0759 98.2338 81.7787 98.2496 81.6018 98.3651C81.4248 98.4806 81.4339 98.6529 81.622 98.7491C81.8194 98.85 82.2806 98.9148 82.4548 98.8011C82.6289 98.6874 82.4614 98.4309 82.264 98.33Z" fill="#616161"/>
<path d="M82.5756 97.7293C82.3987 97.8448 82.4077 98.0171 82.5959 98.1132C82.7933 98.2141 83.2545 98.2789 83.4286 98.1653C83.6028 98.0516 83.4353 97.795 83.2379 97.6941C83.0497 97.5979 82.7526 97.6137 82.5756 97.7293Z" fill="#616161"/>
<path d="M91.075 102.289C91.2813 102.259 91.4403 102.261 91.5615 102.295C92.013 102.423 92.5635 102.372 92.8838 102.163C93.204 101.954 93.235 101.625 92.96 101.382C92.8869 101.317 92.8641 101.226 92.8911 101.104C92.9238 100.955 92.8195 100.826 92.6188 100.767C92.3774 100.696 91.9976 100.741 91.7169 100.924C91.5983 101.001 91.518 101.091 91.4847 101.184C91.4629 101.246 91.3992 101.313 91.3208 101.364C91.2425 101.415 91.1465 101.453 91.0422 101.473C90.8861 101.504 90.7416 101.56 90.624 101.637C90.3435 101.82 90.3109 102.044 90.463 102.174C90.5889 102.282 90.8235 102.326 91.075 102.289Z" fill="#616161"/>
<path d="M93.697 101.633C93.8944 101.734 94.3556 101.798 94.5298 101.685C94.7039 101.571 94.5364 101.315 94.339 101.214C94.1509 101.117 93.8537 101.133 93.6768 101.249C93.4998 101.364 93.5089 101.537 93.697 101.633Z" fill="#616161"/>
<path d="M92.2722 103.158C92.4463 103.044 92.2787 102.788 92.0813 102.687C91.8932 102.591 91.5961 102.606 91.4192 102.722C91.2422 102.837 91.2513 103.01 91.4394 103.106C91.6368 103.207 92.098 103.272 92.2722 103.158Z" fill="#616161"/>
<path d="M93.4058 102.616C93.2176 102.52 92.9205 102.536 92.7436 102.652C92.5666 102.767 92.5757 102.939 92.7638 103.036C92.9612 103.136 93.4224 103.201 93.5966 103.088C93.7707 102.974 93.6032 102.717 93.4058 102.616Z" fill="#616161"/>
<path d="M93.7171 102.016C93.5401 102.131 93.5492 102.304 93.7373 102.4C93.9348 102.501 94.396 102.566 94.5701 102.452C94.7442 102.338 94.5768 102.082 94.3793 101.981C94.1912 101.885 93.8941 101.9 93.7171 102.016Z" fill="#616161"/>
<path d="M82.0713 103.48C82.2777 103.45 82.4367 103.451 82.5578 103.486C83.0094 103.614 83.5599 103.563 83.8801 103.354C84.2003 103.145 84.2313 102.816 83.9563 102.572C83.8832 102.507 83.8605 102.416 83.8875 102.294C83.9202 102.145 83.8159 102.016 83.6152 101.957C83.3738 101.887 82.9939 101.931 82.7133 102.114C82.5946 102.192 82.5143 102.282 82.481 102.375C82.4592 102.437 82.3956 102.503 82.3172 102.554C82.2388 102.606 82.1429 102.643 82.0386 102.664C81.8824 102.694 81.7379 102.751 81.6203 102.828C81.3398 103.011 81.3072 103.234 81.4594 103.365C81.5852 103.473 81.8198 103.517 82.0713 103.48Z" fill="#616161"/>
<path d="M84.6934 102.823C84.8908 102.924 85.352 102.989 85.5262 102.875C85.7003 102.762 85.5328 102.505 85.3354 102.404C85.1473 102.308 84.8501 102.324 84.6732 102.439C84.4962 102.555 84.5053 102.727 84.6934 102.823Z" fill="#616161"/>
<path d="M83.2685 104.348C83.4426 104.235 83.2751 103.978 83.0777 103.877C82.8896 103.781 82.5924 103.797 82.4155 103.912C82.2385 104.028 82.2476 104.2 82.4357 104.296C82.6331 104.397 83.0943 104.462 83.2685 104.348Z" fill="#616161"/>
<path d="M84.4021 103.807C84.214 103.711 83.9168 103.727 83.7399 103.842C83.5629 103.958 83.572 104.13 83.7601 104.226C83.9576 104.327 84.4187 104.392 84.5929 104.278C84.767 104.165 84.5995 103.908 84.4021 103.807Z" fill="#616161"/>
<path d="M84.7136 103.206C84.5367 103.322 84.5457 103.494 84.7339 103.59C84.9313 103.691 85.3925 103.756 85.5666 103.642C85.7408 103.529 85.5733 103.272 85.3759 103.171C85.1877 103.075 84.8906 103.091 84.7136 103.206Z" fill="#616161"/>
<path d="M67.4786 92.7305C67.6829 92.6883 67.8417 92.6811 67.9646 92.7086C68.4229 92.8117 68.9696 92.7293 69.2773 92.5009C69.585 92.2725 69.597 91.94 69.3085 91.7107C69.2318 91.6494 69.2038 91.5591 69.2237 91.4348C69.2478 91.2833 69.1363 91.1595 68.9325 91.1115C68.6874 91.0538 68.3108 91.1203 68.0411 91.3205C67.9271 91.4052 67.852 91.5003 67.8242 91.5956C67.8059 91.659 67.7462 91.7298 67.6709 91.7857C67.5956 91.8416 67.502 91.8848 67.399 91.9115C67.2449 91.9509 67.1038 92.016 66.9908 92.0999C66.7213 92.2999 66.7016 92.5267 66.861 92.6494C66.9928 92.7508 67.2296 92.7818 67.4786 92.7305Z" fill="#616161"/>
<path d="M70.0588 91.9202C70.2617 92.0105 70.7259 92.0495 70.8933 91.9253C71.0606 91.8011 70.8786 91.5525 70.6757 91.4622C70.4824 91.3762 70.1866 91.4089 70.0166 91.5351C69.8465 91.6614 69.8655 91.8341 70.0588 91.9202Z" fill="#616161"/>
<path d="M68.7238 93.5359C68.8911 93.4117 68.7092 93.1631 68.5063 93.0728C68.3129 92.9868 68.0172 93.0195 67.8471 93.1457C67.6771 93.272 67.6961 93.4447 67.8894 93.5308C68.0923 93.6211 68.5565 93.6601 68.7238 93.5359Z" fill="#616161"/>
<path d="M69.8246 92.9268C69.6312 92.8408 69.3355 92.8735 69.1654 92.9997C68.9954 93.126 69.0144 93.2987 69.2077 93.3848C69.4106 93.4751 69.8748 93.5141 70.0421 93.3899C70.2095 93.2656 70.0275 93.0171 69.8246 92.9268Z" fill="#616161"/>
<path d="M70.1011 92.3057C69.931 92.4319 69.95 92.6047 70.1433 92.6907C70.3463 92.781 70.8105 92.82 70.9778 92.6958C71.1451 92.5716 70.9632 92.323 70.7603 92.2327C70.5669 92.1467 70.2711 92.1794 70.1011 92.3057Z" fill="#616161"/>
</svg>
