<svg width="31" height="29" viewBox="0 0 31 29" fill="none" xmlns="http://www.w3.org/2000/svg">
<path d="M23.9146 7.36432L20.2416 2.05857C19.9694 1.66615 19.6076 1.34425 19.1861 1.11955C18.7647 0.894858 18.2957 0.773832 17.8182 0.766504L10.8477 0.666504H10.8334C7.23469 0.666504 4.47356 1.26844 2.69525 4.20613C1.03962 6.94063 0.333374 11.5987 0.333374 19.7812C0.333374 20.3335 0.781089 20.7812 1.33337 20.7812H2.61819L1.38123 27.0887C1.26008 27.7065 1.73302 28.2812 2.36255 28.2812C2.84064 28.2812 3.25186 27.9428 3.34387 27.4736L4.65631 20.7812H5.33337C6.9666 20.7958 8.54004 20.1674 9.71387 19.0317C10.7751 18.0163 11.5405 16.6272 11.9276 15.0146L11.9311 15.0001L13.3949 7.9855C13.5245 7.36442 13.0505 6.78119 12.416 6.78119C11.9424 6.78119 11.5338 7.11335 11.4371 7.57692L9.97944 14.5617C9.48494 16.6042 8.00625 18.7812 5.33337 18.7812H2.33712C2.39144 11.7021 3.036 7.505 4.40619 5.24157C5.55619 3.34157 7.23712 2.66713 10.8264 2.66619L17.7894 2.76619C17.9486 2.76861 18.1049 2.80895 18.2454 2.88385C18.3859 2.95875 18.5065 3.06606 18.5972 3.19688L22.7521 9.19807L28.3334 10.1283C28.3334 10.8334 28.268 11.537 28.138 12.23L27.4026 16.1521C27.1279 17.6171 26.6584 18.3551 24.7327 18.5864L19.0416 19.5601C17.7671 19.7781 16.8327 20.879 16.8246 22.1719L16.7927 27.275C16.7893 27.8297 17.238 28.2812 17.7927 28.2812C18.3425 28.2812 18.7892 27.8373 18.7927 27.2875L18.8281 21.6254L24.9969 20.5691C26.3944 20.3973 27.4254 19.9469 28.1485 19.1927C28.7666 18.5478 29.1428 17.7239 29.3684 16.5207L29.9363 13.4917C30.2005 12.083 30.3334 10.6529 30.3334 9.21962C30.3334 8.76631 30.0056 8.37945 29.5585 8.30493L23.9146 7.36432Z" fill="#9C9C9C"/>
</svg>
