<svg width="31" height="48" viewBox="0 0 31 48" fill="none" xmlns="http://www.w3.org/2000/svg">
<path fill-rule="evenodd" clip-rule="evenodd" d="M26.4417 24.98C28.813 22.3697 30.2581 18.9028 30.2581 15.0985C30.2581 6.97962 23.6764 0.397949 15.5575 0.397949C7.4386 0.397949 0.856934 6.97962 0.856934 15.0985C0.856934 18.8207 2.24029 22.2198 4.52092 24.8096C8.19139 29.3836 13.4335 39.7224 13.4335 44.6467C13.4335 48.0015 14.4832 48.0008 15.5108 48L15.5575 48V29.7991C15.5575 29.7991 15.5575 29.7991 15.5575 29.7991L15.5575 48L15.6041 48C16.6318 48.0008 17.6815 48.0015 17.6815 44.6467C17.6815 39.7293 22.7822 29.5526 26.4417 24.98Z" fill="#E5446D"/>
<g clip-path="url(#clip0_833:209)">
<path d="M15.5575 14.1992C13.0759 14.1992 9.55749 18.0354 9.55749 20.457C9.55749 21.5476 10.3953 22.1992 11.7994 22.1992C13.3256 22.1992 14.3334 21.4154 15.5575 21.4154C16.7922 21.4154 17.8028 22.1992 19.3156 22.1992C20.7197 22.1992 21.5575 21.5476 21.5575 20.457C21.5575 18.0354 18.0391 14.1992 15.5575 14.1992ZM10.955 13.8051C10.63 12.7223 9.62874 12.0211 8.71874 12.2386C7.80874 12.4561 7.33468 13.5101 7.65968 14.5929C7.98468 15.6758 8.98593 16.377 9.89593 16.1595C10.8059 15.942 11.28 14.8879 10.955 13.8051ZM13.6025 13.1558C14.5694 12.9014 15.0531 11.5951 14.6831 10.2383C14.3131 8.88138 13.2294 7.98794 12.2625 8.24232C11.2956 8.49669 10.8119 9.80295 11.1819 11.1598C11.5519 12.5167 12.6359 13.4104 13.6025 13.1558ZM22.3959 12.2389C21.4859 12.0214 20.485 12.7226 20.1597 13.8054C19.8347 14.8883 20.3087 15.9423 21.2187 16.1598C22.1287 16.3773 23.1297 15.6761 23.455 14.5933C23.78 13.5104 23.3059 12.4564 22.3959 12.2389ZM17.5125 13.1558C18.4794 13.4101 19.5631 12.5167 19.9331 11.1598C20.3031 9.80295 19.8194 8.49701 18.8525 8.24232C17.8856 7.98763 16.8019 8.88138 16.4319 10.2383C16.0619 11.5951 16.5456 12.9014 17.5125 13.1558Z" fill="white"/>
</g>
<defs>
<clipPath id="clip0_833:209">
<rect width="16" height="16" fill="white" transform="translate(7.5575 7.19922)"/>
</clipPath>
</defs>
</svg>
