<svg width="400" height="135" viewBox="0 0 400 135" fill="none" xmlns="http://www.w3.org/2000/svg">
<path d="M11.6846 82.166C11.6846 82.166 22.1057 116.457 48.765 129.303L71.9482 112.072L81.7988 101.031L73.1523 90.41L52.8692 103.014L46.2035 110.485H40.6375L35.1049 106.317L38.0426 94.9317L11.6846 82.166Z" fill="white"/>
<path d="M36.7909 93.5783C36.7909 93.5783 0.422229 83.3808 3.84327 47.0289C11.8433 -1.89807 52.908 4.29142 52.908 4.29142L69.7344 7.76157L83.066 15.4093L88.5986 23.9174L95.2834 40.3982L96.4928 55.2826L94.4168 67.2321L89.746 72.6907L88.0177 82.4128L85.9418 95.9588L81.6185 99.0801L73.1435 90.3999L51.8701 108.205L46.2041 110.47C46.2041 110.47 41.1477 110.403 40.6287 110.47C40.1097 110.537 33.5391 108.205 33.5391 108.205L38.0338 94.9168L36.7909 93.5783Z" fill="#FFC800"/>
<path d="M53.4161 85.1635C52.7195 84.6035 51.7938 84.2682 50.9732 84.6224L50.1969 84.9575C49.8261 85.1176 49.6392 85.5418 49.8263 85.8997C50.8891 87.9329 53.241 89.2989 55.6554 89.2383C58.1563 89.1784 60.3523 87.599 61.1959 85.8256C61.3617 85.477 61.1683 85.0819 60.8125 84.932L60.0051 84.5917C59.1709 84.24 58.2348 84.5975 57.5288 85.1642C56.2994 86.1507 54.7193 86.2108 53.4161 85.1635Z" fill="#1D1D1D"/>
<path d="M98.6167 43.1873C97.1502 31.7157 92.2461 21.8789 83.8853 13.93C72.1059 2.7261 58.0268 -1.70479 41.986 0.584744C31.1993 2.05832 21.2585 7.25087 13.8659 15.2731C2.63882 27.1988 -1.98439 41.4379 0.781916 57.6032C1.01046 58.9464 1.28661 60.2608 1.59609 61.5466C3.4368 70.4971 6.14785 79.2446 9.69027 87.6636C20.6841 113.857 35.7821 127.15 46.5188 133.688L46.9166 133.931C47.4978 134.284 48.2269 134.287 48.811 133.939L49.2136 133.698C49.9421 133.263 66.4114 123.316 81.8617 104.407L81.9189 104.474C82.7949 103.48 83.6139 102.591 84.3804 101.664C90.3606 94.4525 92.7413 86.1898 91.5224 76.8755C91.4242 76.2489 91.558 75.6078 91.8985 75.0735C97.7358 65.5414 100.109 54.2758 98.6167 43.1873ZM47.8757 128.311C30.5018 117.136 20.1984 99.073 14.5801 85.7229C14.3801 85.2449 14.1849 84.767 13.9945 84.289C19.2319 89.5133 25.8167 93.5619 33.73 96.4584C34.2061 96.6401 34.7203 96.8026 35.2345 96.9794C35.1774 97.1754 35.1488 97.3092 35.0965 97.4574C34.0585 100.091 33.0301 102.715 31.9683 105.358C30.9065 108.002 31.7112 110.616 33.9347 111.778C40.2434 115.042 48.6328 114.024 54.0083 109.326C56.7888 106.888 59.5504 104.422 62.3215 101.97L72.3963 93.0743C74.4151 95.4642 76.4196 97.878 78.4384 100.287C69.6956 111.102 59.3947 120.547 47.8757 128.311ZM89.1655 68.4439C86.9214 63.4486 83.4289 59.1258 79.0325 55.8922C78.6968 55.6452 78.2256 55.729 77.9865 56.0704C76.484 58.2161 77.0049 61.1358 78.8531 62.9921C83.3583 67.5173 85.9204 73.1167 86.3469 79.8581C86.7135 85.6417 85.1613 90.9521 81.8998 95.8657L81.0856 94.9098C62.3338 72.8095 81.5304 95.4304 62.7038 73.2455C62.4213 72.9125 61.0791 73.6778 60.7703 73.9866C58.9152 75.842 59.6094 78.1259 61.3234 80.1124C65.9127 85.4315 59.595 78.1091 68.2921 88.1893C68.454 88.3805 68.6063 88.5813 68.8206 88.8489C68.4635 89.174 68.1207 89.4894 67.7731 89.8049C62.0405 94.8811 56.308 99.9525 50.5754 105.019C46.933 108.236 41.1671 109.178 37.1628 107.175C37.7771 105.597 38.377 104.011 39.015 102.433C40.51 98.7145 42.0384 95.0101 43.5192 91.2819C44.3753 89.2712 44.7432 87.085 44.5926 84.9035C44.4419 82.722 43.777 80.6077 42.6526 78.7348C42.5118 78.5359 42.4361 78.2978 42.4361 78.0537C42.4361 77.8096 42.5118 77.5716 42.6526 77.3726C46.1188 71.3405 49.5469 65.2844 53.0179 59.2571C53.6733 58.0503 54.6446 57.046 55.8268 56.3528C57.0091 55.6595 58.3575 55.3035 59.7266 55.3233C62.1881 55.2611 64.6545 55.3233 67.1161 55.3233C73.9152 55.3233 79.6477 49.8408 80.1191 42.8957C80.3142 39.6093 79.2861 36.3673 77.2344 33.7988C75.1827 31.2304 70.2289 28.9983 69.0457 28.6489C68.4291 28.4669 67.9654 28.2802 67.4588 28.1695C67.1589 28.104 66.8581 28.2644 66.7756 28.5601C66.605 29.171 66.5682 30.0008 66.5951 30.8361C66.6606 32.8774 68.3542 34.3009 70.2191 35.1336C71.3763 35.6503 72.404 36.4052 73.2363 37.5763C74.3107 39.0881 74.81 40.9362 74.6436 42.7858C74.4757 44.5935 73.6762 46.2833 72.3866 47.5561C71.0969 48.829 69.4003 49.6027 67.5969 49.7404C65.1687 49.8886 62.7262 49.8647 60.2931 49.8169C57.4133 49.7175 54.5772 50.5448 52.199 52.1781C52.0656 52.269 51.9181 52.3359 51.699 52.4554C50.8182 44.387 47.1853 37.9868 40.6053 33.3361C37.734 31.3142 34.1082 29.8397 30.7152 29.1867C28.1631 28.6955 26.1214 30.8635 26.1214 33.4624C26.1214 33.7977 26.3576 34.087 26.6872 34.1487C28.5989 34.5062 30.5083 34.7372 32.3111 35.3245C44.6428 39.3634 49.9278 53.3827 43.5096 64.8256C41.5035 68.3945 39.4737 71.9507 37.42 75.4941C36.3201 77.406 36.3868 79.1746 37.6247 81.0148C39.2578 83.443 39.7054 86.0575 38.4817 88.8394C38.0627 89.7954 37.7152 90.7513 37.3104 91.779C23.5694 88.1941 9.20462 75.8048 6.10979 56.8002C2.69119 35.8312 14.2468 17.0704 31.6445 9.26012C40.3372 5.40844 50.0355 4.47408 59.2992 6.5958C68.5629 8.71753 76.8979 13.7822 83.0663 21.0376C95.7599 36.094 95.7075 55.6053 89.1655 68.4439Z" fill="#1D1D1D"/>
<path d="M202.773 101.367C198.78 101.367 195.543 98.1299 195.543 94.1368V55.708C195.543 54.9093 196.19 54.2619 196.989 54.2619C198.404 54.2619 200.063 54.2619 201.613 54.2619C204.524 54.2619 206.883 56.6217 206.883 59.5327C207.832 58.5532 208.092 58.1797 209.133 57.3839C210.204 56.5881 211.321 55.8994 212.484 55.3179C213.678 54.7363 214.948 54.2925 216.295 53.9865C217.642 53.6804 219.111 53.5273 220.702 53.5273C223.273 53.5273 225.554 53.9712 227.543 54.8588C229.533 55.7158 231.185 56.9401 232.502 58.5317C233.848 60.0927 234.858 61.975 235.532 64.1788C236.236 66.3519 236.588 68.7546 236.588 71.3868V99.9209C236.588 100.719 235.94 101.367 235.142 101.367H232.478C228.485 101.367 225.248 98.1299 225.248 94.1368V71.3868C225.248 68.5097 224.574 66.2907 223.227 64.7297C221.911 63.1381 219.922 62.3423 217.259 62.3423C215.3 62.3423 213.464 62.7861 211.75 63.6737C210.036 64.5614 208.413 65.7704 206.883 67.3007V99.9209C206.883 100.719 206.236 101.367 205.437 101.367H202.773Z" fill="white"/>
<path d="M248.839 54.2621C252.832 54.2621 256.069 57.4992 256.069 61.4922V99.9211C256.069 100.72 255.421 101.367 254.623 101.367H251.959C247.966 101.367 244.729 98.1301 244.729 94.137V55.7081C244.729 54.9095 245.376 54.2621 246.175 54.2621H248.839ZM257.769 42.0665C257.769 43.0459 257.57 43.9641 257.172 44.8212C256.774 45.6782 256.238 46.4281 255.565 47.0708C254.922 47.7136 254.157 48.2339 253.269 48.6318C252.382 48.9991 251.433 49.1827 250.423 49.1827C249.443 49.1827 248.51 48.9991 247.622 48.6318C246.765 48.2339 246.015 47.7136 245.373 47.0708C244.73 46.4281 244.21 45.6782 243.812 44.8212C243.444 43.9641 243.261 43.0459 243.261 42.0665C243.261 41.0564 243.444 40.1076 243.812 39.22C244.21 38.3324 244.73 37.5672 245.373 36.9244C246.015 36.2817 246.765 35.7766 247.622 35.4093C248.51 35.0114 249.443 34.8125 250.423 34.8125C251.433 34.8125 252.382 35.0114 253.269 35.4093C254.157 35.7766 254.922 36.2817 255.565 36.9244C256.238 37.5672 256.774 38.3324 257.172 39.22C257.57 40.1076 257.769 41.0564 257.769 42.0665Z" fill="white"/>
<path d="M302.839 101.376C299.188 101.376 296.228 98.4159 296.228 94.7646C295.093 96.4152 294.82 96.8612 293.748 97.7488C292.677 98.6364 291.514 99.4016 290.259 100.044C289.035 100.687 287.704 101.177 286.265 101.514C284.857 101.881 283.327 102.064 281.674 102.064C279.103 102.064 276.746 101.529 274.603 100.458C272.461 99.3863 270.609 97.8406 269.048 95.8205C267.518 93.7698 266.324 91.2447 265.467 88.2452C264.641 85.2456 264.228 81.8176 264.228 77.961C264.228 74.4718 264.702 71.2274 265.651 68.2278C266.6 65.2283 267.962 62.6267 269.737 60.4229C271.512 58.2192 273.639 56.5052 276.119 55.2809C278.598 54.0259 281.383 53.3985 284.474 53.3985C287.107 53.3985 289.356 53.827 291.223 54.684C293.09 55.5104 294.759 56.6276 296.228 58.0355V36.2683C296.228 35.4697 296.875 34.8223 297.674 34.8223H300.338C304.331 34.8223 307.568 38.0593 307.568 42.0524V99.9298C307.568 100.728 306.92 101.376 306.122 101.376H302.839ZM285.53 93.0659C287.887 93.0659 289.892 92.5761 291.545 91.5967C293.198 90.6173 294.759 89.2246 296.228 87.4188V66.2996C294.942 64.7386 293.534 63.6367 292.004 62.994C290.504 62.3512 288.882 62.0298 287.137 62.0298C285.423 62.0298 283.862 62.3512 282.454 62.994C281.077 63.6367 279.899 64.6161 278.919 65.9323C277.97 67.2178 277.236 68.8706 276.715 70.8907C276.195 72.8802 275.935 75.237 275.935 77.961C275.935 80.7157 276.149 83.0572 276.578 84.9855C277.037 86.8831 277.68 88.4441 278.506 89.6684C279.332 90.8621 280.342 91.7344 281.536 92.2854C282.73 92.8057 284.061 93.0659 285.53 93.0659Z" fill="white"/>
<path d="M337.446 53.5352C340.966 53.5352 344.149 54.1014 346.996 55.2339C349.873 56.3664 352.321 57.9732 354.341 60.0546C356.361 62.1359 357.922 64.6763 359.024 67.6758C360.126 70.6754 360.677 74.0269 360.677 77.7304C360.677 81.4645 360.126 84.8313 359.024 87.8309C357.922 90.8304 356.361 93.3861 354.341 95.4981C352.321 97.61 349.873 99.2322 346.996 100.365C344.149 101.497 340.966 102.063 337.446 102.063C333.926 102.063 330.728 101.497 327.851 100.365C324.973 99.2322 322.51 97.61 320.459 95.4981C318.439 93.3861 316.862 90.8304 315.73 87.8309C314.628 84.8313 314.077 81.4645 314.077 77.7304C314.077 74.0269 314.628 70.6754 315.73 67.6758C316.862 64.6763 318.439 62.1359 320.459 60.0546C322.51 57.9732 324.973 56.3664 327.851 55.2339C330.728 54.1014 333.926 53.5352 337.446 53.5352ZM337.446 93.3402C341.364 93.3402 344.256 92.0241 346.123 89.3919C348.021 86.7596 348.97 82.9031 348.97 77.8222C348.97 72.7414 348.021 68.8695 346.123 66.2067C344.256 63.5438 341.364 62.2124 337.446 62.2124C333.467 62.2124 330.529 63.5591 328.631 66.2526C326.733 68.9154 325.785 72.772 325.785 77.8222C325.785 82.8725 326.733 86.729 328.631 89.3919C330.529 92.0241 333.467 93.3402 337.446 93.3402Z" fill="white"/>
<path d="M160.141 91.3684C162.529 91.3684 164.656 90.9705 166.523 90.1747C168.421 89.3789 170.012 88.2618 171.298 86.8232C172.614 85.3847 173.609 83.64 174.282 81.5893C174.986 79.5386 175.338 77.2431 175.338 74.7026V36.2742C175.338 35.4755 175.986 34.8281 176.784 34.8281H180.458C184.451 34.8281 187.688 38.0652 187.688 42.0582V74.7026C187.688 78.651 187.045 82.3086 185.76 85.6754C184.505 89.0117 182.684 91.9041 180.297 94.3527C177.909 96.7707 175.017 98.6683 171.619 100.046C168.222 101.392 164.396 102.066 160.141 102.066C155.887 102.066 152.061 101.392 148.664 100.046C145.266 98.6683 142.374 96.7707 139.986 94.3527C137.63 91.9041 135.809 89.0117 134.523 85.6754C133.268 82.3086 132.641 78.651 132.641 74.7026V36.2742C132.641 35.4755 133.288 34.8281 134.087 34.8281H137.761C141.754 34.8281 144.991 38.0652 144.991 42.0582V74.6567C144.991 77.1971 145.327 79.4927 146.001 81.5434C146.705 83.5941 147.7 85.3541 148.985 86.8232C150.271 88.2618 151.847 89.3789 153.714 90.1747C155.612 90.9705 157.754 91.3684 160.141 91.3684Z" fill="white"/>
<path d="M395.34 64.3677C395.05 65.1062 394.168 65.3615 393.466 64.9916C392.95 64.7195 392.408 64.438 392.124 64.3028C391.512 63.9967 390.792 63.6601 389.966 63.2928C389.139 62.8949 388.191 62.5429 387.119 62.2368C386.079 61.9307 384.839 61.7777 383.401 61.7777C381.166 61.7777 379.406 62.2521 378.121 63.201C376.835 64.1498 376.192 65.3894 376.192 66.9198C376.192 67.9298 376.514 68.7868 377.157 69.4908C377.83 70.1642 378.702 70.761 379.774 71.2813C380.875 71.8017 382.115 72.2761 383.492 72.7046C384.87 73.1025 386.278 73.5463 387.716 74.036C389.155 74.5257 390.563 75.092 391.94 75.7347C393.317 76.3469 394.542 77.1427 395.613 78.1221C396.715 79.071 397.587 80.2187 398.23 81.5655C398.903 82.9122 399.24 84.5344 399.24 86.4321C399.24 88.697 398.827 90.7936 398 92.7219C397.174 94.6196 395.965 96.2724 394.373 97.6803C392.782 99.0577 390.808 100.144 388.451 100.94C386.125 101.705 383.446 102.088 380.416 102.088C378.794 102.088 377.203 101.935 375.642 101.629C374.111 101.353 372.627 100.955 371.188 100.435C370.772 100.281 370.364 100.116 369.963 99.9394C365.846 98.1325 366.048 93.6143 367.944 90.335C368.302 89.7161 369.094 89.551 369.72 89.897C370.424 90.2867 371.269 90.7616 371.601 90.9773C372.244 91.3752 372.979 91.8037 373.805 92.2628C374.631 92.7219 375.596 93.1504 376.697 93.5483C377.83 93.9462 379.253 94.1452 380.967 94.1452C382.314 94.1452 383.462 93.9921 384.411 93.686C385.39 93.3494 386.186 92.9209 386.798 92.4005C387.441 91.8802 387.9 91.2834 388.175 90.61C388.481 89.906 388.634 89.1867 388.634 88.4522C388.634 87.3503 388.298 86.4474 387.624 85.7434C386.982 85.0394 386.109 84.4273 385.007 83.9069C383.936 83.3866 382.697 82.9275 381.289 82.5296C379.911 82.1011 378.488 81.642 377.019 81.1523C375.58 80.6625 374.157 80.0963 372.749 79.4535C371.372 78.7802 370.132 77.9385 369.03 76.9284C367.959 75.9184 367.087 74.6788 366.413 73.2096C365.771 71.7405 365.449 69.9652 365.449 67.8839C365.449 65.9556 365.832 64.1192 366.597 62.3746C367.362 60.6299 368.479 59.1148 369.949 57.8293C371.448 56.5132 373.3 55.4726 375.504 54.7074C377.738 53.9116 380.309 53.5137 383.217 53.5137C386.461 53.5137 389.415 54.0493 392.078 55.1206C396.221 56.7873 396.728 60.8418 395.34 64.3677Z" fill="white"/>
</svg>
