<svg width="197" height="66" viewBox="0 0 197 66" fill="none" xmlns="http://www.w3.org/2000/svg">
<path d="M5.74683 40.4097C5.74683 40.4097 10.872 57.2744 23.9834 63.5923L35.3851 55.1176L40.2297 49.6876L35.9773 44.4642L26.0019 50.6631L22.7236 54.3374H19.9862L17.2652 52.2875L18.71 46.688L5.74683 40.4097Z" fill="#5C3AE2"/>
<path d="M18.0941 46.0226C18.0941 46.0226 0.20761 41.0074 1.89011 23.1292C5.82463 -0.933616 26.0207 2.11044 26.0207 2.11044L34.296 3.8171L40.8526 7.57832L43.5736 11.7627L46.8613 19.8681L47.4561 27.1884L46.4351 33.0653L44.138 35.7499L43.2879 40.5313L42.267 47.1934L40.1408 48.7285L35.9726 44.4595L25.5102 53.2161L22.7236 54.3303C22.7236 54.3303 20.2368 54.2974 19.9816 54.3303C19.7263 54.3632 16.4948 53.2161 16.4948 53.2161L18.7054 46.6809L18.0941 46.0226Z" fill="#FFC800"/>
<path d="M26.2696 41.8837C25.9278 41.6086 25.4733 41.444 25.0705 41.6179L24.6869 41.7835C24.5048 41.8621 24.4131 42.0704 24.5049 42.2461C25.0274 43.2463 26.1843 43.9184 27.372 43.8886C28.6022 43.8591 29.6824 43.082 30.0971 42.2097C30.1785 42.0385 30.0835 41.8445 29.9089 41.7709L29.5099 41.6028C29.1004 41.4302 28.6408 41.6056 28.2944 41.884C27.6893 42.3703 26.9111 42.4 26.2696 41.8837Z" fill="#1D1D1D"/>
<path d="M48.5007 21.24C47.7795 15.5981 45.3676 10.7602 41.2556 6.85092C35.4624 1.34073 28.5382 -0.838433 20.6492 0.287583C15.3441 1.0123 10.4551 3.56605 6.8194 7.51148C1.2978 13.3766 -0.975942 20.3796 0.384554 28.3299C0.496953 28.9904 0.632769 29.6369 0.784975 30.2692C1.69025 34.6712 3.02357 38.9733 4.76577 43.1138C10.1726 55.996 17.598 62.5335 22.8784 65.7493L23.0741 65.8685C23.3599 66.0424 23.7185 66.0439 24.0057 65.8724L24.2038 65.7541C24.562 65.5401 32.6618 60.6482 40.2604 51.3486L40.2885 51.3815C40.7194 50.8925 41.1222 50.4553 41.4992 49.9992C44.4403 46.4527 45.6111 42.389 45.0116 37.8081C44.9633 37.5 45.0292 37.1847 45.1966 36.9219C48.0674 32.2339 49.2348 26.6934 48.5007 21.24ZM23.5458 63.1047C15.0011 57.6086 9.93378 48.7251 7.17064 42.1594C7.07229 41.9243 6.97628 41.6893 6.88262 41.4542C9.45843 44.0236 12.6969 46.0147 16.5887 47.4392C16.8229 47.5286 17.0758 47.6085 17.3287 47.6955C17.3006 47.7918 17.2866 47.8577 17.2608 47.9305C16.7503 49.2258 16.2445 50.5164 15.7223 51.8164C15.2001 53.1163 15.5959 54.4022 16.6894 54.9734C19.7921 56.579 23.9181 56.0783 26.5618 53.7675C27.9293 52.5686 29.2875 51.3556 30.6503 50.1497L35.6052 45.7749C36.5981 46.9503 37.5839 48.1374 38.5768 49.3222C34.277 54.6412 29.2109 59.2865 23.5458 63.1047ZM43.8525 33.6614C42.7488 31.2047 41.0312 29.0787 38.869 27.4883C38.7039 27.3669 38.4721 27.4081 38.3545 27.576C37.6156 28.6313 37.8718 30.0672 38.7807 30.9802C40.9965 33.2057 42.2565 35.9595 42.4663 39.275C42.6466 42.1194 41.8832 44.7311 40.2792 47.1477L39.8787 46.6776C30.6564 35.8084 40.0975 46.9337 30.8384 36.0229C30.6994 35.8591 30.0393 36.2355 29.8875 36.3874C28.9751 37.2999 29.3165 38.4231 30.1595 39.4001C32.4165 42.0161 29.3094 38.4149 33.5867 43.3724C33.6664 43.4664 33.7413 43.5652 33.8467 43.6968C33.671 43.8567 33.5024 44.0118 33.3315 44.167C30.5122 46.6635 27.6928 49.1576 24.8735 51.6495C23.0821 53.2315 20.2464 53.6946 18.2771 52.7096C18.5791 51.9339 18.8742 51.1534 19.188 50.3777C19.9232 48.5488 20.6749 46.7269 21.4032 44.8933C21.8242 43.9045 22.0052 42.8293 21.9311 41.7564C21.857 40.6835 21.53 39.6437 20.977 38.7226C20.9077 38.6247 20.8705 38.5077 20.8705 38.3876C20.8705 38.2676 20.9077 38.1505 20.977 38.0526C22.6817 35.086 24.3677 32.1075 26.0747 29.1432C26.3971 28.5497 26.8747 28.0558 27.4562 27.7149C28.0377 27.3739 28.7008 27.1988 29.3741 27.2085C30.5848 27.178 31.7977 27.2085 33.0084 27.2085C36.3522 27.2085 39.1716 24.5122 39.4034 21.0966C39.4993 19.4802 38.9937 17.8858 37.9847 16.6226C36.9756 15.3594 34.5393 14.2616 33.9574 14.0898C33.6541 14.0003 33.4261 13.9085 33.1769 13.8541C33.0294 13.8219 32.8815 13.9007 32.8409 14.0462C32.757 14.3466 32.7389 14.7547 32.7521 15.1655C32.7844 16.1695 33.6173 16.8695 34.5345 17.2791C35.1036 17.5332 35.609 17.9044 36.0183 18.4804C36.5467 19.2239 36.7923 20.1329 36.7105 21.0425C36.6279 21.9315 36.2347 22.7626 35.6004 23.3886C34.9662 24.0146 34.1317 24.3951 33.2449 24.4629C32.0506 24.5357 30.8494 24.524 29.6528 24.5005C28.2364 24.4516 26.8416 24.8584 25.672 25.6617C25.6064 25.7064 25.5338 25.7393 25.4261 25.7981C24.9929 21.83 23.2062 18.6823 19.9701 16.395C18.558 15.4006 16.7747 14.6755 15.106 14.3543C13.8509 14.1127 12.8468 15.179 12.8468 16.4571C12.8468 16.622 12.9629 16.7644 13.125 16.7947C14.0652 16.9705 15.0043 17.0841 15.8909 17.3729C21.9558 19.3593 24.555 26.2541 21.3985 31.8819C20.4119 33.6371 19.4135 35.3861 18.4035 37.1288C17.8626 38.0691 17.8954 38.9389 18.5042 39.8439C19.3074 41.0381 19.5275 42.324 18.9257 43.6921C18.7196 44.1623 18.5487 44.6324 18.3497 45.1378C11.5917 43.3748 4.52692 37.2816 3.00486 27.9349C1.32355 17.6221 7.00673 8.39537 15.5631 4.55422C19.8382 2.65992 24.608 2.2004 29.164 3.24388C33.7199 4.28737 37.8192 6.77822 40.8529 10.3465C47.0957 17.7514 47.0699 27.3472 43.8525 33.6614Z" fill="#1D1D1D"/>
<path d="M99.726 49.8532C97.7621 49.8532 96.1701 48.2612 96.1701 46.2973V27.3976C96.1701 27.0049 96.4884 26.6865 96.8811 26.6865C97.5773 26.6865 98.3929 26.6865 99.1554 26.6865C100.587 26.6865 101.747 27.847 101.747 29.2787C102.214 28.797 102.342 28.6133 102.854 28.2219C103.381 27.8305 103.93 27.4918 104.502 27.2058C105.089 26.9198 105.714 26.7015 106.376 26.551C107.038 26.4005 107.761 26.3252 108.544 26.3252C109.808 26.3252 110.93 26.5435 111.908 26.98C112.887 27.4015 113.699 28.0036 114.347 28.7864C115.009 29.5541 115.506 30.4798 115.837 31.5637C116.183 32.6324 116.356 33.8141 116.356 35.1087V49.142C116.356 49.5348 116.038 49.8532 115.645 49.8532H114.335C112.371 49.8532 110.779 48.2612 110.779 46.2973V35.1087C110.779 33.6937 110.448 32.6023 109.786 31.8346C109.138 31.0519 108.16 30.6605 106.85 30.6605C105.887 30.6605 104.984 30.8788 104.141 31.3153C103.298 31.7518 102.5 32.3464 101.747 33.0991V49.142C101.747 49.5348 101.429 49.8532 101.036 49.8532H99.726Z" fill="#1D1D1D"/>
<path d="M122.381 26.6861C124.345 26.6861 125.937 28.2781 125.937 30.242V49.1417C125.937 49.5344 125.619 49.8528 125.226 49.8528H123.916C121.952 49.8528 120.36 48.2608 120.36 46.297V27.3973C120.36 27.0045 120.678 26.6861 121.071 26.6861H122.381ZM126.773 20.6882C126.773 21.1699 126.675 21.6215 126.48 22.043C126.284 22.4645 126.021 22.8333 125.689 23.1494C125.373 23.4655 124.997 23.7214 124.56 23.9171C124.124 24.0977 123.657 24.188 123.16 24.188C122.679 24.188 122.22 24.0977 121.783 23.9171C121.362 23.7214 120.993 23.4655 120.677 23.1494C120.361 22.8333 120.105 22.4645 119.909 22.043C119.728 21.6215 119.638 21.1699 119.638 20.6882C119.638 20.1914 119.728 19.7248 119.909 19.2882C120.105 18.8517 120.361 18.4754 120.677 18.1593C120.993 17.8432 121.362 17.5948 121.783 17.4141C122.22 17.2185 122.679 17.1206 123.16 17.1206C123.657 17.1206 124.124 17.2185 124.56 17.4141C124.997 17.5948 125.373 17.8432 125.689 18.1593C126.021 18.4754 126.284 18.8517 126.48 19.2882C126.675 19.7248 126.773 20.1914 126.773 20.6882Z" fill="#1D1D1D"/>
<path d="M148.94 49.8577C147.144 49.8577 145.688 48.4019 145.688 46.6062C145.13 47.418 144.996 47.6373 144.469 48.0739C143.942 48.5104 143.37 48.8868 142.753 49.2029C142.151 49.519 141.496 49.7598 140.788 49.9254C140.096 50.1061 139.343 50.1964 138.53 50.1964C137.266 50.1964 136.107 49.9329 135.053 49.4061C133.999 48.8792 133.089 48.119 132.321 47.1255C131.568 46.117 130.981 44.8751 130.56 43.3999C130.153 41.9247 129.95 40.2387 129.95 38.3421C129.95 36.626 130.183 35.0304 130.65 33.5552C131.117 32.08 131.787 30.8005 132.66 29.7166C133.533 28.6328 134.579 27.7898 135.798 27.1877C137.018 26.5705 138.387 26.262 139.908 26.262C141.202 26.262 142.309 26.4727 143.227 26.8942C144.145 27.3006 144.966 27.8501 145.688 28.5425V17.8371C145.688 17.4444 146.007 17.126 146.399 17.126H147.709C149.673 17.126 151.265 18.718 151.265 20.6818V49.1465C151.265 49.5393 150.947 49.8577 150.554 49.8577H148.94ZM140.427 45.7708C141.586 45.7708 142.572 45.5299 143.385 45.0482C144.198 44.5665 144.966 43.8816 145.688 42.9935V32.6068C145.056 31.8391 144.363 31.2972 143.611 30.9811C142.873 30.665 142.075 30.5069 141.217 30.5069C140.374 30.5069 139.607 30.665 138.914 30.9811C138.237 31.2972 137.657 31.7789 137.176 32.4262C136.709 33.0584 136.348 33.8713 136.092 34.8648C135.836 35.8432 135.708 37.0023 135.708 38.3421C135.708 39.6968 135.813 40.8484 136.024 41.7967C136.25 42.73 136.566 43.4977 136.972 44.0999C137.379 44.6869 137.876 45.116 138.463 45.3869C139.05 45.6428 139.705 45.7708 140.427 45.7708Z" fill="#1D1D1D"/>
<path d="M165.96 26.3281C167.691 26.3281 169.256 26.6066 170.656 27.1636C172.071 27.7205 173.275 28.5108 174.269 29.5344C175.262 30.558 176.03 31.8075 176.572 33.2827C177.114 34.7579 177.385 36.4062 177.385 38.2276C177.385 40.0641 177.114 41.7199 176.572 43.1951C176.03 44.6703 175.262 45.9272 174.269 46.9659C173.275 48.0046 172.071 48.8024 170.656 49.3594C169.256 49.9163 167.691 50.1948 165.96 50.1948C164.228 50.1948 162.655 49.9163 161.24 49.3594C159.825 48.8024 158.614 48.0046 157.605 46.9659C156.612 45.9272 155.836 44.6703 155.279 43.1951C154.738 41.7199 154.467 40.0641 154.467 38.2276C154.467 36.4062 154.738 34.7579 155.279 33.2827C155.836 31.8075 156.612 30.558 157.605 29.5344C158.614 28.5108 159.825 27.7205 161.24 27.1636C162.655 26.6066 164.228 26.3281 165.96 26.3281ZM165.96 45.9047C167.886 45.9047 169.309 45.2574 170.227 43.9628C171.16 42.6683 171.627 40.7716 171.627 38.2728C171.627 35.7739 171.16 33.8697 170.227 32.5601C169.309 31.2505 167.886 30.5957 165.96 30.5957C164.003 30.5957 162.558 31.258 161.624 32.5827C160.691 33.8923 160.224 35.789 160.224 38.2728C160.224 40.7565 160.691 42.6532 161.624 43.9628C162.558 45.2574 164.003 45.9047 165.96 45.9047Z" fill="#1D1D1D"/>
<path d="M78.7593 44.9355C79.9334 44.9355 80.9796 44.7398 81.8979 44.3484C82.8312 43.9571 83.6139 43.4076 84.2462 42.7001C84.8934 41.9926 85.3827 41.1346 85.7138 40.1261C86.06 39.1175 86.2332 37.9885 86.2332 36.7391V17.8396C86.2332 17.4468 86.5516 17.1284 86.9443 17.1284H88.7512C90.7151 17.1284 92.3071 18.7204 92.3071 20.6843V36.7391C92.3071 38.681 91.991 40.4798 91.3587 42.1356C90.7416 43.7764 89.8459 45.1989 88.6718 46.4032C87.4976 47.5924 86.0751 48.5257 84.4042 49.2031C82.7333 49.8654 80.8517 50.1966 78.7593 50.1966C76.6669 50.1966 74.7853 49.8654 73.1144 49.2031C71.4435 48.5257 70.021 47.5924 68.8468 46.4032C67.6878 45.1989 66.7921 43.7764 66.1599 42.1356C65.5427 40.4798 65.2341 38.681 65.2341 36.7391V17.8396C65.2341 17.4468 65.5525 17.1284 65.9453 17.1284H67.7522C69.716 17.1284 71.308 18.7204 71.308 20.6843V36.7165C71.308 37.9659 71.4736 39.0949 71.8048 40.1035C72.151 41.112 72.6402 41.9776 73.2725 42.7001C73.9047 43.4076 74.6799 43.9571 75.5982 44.3484C76.5314 44.7398 77.5852 44.9355 78.7593 44.9355Z" fill="#1D1D1D"/>
<path d="M194.433 31.6555C194.29 32.0187 193.856 32.1443 193.511 31.9623C193.257 31.8285 192.99 31.6901 192.851 31.6236C192.55 31.4731 192.196 31.3075 191.789 31.1268C191.383 30.9312 190.916 30.758 190.389 30.6075C189.878 30.457 189.268 30.3817 188.56 30.3817C187.462 30.3817 186.596 30.615 185.964 31.0817C185.332 31.5483 185.015 32.158 185.015 32.9106C185.015 33.4074 185.174 33.8289 185.49 34.1751C185.821 34.5063 186.25 34.7998 186.777 35.0557C187.319 35.3116 187.928 35.5449 188.606 35.7557C189.283 35.9514 189.975 36.1696 190.683 36.4105C191.39 36.6513 192.083 36.9298 192.76 37.2459C193.438 37.547 194.04 37.9384 194.567 38.4201C195.109 38.8867 195.538 39.4512 195.854 40.1135C196.185 40.7759 196.35 41.5737 196.35 42.507C196.35 43.6209 196.147 44.6521 195.741 45.6004C195.334 46.5337 194.74 47.3466 193.957 48.039C193.174 48.7164 192.203 49.2508 191.044 49.6421C189.9 50.0185 188.583 50.2066 187.093 50.2066C186.295 50.2066 185.512 50.1314 184.745 49.9808C183.992 49.8454 183.262 49.6497 182.554 49.3938C182.35 49.3181 182.149 49.2367 181.952 49.15C179.927 48.2614 180.026 46.0393 180.959 44.4265C181.135 44.1221 181.525 44.0409 181.832 44.2111C182.179 44.4027 182.594 44.6363 182.758 44.7424C183.074 44.9381 183.435 45.1488 183.841 45.3746C184.248 45.6004 184.722 45.8111 185.264 46.0068C185.821 46.2025 186.521 46.3004 187.364 46.3004C188.026 46.3004 188.591 46.2251 189.057 46.0746C189.539 45.909 189.93 45.6982 190.231 45.4423C190.547 45.1864 190.773 44.8929 190.909 44.5617C191.059 44.2155 191.135 43.8618 191.135 43.5005C191.135 42.9586 190.969 42.5145 190.638 42.1683C190.322 41.8221 189.893 41.521 189.351 41.2651C188.824 41.0092 188.214 40.7834 187.522 40.5877C186.844 40.377 186.144 40.1512 185.422 39.9103C184.714 39.6695 184.014 39.391 183.322 39.0749C182.645 38.7437 182.035 38.3298 181.493 37.833C180.966 37.3362 180.537 36.7266 180.206 36.004C179.89 35.2815 179.732 34.4084 179.732 33.3848C179.732 32.4365 179.92 31.5333 180.296 30.6753C180.673 29.8172 181.222 29.0721 181.945 28.4399C182.682 27.7926 183.593 27.2808 184.677 26.9045C185.776 26.5131 187.04 26.3174 188.47 26.3174C190.066 26.3174 191.518 26.5808 192.828 27.1077C194.866 27.9274 195.115 29.9215 194.433 31.6555Z" fill="#1D1D1D"/>
</svg>
