<svg width="123" height="205" viewBox="0 0 123 205" fill="none" xmlns="http://www.w3.org/2000/svg">
<path fill-rule="evenodd" clip-rule="evenodd" d="M15.2055 7.64256C40.4376 8.22096 68.2611 -5.10922 89.0515 9.24665C109.894 23.6389 111.565 53.2321 117.101 78.0022C122.111 100.419 126.222 123.254 119.434 145.194C112.584 167.331 99.7841 188.954 79.397 199.858C60.0391 210.212 37.1223 201.886 15.2055 200.942C-5.49922 200.051 -27.315 205.164 -45.103 194.496C-63.6398 183.379 -73.4723 162.838 -81.7215 142.814C-90.6146 121.227 -97.5595 98.6875 -94.0888 75.5905C-90.1682 49.4988 -83.49 19.7028 -61.1336 5.80396C-38.9546 -7.98468 -10.8799 7.04461 15.2055 7.64256Z" fill="#493FB6" fill-opacity="0.25"/>
</svg>
